<?xml version="1.0" encoding="UTF-8" standalone="no"?>
<svg
        xmlns="http://www.w3.org/2000/svg"
        version="1.1"
        id="svg2"
        xml:space="preserve"
        width="666.66669"
        height="496.81332"
        viewBox="0 0 666.66669 496.81332"
><defs
     id="defs6"><clipPath
       id="clipPath228"><path
         d="m 2543.98,2926.01 c -0.03,0 -0.05,0.01 -0.08,0.01 4.02,8.83 5.64,17.64 5.45,25.93 h 0.01 c 0.2,-8.3 -1.4,-17.11 -5.38,-25.94"
         id="path226" /></clipPath></defs><g
     id="g10"
     transform="matrix(1.3333333,0,0,-1.3333333,0,496.81333)"><g
       id="g12"
       transform="scale(0.1)"><path
         d="M 5000,449.129 H 0 v 2.5 h 5000 v -2.5"
         style="fill:#e7e8e5;fill-opacity:1;fill-rule:nonzero;stroke:none"
         id="path14" /><path
         d="m 4236.67,290.672 h 262.34 v -2.5 h -262.34 v 2.5"
         style="fill:#e7e8e5;fill-opacity:1;fill-rule:nonzero;stroke:none"
         id="path16" /><path
         d="m 3225.27,323.262 h 342.35 v -2.5 h -342.35 v 2.5"
         style="fill:#e7e8e5;fill-opacity:1;fill-rule:nonzero;stroke:none"
         id="path18" /><path
         d="m 3893.33,383.531 h 264.45 v -2.5 h -264.45 v 2.5"
         style="fill:#e7e8e5;fill-opacity:1;fill-rule:nonzero;stroke:none"
         id="path20" /><path
         d="M 1108.89,366.73 H 676.953 v -2.5 h 431.937 v 2.5"
         style="fill:#e7e8e5;fill-opacity:1;fill-rule:nonzero;stroke:none"
         id="path22" /><path
         d="M 587.922,366.73 H 524.59 v -2.5 h 63.332 v 2.5"
         style="fill:#e7e8e5;fill-opacity:1;fill-rule:nonzero;stroke:none"
         id="path24" /><path
         d="m 1314.71,324.512 h 561.96 v -2.5 h -561.96 v 2.5"
         style="fill:#e7e8e5;fill-opacity:1;fill-rule:nonzero;stroke:none"
         id="path26" /><path
         d="m 439.152,3723.59 c -30.101,0 -54.582,-24.48 -54.582,-54.57 V 954.699 c 0,-30.097 24.481,-54.578 54.582,-54.578 H 2370.14 c 30.08,0 54.57,24.481 54.57,54.578 V 3669.02 c 0,30.09 -24.49,54.57 -54.57,54.57 H 439.152 M 2370.14,897.621 H 439.152 c -31.476,0 -57.082,25.598 -57.082,57.078 V 3669.02 c 0,31.46 25.606,57.07 57.082,57.07 H 2370.14 c 31.46,0 57.07,-25.61 57.07,-57.07 V 954.699 c 0,-31.48 -25.61,-57.078 -57.07,-57.078"
         style="fill:#e7e8e5;fill-opacity:1;fill-rule:nonzero;stroke:none"
         id="path28" /><path
         d="m 2602.12,3723.59 c -30.09,0 -54.57,-24.48 -54.57,-54.57 V 954.699 c 0,-30.097 24.48,-54.578 54.57,-54.578 h 1930.99 c 30.09,0 54.58,24.481 54.58,54.578 V 3669.02 c 0,30.09 -24.49,54.57 -54.58,54.57 H 2602.12 M 4533.11,897.621 H 2602.12 c -31.47,0 -57.07,25.598 -57.07,57.078 V 3669.02 c 0,31.46 25.6,57.07 57.07,57.07 h 1930.99 c 31.47,0 57.08,-25.61 57.08,-57.07 V 954.699 c 0,-31.48 -25.61,-57.078 -57.08,-57.078"
         style="fill:#e7e8e5;fill-opacity:1;fill-rule:nonzero;stroke:none"
         id="path30" /><path
         d="m 4088.44,1491.76 h -1126 v 1738.51 h 1126 V 1491.76"
         style="fill:#e7e8e5;fill-opacity:1;fill-rule:nonzero;stroke:none"
         id="path32" /><path
         d="m 2167.57,1491.76 h 794.871 v 1738.5 H 2167.57 Z"
         style="fill:#f3f2f1;fill-opacity:1;fill-rule:nonzero;stroke:none"
         id="path34" /><path
         d="m 2167.57,1491.76 h -14.15 v 1738.51 h 14.15 V 1491.76"
         style="fill:#e2e2e0;fill-opacity:1;fill-rule:nonzero;stroke:none"
         id="path36" /><path
         d="M 2983.64,1512.96 V 3209.07 H 4067.25 V 1512.96 H 2983.64"
         style="fill:#f3f2f1;fill-opacity:1;fill-rule:nonzero;stroke:none"
         id="path38" /><path
         d="M 4067.25,2199.35 H 3494.7 v 1009.72 h 10 v -999.72 h 562.55 v -10"
         style="fill:#dadbd8;fill-opacity:1;fill-rule:nonzero;stroke:none"
         id="path40" /><path
         d="M 4088.44,1491.76 H 4270 V 3230.27 H 4088.44 V 1491.76"
         style="fill:#dadbd8;fill-opacity:1;fill-rule:nonzero;stroke:none"
         id="path42" /><path
         d="m 2983.64,1512.96 h 181.55 V 3209.07 H 2983.64 V 1512.96"
         style="fill:#dadbd8;fill-opacity:1;fill-rule:nonzero;stroke:none"
         id="path44" /><path
         d="m 3692.28,2326.28 h -461.72 v 671.29 h 461.72 v -671.29"
         style="fill:#e2e2e0;fill-opacity:1;fill-rule:nonzero;stroke:none"
         id="path46" /><path
         d="m 3617.97,2475.8 h -313.11 c -11.11,0 -20.11,9.01 -20.11,20.12 v 426.23 c 0,11.12 9,20.13 20.11,20.13 h 313.11 c 11.12,0 20.13,-9.01 20.13,-20.13 v -426.23 c 0,-11.11 -9.01,-20.12 -20.13,-20.12"
         style="fill:#ededeb;fill-opacity:1;fill-rule:nonzero;stroke:none"
         id="path48" /><path
         d="m 3692.28,2326.28 h 84.8 v 671.29 h -84.8 v -671.29"
         style="fill:#dadbd8;fill-opacity:1;fill-rule:nonzero;stroke:none"
         id="path50" /><path
         d="m 3461.42,2763.93 v 0 c -8.1,0 -14.73,6.63 -14.73,14.73 v 80.79 c 0,8.09 6.63,14.72 14.73,14.72 8.1,0 14.72,-6.63 14.72,-14.72 v -80.79 c 0,-8.1 -6.62,-14.73 -14.72,-14.73"
         style="fill:#fafaf9;fill-opacity:1;fill-rule:nonzero;stroke:none"
         id="path52" /><path
         d="m 3408.42,2763.93 v 0 c -8.1,0 -14.73,6.63 -14.73,14.73 v 80.79 c 0,8.09 6.63,14.72 14.73,14.72 8.09,0 14.72,-6.63 14.72,-14.72 v -80.79 c 0,-8.1 -6.63,-14.73 -14.72,-14.73"
         style="fill:#fafaf9;fill-opacity:1;fill-rule:nonzero;stroke:none"
         id="path54" /><path
         d="m 3355.42,2763.93 v 0 c -8.11,0 -14.73,6.63 -14.73,14.73 v 80.79 c 0,8.09 6.62,14.72 14.73,14.72 8.09,0 14.72,-6.63 14.72,-14.72 v -80.79 c 0,-8.1 -6.63,-14.73 -14.72,-14.73"
         style="fill:#fafaf9;fill-opacity:1;fill-rule:nonzero;stroke:none"
         id="path56" /><path
         d="m 3514.42,2763.93 v 0 c -8.1,0 -14.72,6.63 -14.72,14.73 v 80.79 c 0,8.09 6.62,14.72 14.72,14.72 8.1,0 14.73,-6.63 14.73,-14.72 v -80.79 c 0,-8.1 -6.63,-14.73 -14.73,-14.73"
         style="fill:#fafaf9;fill-opacity:1;fill-rule:nonzero;stroke:none"
         id="path58" /><path
         d="m 3567.42,2763.93 v 0 c -8.09,0 -14.72,6.63 -14.72,14.73 v 80.79 c 0,8.09 6.63,14.72 14.72,14.72 8.1,0 14.73,-6.63 14.73,-14.72 v -80.79 c 0,-8.1 -6.63,-14.73 -14.73,-14.73"
         style="fill:#fafaf9;fill-opacity:1;fill-rule:nonzero;stroke:none"
         id="path60" /><path
         d="m 3355.42,2648.8 c 0,-5.77 -4.69,-10.45 -10.46,-10.45 -5.77,0 -10.45,4.68 -10.45,10.45 0,5.77 4.68,10.45 10.45,10.45 5.77,0 10.46,-4.68 10.46,-10.45"
         style="fill:#fafaf9;fill-opacity:1;fill-rule:nonzero;stroke:none"
         id="path62" /><path
         d="m 3355.42,2553.39 c 0,-5.77 -4.69,-10.45 -10.46,-10.45 -5.77,0 -10.45,4.68 -10.45,10.45 0,5.78 4.68,10.46 10.45,10.46 5.77,0 10.46,-4.68 10.46,-10.46"
         style="fill:#e2e2e0;fill-opacity:1;fill-rule:nonzero;stroke:none"
         id="path64" /><path
         d="m 3397.82,2553.39 c 0,-5.77 -4.69,-10.45 -10.46,-10.45 -5.77,0 -10.45,4.68 -10.45,10.45 0,5.78 4.68,10.46 10.45,10.46 5.77,0 10.46,-4.68 10.46,-10.46"
         style="fill:#e2e2e0;fill-opacity:1;fill-rule:nonzero;stroke:none"
         id="path66" /><path
         d="m 3440.22,2553.39 c 0,-5.77 -4.68,-10.45 -10.45,-10.45 -5.78,0 -10.46,4.68 -10.46,10.45 0,5.78 4.68,10.46 10.46,10.46 5.77,0 10.45,-4.68 10.45,-10.46"
         style="fill:#e2e2e0;fill-opacity:1;fill-rule:nonzero;stroke:none"
         id="path68" /><path
         d="m 3370.58,1585.99 h -83.04 v 513.91 h 83.04 v -513.91"
         style="fill:#e2e2e0;fill-opacity:1;fill-rule:nonzero;stroke:none"
         id="path70" /><path
         d="m 3370.58,1959.72 h -83.04 v 42.61 h 83.04 v -42.61"
         style="fill:#dadbd8;fill-opacity:1;fill-rule:nonzero;stroke:none"
         id="path72" /><path
         d="m 3370.58,1812.6 h -83.04 v 18.08 h 83.04 v -18.08"
         style="fill:#dadbd8;fill-opacity:1;fill-rule:nonzero;stroke:none"
         id="path74" /><path
         d="m 3370.58,1585.99 h 31.8 v 513.91 h -31.8 v -513.91"
         style="fill:#dadbd8;fill-opacity:1;fill-rule:nonzero;stroke:none"
         id="path76" /><path
         d="m 3347.09,2048.88 c 0,-9.96 -8.07,-18.04 -18.03,-18.04 -9.96,0 -18.03,8.08 -18.03,18.04 0,9.96 8.07,18.03 18.03,18.03 9.96,0 18.03,-8.07 18.03,-18.03"
         style="fill:#f3f2f1;fill-opacity:1;fill-rule:nonzero;stroke:none"
         id="path78" /><path
         d="m 3476.58,1585.99 h -83.04 v 513.91 h 83.04 v -513.91"
         style="fill:#e2e2e0;fill-opacity:1;fill-rule:nonzero;stroke:none"
         id="path80" /><path
         d="m 3476.58,1959.72 h -83.04 v 42.61 h 83.04 v -42.61"
         style="fill:#dadbd8;fill-opacity:1;fill-rule:nonzero;stroke:none"
         id="path82" /><path
         d="m 3476.58,1812.6 h -83.04 v 18.08 h 83.04 v -18.08"
         style="fill:#dadbd8;fill-opacity:1;fill-rule:nonzero;stroke:none"
         id="path84" /><path
         d="m 3476.58,1585.99 h 31.8 v 513.91 h -31.8 v -513.91"
         style="fill:#dadbd8;fill-opacity:1;fill-rule:nonzero;stroke:none"
         id="path86" /><path
         d="m 3453.1,2048.88 c 0,-9.96 -8.08,-18.04 -18.04,-18.04 -9.96,0 -18.03,8.08 -18.03,18.04 0,9.96 8.07,18.03 18.03,18.03 9.96,0 18.04,-8.07 18.04,-18.03"
         style="fill:#f3f2f1;fill-opacity:1;fill-rule:nonzero;stroke:none"
         id="path88" /><path
         d="m 3582.59,1585.99 h -83.04 v 513.91 h 83.04 v -513.91"
         style="fill:#e2e2e0;fill-opacity:1;fill-rule:nonzero;stroke:none"
         id="path90" /><path
         d="m 3582.59,1959.72 h -83.04 v 42.61 h 83.04 v -42.61"
         style="fill:#dadbd8;fill-opacity:1;fill-rule:nonzero;stroke:none"
         id="path92" /><path
         d="m 3582.59,1812.6 h -83.04 v 18.08 h 83.04 v -18.08"
         style="fill:#dadbd8;fill-opacity:1;fill-rule:nonzero;stroke:none"
         id="path94" /><path
         d="m 3582.59,1585.99 h 31.8 v 513.91 h -31.8 v -513.91"
         style="fill:#dadbd8;fill-opacity:1;fill-rule:nonzero;stroke:none"
         id="path96" /><path
         d="m 3559.11,2048.88 c 0,-9.96 -8.08,-18.04 -18.04,-18.04 -9.96,0 -18.04,8.08 -18.04,18.04 0,9.96 8.08,18.03 18.04,18.03 9.96,0 18.04,-8.07 18.04,-18.03"
         style="fill:#f3f2f1;fill-opacity:1;fill-rule:nonzero;stroke:none"
         id="path98" /><path
         d="m 3688.59,1585.99 h -83.03 v 513.91 h 83.03 v -513.91"
         style="fill:#e2e2e0;fill-opacity:1;fill-rule:nonzero;stroke:none"
         id="path100" /><path
         d="m 3688.59,1959.72 h -83.03 v 42.61 h 83.03 v -42.61"
         style="fill:#dadbd8;fill-opacity:1;fill-rule:nonzero;stroke:none"
         id="path102" /><path
         d="m 3688.59,1812.6 h -83.03 v 18.08 h 83.03 v -18.08"
         style="fill:#dadbd8;fill-opacity:1;fill-rule:nonzero;stroke:none"
         id="path104" /><path
         d="m 3688.59,1585.99 h 31.81 v 513.91 h -31.81 v -513.91"
         style="fill:#dadbd8;fill-opacity:1;fill-rule:nonzero;stroke:none"
         id="path106" /><path
         d="m 3665.11,2048.88 c 0,-9.96 -8.07,-18.04 -18.03,-18.04 -9.97,0 -18.04,8.08 -18.04,18.04 0,9.96 8.07,18.03 18.04,18.03 9.96,0 18.03,-8.07 18.03,-18.03"
         style="fill:#f3f2f1;fill-opacity:1;fill-rule:nonzero;stroke:none"
         id="path108" /><path
         d="m 3794.6,1585.99 h -83.04 v 513.91 h 83.04 v -513.91"
         style="fill:#e2e2e0;fill-opacity:1;fill-rule:nonzero;stroke:none"
         id="path110" /><path
         d="m 3794.6,1959.72 h -83.04 v 42.61 h 83.04 v -42.61"
         style="fill:#dadbd8;fill-opacity:1;fill-rule:nonzero;stroke:none"
         id="path112" /><path
         d="m 3794.6,1812.6 h -83.04 v 18.08 h 83.04 v -18.08"
         style="fill:#dadbd8;fill-opacity:1;fill-rule:nonzero;stroke:none"
         id="path114" /><path
         d="m 3794.6,1585.99 h 31.8 v 513.91 h -31.8 v -513.91"
         style="fill:#dadbd8;fill-opacity:1;fill-rule:nonzero;stroke:none"
         id="path116" /><path
         d="m 3771.11,2048.88 c 0,-9.96 -8.07,-18.04 -18.03,-18.04 -9.96,0 -18.04,8.08 -18.04,18.04 0,9.96 8.08,18.03 18.04,18.03 9.96,0 18.03,-8.07 18.03,-18.03"
         style="fill:#f3f2f1;fill-opacity:1;fill-rule:nonzero;stroke:none"
         id="path118" /><path
         d="m 3900.6,1585.99 h -83.04 v 513.91 h 83.04 v -513.91"
         style="fill:#e2e2e0;fill-opacity:1;fill-rule:nonzero;stroke:none"
         id="path120" /><path
         d="m 3900.6,1959.72 h -83.04 v 42.61 h 83.04 v -42.61"
         style="fill:#dadbd8;fill-opacity:1;fill-rule:nonzero;stroke:none"
         id="path122" /><path
         d="m 3900.6,1812.6 h -83.04 v 18.08 h 83.04 v -18.08"
         style="fill:#dadbd8;fill-opacity:1;fill-rule:nonzero;stroke:none"
         id="path124" /><path
         d="m 3900.6,1585.99 h 31.8 v 513.91 h -31.8 v -513.91"
         style="fill:#dadbd8;fill-opacity:1;fill-rule:nonzero;stroke:none"
         id="path126" /><path
         d="m 3877.12,2048.88 c 0,-9.96 -8.08,-18.04 -18.04,-18.04 -9.96,0 -18.03,8.08 -18.03,18.04 0,9.96 8.07,18.03 18.03,18.03 9.96,0 18.04,-8.07 18.04,-18.03"
         style="fill:#f3f2f1;fill-opacity:1;fill-rule:nonzero;stroke:none"
         id="path128" /><path
         d="m 3334.06,2099.9 h -10 v 109.45 h 175.64 v -10 h -165.64 v -99.45"
         style="fill:#dadbd8;fill-opacity:1;fill-rule:nonzero;stroke:none"
         id="path130" /><path
         d="m 3440.07,2099.9 h -10 v 104.45 h 10 V 2099.9"
         style="fill:#dadbd8;fill-opacity:1;fill-rule:nonzero;stroke:none"
         id="path132" /><path
         d="m 3546.07,2099.9 h -10 v 104.45 h 10 V 2099.9"
         style="fill:#dadbd8;fill-opacity:1;fill-rule:nonzero;stroke:none"
         id="path134" /><path
         d="m 3652.07,2099.9 h -10 v 104.45 h 10 V 2099.9"
         style="fill:#dadbd8;fill-opacity:1;fill-rule:nonzero;stroke:none"
         id="path136" /><path
         d="m 3758.08,2099.9 h -10 v 104.45 h 10 V 2099.9"
         style="fill:#dadbd8;fill-opacity:1;fill-rule:nonzero;stroke:none"
         id="path138" /><path
         d="m 3864.08,2099.9 h -10 v 104.45 h 10 V 2099.9"
         style="fill:#dadbd8;fill-opacity:1;fill-rule:nonzero;stroke:none"
         id="path140" /><path
         d="m 3999.1,2441.09 h -158.05 v 306.24 h 158.05 v -306.24"
         style="fill:#e7e8e5;fill-opacity:1;fill-rule:nonzero;stroke:none"
         id="path142" /><path
         d="m 3983.79,2441.09 h -142.74 v 306.24 h 142.74 v -306.24"
         style="fill:#ffffff;fill-opacity:1;fill-rule:nonzero;stroke:none"
         id="path144" /><path
         d="m 3926.37,3209.07 h -12.59 v -461.74 h 12.59 v 461.74"
         style="fill:#dadbd8;fill-opacity:1;fill-rule:nonzero;stroke:none"
         id="path146" /><path
         d="m 1437.44,1497.9 -77.6,322.28 h 294.11 l 77.59,-322.28 z m 151.23,1070.3 h -408.93 l 8.3,-34.49 h 294.1 l 77.6,-322.28 h -294.1 l 8.3,-34.49 h 294.11 l 77.59,-322.27 h -294.1 l 6.91,-28.72 -178.71,742.25 h -30.77 -84.06 L 1575.13,449.129 h 84.06 30.77 l -248.5,1032.041 4.29,-17.76 h 294.1 l 77.6,-322.28 h -294.11 l 8.31,-34.49 h 294.1 l 77.59,-322.281 h -294.09 l 8.3,-34.48 h 294.1 l 72.41,-300.75 h 84.07 30.76 L 1588.67,2568.2"
         style="fill:#dadbd8;fill-opacity:1;fill-rule:nonzero;stroke:none"
         id="path148" /><path
         d="m 861.152,449.129 h 30.766 L 1402.14,2568.2 h -30.77 L 861.152,449.129"
         style="fill:#f3f2f1;fill-opacity:1;fill-rule:nonzero;stroke:none"
         id="path150" /><path
         d="M 975.984,449.129 H 891.918 L 1402.14,2568.2 h 84.07 L 975.984,449.129"
         style="fill:#e2e2e0;fill-opacity:1;fill-rule:nonzero;stroke:none"
         id="path152" /><path
         d="m 452.223,449.129 h 30.765 L 993.207,2568.2 H 962.441 L 452.223,449.129"
         style="fill:#f3f2f1;fill-opacity:1;fill-rule:nonzero;stroke:none"
         id="path154" /><path
         d="M 567.055,449.129 H 482.988 L 993.207,2568.2 h 84.073 L 567.055,449.129"
         style="fill:#e2e2e0;fill-opacity:1;fill-rule:nonzero;stroke:none"
         id="path156" /><path
         d="m 984.902,2533.71 h 378.168 l 8.3,34.49 H 993.207 l -8.305,-34.49"
         style="fill:#f3f2f1;fill-opacity:1;fill-rule:nonzero;stroke:none"
         id="path158" /><path
         d="m 899.004,2176.95 h 378.166 l 8.3,34.48 H 907.309 l -8.305,-34.48"
         style="fill:#f3f2f1;fill-opacity:1;fill-rule:nonzero;stroke:none"
         id="path160" /><path
         d="m 813.102,1820.18 h 378.168 l 8.3,34.49 H 821.406 l -8.304,-34.49"
         style="fill:#f3f2f1;fill-opacity:1;fill-rule:nonzero;stroke:none"
         id="path162" /><path
         d="m 727.203,1463.41 h 378.167 l 8.3,34.49 H 735.504 l -8.301,-34.49"
         style="fill:#f3f2f1;fill-opacity:1;fill-rule:nonzero;stroke:none"
         id="path164" /><path
         d="m 641.301,1106.64 h 378.169 l 8.3,34.49 H 649.605 l -8.304,-34.49"
         style="fill:#f3f2f1;fill-opacity:1;fill-rule:nonzero;stroke:none"
         id="path166" /><path
         d="m 555.398,749.879 h 378.165 l 8.308,34.48 H 563.699 l -8.301,-34.48"
         style="fill:#f3f2f1;fill-opacity:1;fill-rule:nonzero;stroke:none"
         id="path168" /><path
         d="m 3818.18,1060.76 v 88.48 c 0,24.05 -19.49,43.54 -43.54,43.54 -24.05,0 -43.55,-19.49 -43.55,-43.54 v -88.48 c 0,-34.87 -13.61,-68.362 -37.93,-93.338 L 3584.91,856.219 c -22.53,-23.137 -32.12,-55.949 -25.61,-87.578 l 65.22,-317.012 h 300.23 l 65.23,317.012 c 6.5,31.629 -3.09,64.441 -25.62,87.578 l -108.25,111.203 c -24.32,24.976 -37.93,58.468 -37.93,93.338"
         style="fill:#e7e8e5;fill-opacity:1;fill-rule:nonzero;stroke:none"
         id="path170" /><path
         d="m 3748.28,1159.27 h 26.36 v 33.51 h -26.36 v -33.51"
         style="fill:#e7e8e5;fill-opacity:1;fill-rule:nonzero;stroke:none"
         id="path172" /><path
         d="m 3791.83,1060.76 v 88.48 c 0,24.05 -19.5,43.54 -43.55,43.54 -24.05,0 -43.54,-19.49 -43.54,-43.54 v -88.48 c 0,-34.87 -13.61,-68.362 -37.93,-93.338 L 3558.56,856.219 c -22.53,-23.137 -32.12,-55.949 -25.62,-87.578 l 65.23,-317.012 h 300.23 l 65.22,317.012 c 6.51,31.629 -3.08,64.441 -25.61,87.578 l -108.25,111.203 c -24.32,24.976 -37.93,58.468 -37.93,93.338"
         style="fill:#dadbd8;fill-opacity:1;fill-rule:nonzero;stroke:none"
         id="path174" /><path
         d="M 3748.28,1159.27 H 3148.2 v -35.91 h 600.08 c 9.92,0 17.96,8.03 17.96,17.95 0,9.92 -8.04,17.96 -17.96,17.96"
         style="fill:#e7e8e5;fill-opacity:1;fill-rule:nonzero;stroke:none"
         id="path176" /><path
         d="m 3218.1,1060.76 v 88.48 c 0,24.05 -19.5,43.54 -43.54,43.54 -24.05,0 -43.55,-19.49 -43.55,-43.54 v -88.48 c 0,-34.87 -13.61,-68.362 -37.93,-93.338 L 2984.83,856.219 c -22.53,-23.137 -32.12,-55.949 -25.61,-87.578 l 65.22,-317.012 h 300.23 l 65.22,317.012 c 6.51,31.629 -3.08,64.441 -25.61,87.578 l -108.25,111.203 c -24.32,24.976 -37.93,58.468 -37.93,93.338"
         style="fill:#e7e8e5;fill-opacity:1;fill-rule:nonzero;stroke:none"
         id="path178" /><path
         d="m 3148.2,1159.27 h 26.36 v 33.51 h -26.36 v -33.51"
         style="fill:#e7e8e5;fill-opacity:1;fill-rule:nonzero;stroke:none"
         id="path180" /><path
         d="m 3191.74,1060.76 v 88.48 c 0,24.05 -19.49,43.54 -43.54,43.54 -24.05,0 -43.55,-19.49 -43.55,-43.54 v -88.48 c 0,-34.87 -13.61,-68.362 -37.93,-93.338 L 2958.48,856.219 c -22.53,-23.137 -32.13,-55.949 -25.62,-87.578 l 65.23,-317.012 h 300.23 l 65.22,317.012 c 6.51,31.629 -3.09,64.441 -25.62,87.578 l -108.24,111.203 c -24.32,24.976 -37.94,58.468 -37.94,93.338"
         style="fill:#f3f2f1;fill-opacity:1;fill-rule:nonzero;stroke:none"
         id="path182" /><path
         d="m 3166.15,1141.31 c 0,-9.91 -8.03,-17.95 -17.95,-17.95 -9.91,0 -17.96,8.04 -17.96,17.95 0,9.92 8.05,17.96 17.96,17.96 9.92,0 17.95,-8.04 17.95,-17.96"
         style="fill:#e7e8e5;fill-opacity:1;fill-rule:nonzero;stroke:none"
         id="path184" /><path
         d="m 3969.43,768.641 h -584.16 l -66.41,-317.012 h 584.16 l 66.41,317.012"
         style="fill:#e7e8e5;fill-opacity:1;fill-rule:nonzero;stroke:none"
         id="path186" /><path
         d="M 960,3460.36 H 506.664 v 100.1 H 960 v -100.1"
         style="fill:#fafaf9;fill-opacity:1;fill-rule:nonzero;stroke:none"
         id="path188" /><path
         d="M 1176.05,3360.27 H 722.715 v 100.09 h 453.335 v -100.09"
         style="fill:#f3f2f1;fill-opacity:1;fill-rule:nonzero;stroke:none"
         id="path190" /><path
         d="M 3839.04,3491.44 H 3385.7 v -100.09 h 453.34 v 100.09"
         style="fill:#fafaf9;fill-opacity:1;fill-rule:nonzero;stroke:none"
         id="path192" /><path
         d="m 4055.08,3591.53 h -453.33 v -100.09 h 453.33 v 100.09"
         style="fill:#f3f2f1;fill-opacity:1;fill-rule:nonzero;stroke:none"
         id="path194" /><path
         d="M 949.379,2790.86 H 496.051 v 100.09 h 453.328 v -100.09"
         style="fill:#f3f2f1;fill-opacity:1;fill-rule:nonzero;stroke:none"
         id="path196" /><path
         d="m 4426.18,1263.12 h -453.34 v 100.09 h 453.34 v -100.09"
         style="fill:#f3f2f1;fill-opacity:1;fill-rule:nonzero;stroke:none"
         id="path198" /><path
         d="M 4438.89,113.238 C 4438.89,50.6992 3570.83,0 2500,0 1429.18,0 561.109,50.6992 561.109,113.238 c 0,62.532 868.071,113.231 1938.891,113.231 1070.83,0 1938.89,-50.699 1938.89,-113.231"
         style="fill:#f3f2f1;fill-opacity:1;fill-rule:nonzero;stroke:none"
         id="path200" /><path
         d="m 2452.09,2652.85 c -12.73,-12.29 -24.05,-22.76 -36.41,-33.58 -12.08,-10.78 -24.56,-21.05 -37.05,-31.37 -25.22,-20.37 -50.96,-40.32 -78.34,-58.99 -27.24,-18.9 -55.57,-36.93 -87.02,-53.39 -15.78,-8.21 -32.04,-16.4 -50.34,-23.43 -18.46,-7 -38.24,-13.71 -63.85,-17.51 l -5.11,-0.76 c -3.43,-0.51 -7.09,-0.62 -10.43,-0.4 -28.3,2 -47.51,9.17 -64.43,16.59 -16.78,7.57 -30.85,15.85 -43.97,24.38 -26.26,16.96 -48.27,35.72 -69.41,54.61 -20.82,19.22 -40.23,39.02 -58.57,59.61 -18.35,20.81 -35.44,41.47 -51.93,64.78 -14.44,20.43 -9.6,48.7 10.83,63.15 15.4,10.89 35.26,10.82 50.29,1.38 l 1.23,-0.79 64.62,-40.71 c 21.53,-13.42 42.89,-26.6 64.16,-38.6 21.01,-12.23 42.37,-23.1 61.92,-31.62 9.74,-4.26 19.22,-7.64 26.93,-9.4 7.52,-1.83 13.87,-1.98 11.83,-0.91 l -15.54,-1.16 c 4.82,1.69 14.29,5.56 24.12,10.84 9.98,5.43 21.04,11.72 32.05,18.85 11.06,7.06 22.31,14.9 33.55,23.16 11.35,8.05 22.72,16.55 34.02,25.38 22.56,17.67 45.33,35.98 67.75,54.9 l 33.63,28.5 32.69,28.11 1.58,1.37 c 37.69,32.41 94.52,28.13 126.93,-9.55 31.21,-36.31 28.2,-90.55 -5.73,-123.44"
         style="fill:#ea675a;fill-opacity:1;fill-rule:nonzero;stroke:none"
         id="path202" /><path
         d="m 1840.32,2648.68 -100.32,-10.31 21.86,118.97 c 0,0 91.96,-1.7 98.96,-50.72 l -20.5,-57.94"
         style="fill:#17282f;fill-opacity:1;fill-rule:nonzero;stroke:none"
         id="path204" /><path
         d="m 1658.23,2703.86 14.69,40.4 c 5.85,16.08 22.49,25.56 39.31,22.4 l 49.63,-9.32 -21.86,-118.97 -60.17,20.46 c -18.55,6.3 -28.29,26.62 -21.6,45.03"
         style="fill:#17282f;fill-opacity:1;fill-rule:nonzero;stroke:none"
         id="path206" /><path
         d="m 1770.93,2663.8 c 26.29,-20.58 70.06,-83.28 78.87,-101.96 66.27,24.2 99.36,86.8 90.45,109.53 -45.29,34.86 -84.22,58.3 -112.9,63.87 -46.85,-9.96 -56.42,-71.44 -56.42,-71.44"
         style="fill:#17282f;fill-opacity:1;fill-rule:nonzero;stroke:none"
         id="path208" /><path
         d="m 2523.35,2752.8 c -14.68,-49.17 -46.8,-118.12 -95.91,-146.45 -49.11,-28.33 -134.07,-135.16 -199.02,-163.34 -103.89,53.21 -109.38,147.43 -97.15,196 62.95,83.37 177.87,205.65 237.58,221.84 52,14.1 96.95,-67.46 154.5,-108.05"
         style="fill:#17282f;fill-opacity:1;fill-rule:nonzero;stroke:none"
         id="path210" /><path
         d="m 2511.78,3141.73 c 34.08,-14.15 54.37,-8.74 54.37,-8.74 0,0 -19.84,25.7 -20.33,38.54 5.24,-7.59 14.03,-14.32 24.97,-15.23 -15.54,54.92 18.4,76.72 7.33,98.12 -21,40.55 -98.36,41.03 -91.4,-2.76 -32.02,-16.91 -37.96,-57.34 -37.96,-57.34 0,0 9.4,15.11 21.36,20.31 -13.34,-31.42 -6.72,-75.89 16.32,-109.28 36.04,3.82 25.34,36.38 25.34,36.38"
         style="fill:#17282f;fill-opacity:1;fill-rule:nonzero;stroke:none"
         id="path212" /><path
         d="m 2912.39,1777.59 30.13,7.75 c 21.31,5.49 34.25,27.4 28.77,48.71 l -47.36,184 c -5.49,21.31 -27.41,34.25 -48.72,28.77 l -30.12,-7.76 c -21.31,-5.48 -34.26,-27.4 -28.77,-48.71 l 47.37,-184 c 5.48,-21.3 27.4,-34.25 48.7,-28.76"
         style="fill:#17282f;fill-opacity:1;fill-rule:nonzero;stroke:none"
         id="path214" /><path
         d="m 2839.36,2051.6 c 41.89,29.21 66.34,28.81 82.56,17.06 16.22,-11.75 20.04,-83.18 42.9,-120.97 -31.03,-14.4 -125.46,103.91 -125.46,103.91"
         style="fill:#17282f;fill-opacity:1;fill-rule:nonzero;stroke:none"
         id="path216" /><path
         d="m 2786.12,2879.25 c -102.35,12.62 -240.29,13.81 -350.64,2.27 -99.27,-10.39 -174.72,-94.72 -174.41,-194.52 0.56,-179.35 47.51,-440.97 77.41,-716.41 273.21,-91.67 503.61,4.64 503.61,4.64 6.1,62.9 2.68,249.8 -18.43,359.8 15.52,113.56 54.88,243.59 77.11,394.39 10.79,73.19 -41.22,140.77 -114.65,149.83"
         style="fill:#17282f;fill-opacity:1;fill-rule:nonzero;stroke:none"
         id="path218" /><path
         d="m 2680.53,3096.45 c -2.91,-99.58 15.35,-155.2 36.46,-209.42 -36.82,-34.23 -96.52,-76.71 -176.06,-75.55 -79.54,1.16 -66.42,41.84 -45.08,69.56 56.99,28.75 60.63,70.94 46.7,96.49 l 137.98,118.92"
         style="fill:#e96759;fill-opacity:1;fill-rule:nonzero;stroke:none"
         id="path220" /><g
         id="g222"><g
           id="g224"
           clip-path="url(#clipPath228)"><path
             d="m 2543.9,2926.01 h 5.6602 v 25.9375 H 2543.9 Z"
             style="fill:#babcba;fill-opacity:1;fill-rule:nonzero;stroke:none"
             id="path230" /></g></g><path
         d="m 2550.68,2925.81 c -2.24,0 -4.47,0.07 -6.7,0.2 3.98,8.83 5.58,17.64 5.38,25.94 10.82,-3.29 22.08,-5.04 33.47,-5.04 15.08,0 30.39,3.07 45.15,9.66 -1.89,-1.67 -3.85,-3.32 -5.88,-4.95 -22.23,-17.85 -47.06,-25.81 -71.42,-25.81"
         style="fill:#b25348;fill-opacity:1;fill-rule:nonzero;stroke:none"
         id="path232" /><path
         d="m 2725.21,3155.64 c -15.65,-89.22 -20.28,-142.28 -70.9,-182.89 -76.14,-61.08 -182.48,-6.39 -193.82,85.96 -10.2,83.12 17.12,215.06 109.17,240.11 90.69,24.68 171.21,-53.96 155.55,-143.18"
         style="fill:#e96759;fill-opacity:1;fill-rule:nonzero;stroke:none"
         id="path234" /><path
         d="m 2722.62,3125.16 c -35.42,-10.37 -55,-2.8 -55,-2.8 0,0 22.5,23.39 24.38,36.1 -6.03,-6.97 -15.5,-12.71 -26.47,-12.42 21.39,52.91 -10,78.25 3.34,98.32 25.26,38.05 113.6,23.48 101.94,-19.3 30,-20.27 20.14,-54.44 20.14,-54.44 0,0 -6.81,12.77 -17.61,17.78 9.86,-32.67 18.44,-60.28 -29.47,-102.15 -35.42,7.7 -21.25,38.91 -21.25,38.91"
         style="fill:#17282f;fill-opacity:1;fill-rule:nonzero;stroke:none"
         id="path236" /><path
         d="m 2483.86,3064.01 c 0,0 28.07,4.63 106.11,2.46 -10.18,-19.58 -28.07,-35.29 -68.03,-33.86 -39.95,1.43 -38.08,31.4 -38.08,31.4"
         style="fill:#ffffff;fill-opacity:1;fill-rule:nonzero;stroke:none"
         id="path238" /><path
         d="m 2514.7,3086.42 c -0.55,-29.58 -1.19,-38.51 45.02,-40.33 32.48,-1.29 64.91,-22.7 59.98,-41.88 14.24,14.49 25.16,46.41 -1.19,67.56 -29.08,23.33 -62.14,25.86 -103.81,14.65"
         style="fill:#17282f;fill-opacity:1;fill-rule:nonzero;stroke:none"
         id="path240" /><path
         d="m 2524.15,3086.35 c -1.14,-29.56 -14.17,-32.96 -33.39,-36.87 -19.21,-3.91 -22.65,-13.48 -20.72,-27.43 -16.89,10.43 -27.68,38.28 -16.88,51.52 18.02,22.1 46.47,26.04 70.99,12.78"
         style="fill:#17282f;fill-opacity:1;fill-rule:nonzero;stroke:none"
         id="path242" /><path
         d="m 2752.18,3086.73 c -10.27,-21.1 -27.89,-35.43 -44.38,-41.35 -24.8,-8.91 -36.64,15.57 -29.27,42.27 6.62,24.03 27.52,57.64 52.19,54.92 24.3,-2.67 33.21,-31.73 21.46,-55.84"
         style="fill:#e96759;fill-opacity:1;fill-rule:nonzero;stroke:none"
         id="path244" /><path
         d="m 2602.14,3158.99 c -1.15,-7.63 -6.13,-13.17 -11.12,-12.36 -4.99,0.8 -8.1,7.63 -6.94,15.26 1.15,7.64 6.13,13.17 11.12,12.37 4.99,-0.8 8.1,-7.63 6.94,-15.27"
         style="fill:#17282f;fill-opacity:1;fill-rule:nonzero;stroke:none"
         id="path246" /><path
         d="m 2509.05,3172.45 c -1.15,-7.63 -6.13,-13.17 -11.13,-12.37 -4.98,0.8 -8.09,7.64 -6.93,15.27 1.15,7.63 6.13,13.17 11.12,12.37 4.99,-0.8 8.1,-7.64 6.94,-15.27"
         style="fill:#17282f;fill-opacity:1;fill-rule:nonzero;stroke:none"
         id="path248" /><path
         d="m 2535.06,3158.46 c 0,0 -24.02,-41.24 -46.33,-59.42 11.59,-14.77 35.42,-12.69 35.42,-12.69 l 10.91,72.11"
         style="fill:#d8413b;fill-opacity:1;fill-rule:nonzero;stroke:none"
         id="path250" /><path
         d="m 2632.27,3191.1 2.28,0.18 c 2.36,0.82 3.58,3.41 2.75,5.78 -8.4,23.76 -28.67,29.06 -29.53,29.27 -2.43,0.61 -4.87,-0.88 -5.46,-3.32 -0.58,-2.42 0.91,-4.88 3.33,-5.5 0.67,-0.17 16.43,-4.47 23.13,-23.43 0.57,-1.6 1.94,-2.7 3.5,-2.98"
         style="fill:#17282f;fill-opacity:1;fill-rule:nonzero;stroke:none"
         id="path252" /><path
         d="m 2474.44,3213.31 c 1.44,-0.27 2.99,0.16 4.08,1.29 13.86,14.34 29.95,11.5 30.62,11.37 2.46,-0.46 4.82,1.14 5.27,3.6 0.45,2.45 -1.15,4.82 -3.59,5.31 -0.9,0.16 -21.47,4.03 -38.84,-13.93 -1.73,-1.8 -1.67,-4.67 0.13,-6.42 l 2.33,-1.22"
         style="fill:#17282f;fill-opacity:1;fill-rule:nonzero;stroke:none"
         id="path254" /><path
         d="m 2613.6,1160.61 c 73.2,408.45 103.65,900.88 103.65,900.88 l -402.93,6.14 c 0,0 46.33,-663.72 62.44,-941.72 16.72,-289.058 28.48,-845.289 28.48,-845.289 h 134.52 c 0,0 114.45,522.617 73.84,879.989"
         style="fill:#406fbf;fill-opacity:1;fill-rule:nonzero;stroke:none"
         id="path256" /><path
         d="m 2630.9,1263.12 c 0,0.05 -0.01,0.09 -0.02,0.15 7.69,48.57 14.81,97.6 21.39,146.25 l 0.01,-0.05 c -6.58,-48.67 -13.7,-97.76 -21.38,-146.35"
         style="fill:#c3c5c2;fill-opacity:1;fill-rule:nonzero;stroke:none"
         id="path258" /><path
         d="m 2630.88,1263.27 c -20.7,138.69 -43.59,301.42 -61.87,433.67 26.77,-93.18 55.76,-193.48 83.26,-287.42 -6.58,-48.65 -13.7,-97.68 -21.39,-146.25"
         style="fill:#3563b7;fill-opacity:1;fill-rule:nonzero;stroke:none"
         id="path260" /><path
         d="m 2224.54,144.07 c 0,0 180.63,42.379 188.56,104.051 l 115.21,-15 12.55,-119.883 h -47.58 l -7.53,14.883 -15.97,-14.883 c -161.57,0 -221.45,1.703 -251.41,11.692 -1.76,14.14 6.17,19.14 6.17,19.14"
         style="fill:#17282f;fill-opacity:1;fill-rule:nonzero;stroke:none"
         id="path262" /><path
         d="m 2544.64,211.449 c -43.19,-2.5 -129.6,3.793 -146.42,12.102 -16.81,8.32 -6.88,75.398 -6.88,75.398 0,0 151.01,15 164.39,6.672 13.38,-8.34 -11.09,-94.172 -11.09,-94.172"
         style="fill:#406fbf;fill-opacity:1;fill-rule:nonzero;stroke:none"
         id="path264" /><path
         d="m 2522.52,210.891 c -45.57,0 -110.01,5.601 -124.3,12.66 -7.7,3.808 -9.79,19.949 -9.79,36.32 -0.01,19.367 2.91,39.078 2.91,39.078 0,0 92.49,9.192 139.12,9.192 12.95,0 22.36,-0.711 25.27,-2.52 2.88,-1.793 4,-7.16 4,-14.492 0,-26.77 -15.09,-79.68 -15.09,-79.68 -6.51,-0.379 -14.02,-0.558 -22.12,-0.558"
         style="fill:#6d97d6;fill-opacity:1;fill-rule:nonzero;stroke:none"
         id="path266" /><path
         d="m 2975.74,1172.12 c -66.53,410.72 -59.2,685.2 -125.76,887.64 l -385.9,5.21 c 0,0 184.09,-651.62 268.11,-922.96 84.33,-272.381 236.55,-861.389 236.55,-861.389 h 123.32 c 0,0 -4.99,573.758 -116.32,891.499"
         style="fill:#406fbf;fill-opacity:1;fill-rule:nonzero;stroke:none"
         id="path268" /><path
         d="m 2838.92,144.07 c 0,0 136.25,42.379 144.18,104.051 l 115.21,-15 12.55,-119.883 h -29.77 l -7.53,14.883 -15.97,-14.883 c -161.57,0 -194.87,1.703 -224.84,11.692 -1.76,14.14 6.17,19.14 6.17,19.14"
         style="fill:#17282f;fill-opacity:1;fill-rule:nonzero;stroke:none"
         id="path270" /><path
         d="m 3110.86,214.371 c -26.58,-5.422 -127,0.871 -145.05,9.18 -18.06,8.32 -12.36,78.73 -12.36,78.73 0,0 136.63,16.25 151.25,7.918 14.62,-8.328 6.16,-95.828 6.16,-95.828"
         style="fill:#406fbf;fill-opacity:1;fill-rule:nonzero;stroke:none"
         id="path272" /><path
         d="m 3078.05,212.34 c -40.28,0 -98.87,5.051 -112.24,11.211 -11.06,5.09 -13.21,33.469 -13.21,54.699 -0.01,13.449 0.85,24.031 0.85,24.031 0,0 86.54,10.297 129.25,10.297 10.95,0 19.02,-0.68 22,-2.379 6.78,-3.871 8.6,-24.769 8.59,-46.07 0,-24.609 -2.43,-49.758 -2.43,-49.758 -6.89,-1.41 -18.73,-2.031 -32.81,-2.031"
         style="fill:#6d97d6;fill-opacity:1;fill-rule:nonzero;stroke:none"
         id="path274" /><path
         d="m 2314.32,2067.63 c -3.89,45.15 -42.36,365.91 -43.79,395.29 1.88,159.76 82.22,363.25 135,421.58 20,8.89 38.34,2.23 38.34,2.23 0,0 -72.78,-92.78 -92.78,-247.23 133.92,-32.22 278.38,-16.11 316.16,-8.33 13.25,107.78 79.67,237.78 94.63,256.21 27.83,-0.67 35.89,-5.1 35.89,-5.1 0,0 -72.59,-145.16 -80.52,-256.66 -7.92,-111.5 137.17,-165.56 137.17,-165.56 0,0 -15.55,-96.67 -12.22,-140 3.33,-43.33 7.78,-260.3 7.78,-260.3 0,0 -347.99,-56.77 -535.66,7.87"
         style="fill:#406fbf;fill-opacity:1;fill-rule:nonzero;stroke:none"
         id="path276" /><path
         d="m 2410.75,1898.64 -67.72,169.91 -6.64,-2.65 -6.65,-2.65 67.72,-169.91 -1.71,-15.03 20.11,-31.46 6.76,2.69 6.75,2.69 -7.04,36.67 -11.58,9.74"
         style="fill:#ffffff;fill-opacity:1;fill-rule:nonzero;stroke:none"
         id="path278" /><path
         d="m 2341.54,2052.95 v 0 c -12.2,-4.86 -26.17,1.15 -31.03,13.35 l -62.39,156.55 c -4.87,12.21 1.14,26.17 13.34,31.04 12.21,4.86 26.17,-1.14 31.04,-13.35 l 62.39,-156.55 c 4.87,-12.2 -1.14,-26.17 -13.35,-31.04"
         style="fill:#17282f;fill-opacity:1;fill-rule:nonzero;stroke:none"
         id="path280" /><path
         d="m 2312.11,2089.55 c -6.58,-6.71 -7.69,-50.19 5.54,-69.86 89.17,-45.83 324.02,-52.57 543.19,4.09 5.25,25.73 3.19,60.16 -11.61,70.72 -30.36,-25.55 -262.1,-62.27 -420.92,-41.66 -72.78,9.44 -116.2,36.71 -116.2,36.71"
         style="fill:#17282f;fill-opacity:1;fill-rule:nonzero;stroke:none"
         id="path282" /><path
         d="m 2464.08,2264.78 c 0,0 -116.88,45 -126.05,97.5 -9.16,52.5 7.5,218.34 7.5,218.34 0,0 53.87,-22.09 195.78,-22.09 34.62,0 74.46,1.32 120.06,4.59 4.16,-45 -0.84,-172.5 -7.5,-215 -6.67,-42.5 -189.79,-83.34 -189.79,-83.34"
         style="fill:#5d87cd;fill-opacity:1;fill-rule:nonzero;stroke:none"
         id="path284" /><path
         d="m 2790.53,3201.54 c -83.63,32.45 -193.83,67.66 -291.95,65.53 2.26,28.27 18.8,59.68 34.32,72.39 19.69,16.13 86.57,30.23 138.47,18.66 41.1,-9.17 91.35,-40.16 113.75,-79.35 9.71,-16.98 5.41,-77.23 5.41,-77.23"
         style="fill:#406fbf;fill-opacity:1;fill-rule:nonzero;stroke:none"
         id="path286" /><path
         d="m 2610.05,3256.22 c -0.02,0 -0.04,0.01 -0.06,0.01 0.02,0 0.04,-0.01 0.06,-0.01 m -0.61,0.12 h -0.01 0.01 m -2.26,0.44 c -0.03,0 -0.07,0.01 -0.11,0.02 0.04,-0.01 0.07,-0.01 0.11,-0.02 m -0.61,0.11 c -0.03,0.01 -0.06,0.01 -0.09,0.02 0.03,-0.01 0.06,-0.01 0.09,-0.02 m -1.7,0.32 c -0.03,0.01 -0.05,0.02 -0.08,0.02 0.02,0 0.05,-0.01 0.08,-0.02 m -0.55,0.11 c -0.06,0.01 -0.11,0.02 -0.17,0.03 0.06,-0.01 0.11,-0.02 0.17,-0.03 m -0.62,0.11 c -0.06,0.02 -0.12,0.03 -0.17,0.03 0.05,0 0.11,-0.01 0.17,-0.03 m -0.63,0.12 c -0.01,0 -0.01,0 -0.02,0 h 0.02 m -0.99,0.18 c -0.07,0.02 -0.14,0.03 -0.22,0.04 0.08,-0.01 0.15,-0.02 0.22,-0.04 m -0.6,0.11 c -0.09,0.02 -0.18,0.04 -0.26,0.05 0.08,-0.01 0.17,-0.03 0.26,-0.05 m -0.64,0.12 c -0.1,0.02 -0.19,0.04 -0.29,0.05 0.1,-0.01 0.2,-0.03 0.29,-0.05 m -0.65,0.12 c -0.1,0.02 -0.21,0.04 -0.32,0.06 0.11,-0.02 0.22,-0.04 0.32,-0.06 m -0.92,0.17 c -0.1,0.01 -0.21,0.04 -0.32,0.05 0.11,-0.01 0.22,-0.04 0.32,-0.05 m -0.65,0.11 c -0.11,0.02 -0.22,0.04 -0.33,0.06 0.11,-0.02 0.22,-0.04 0.33,-0.06 m -0.66,0.12 c -0.11,0.02 -0.23,0.04 -0.35,0.06 0.12,-0.02 0.24,-0.04 0.35,-0.06 m -0.64,0.11 c -0.17,0.04 -0.34,0.06 -0.51,0.09 0.17,-0.03 0.34,-0.05 0.51,-0.09 m -0.82,0.15 c -0.16,0.03 -0.32,0.05 -0.48,0.08 0.16,-0.03 0.32,-0.05 0.48,-0.08 m -0.72,0.12 c -0.14,0.03 -0.28,0.05 -0.41,0.07 0.13,-0.02 0.27,-0.04 0.41,-0.07 m -0.68,0.12 c -0.14,0.02 -0.28,0.05 -0.42,0.07 0.13,-0.02 0.28,-0.05 0.42,-0.07 m -0.67,0.12 c -0.22,0.03 -0.43,0.07 -0.65,0.11 0.22,-0.04 0.43,-0.08 0.65,-0.11 m -0.7,0.11 c -0.21,0.04 -0.41,0.08 -0.62,0.11 0.21,-0.03 0.41,-0.07 0.62,-0.11 m -0.79,0.14 c -0.17,0.03 -0.34,0.06 -0.51,0.09 0.17,-0.03 0.34,-0.06 0.51,-0.09 m -0.7,0.12 c -0.19,0.03 -0.37,0.06 -0.55,0.09 0.18,-0.03 0.36,-0.06 0.55,-0.09 m -0.66,0.11 c -0.46,0.08 -0.93,0.15 -1.4,0.23 0.47,-0.08 0.93,-0.15 1.4,-0.23 m -1.47,0.24 c -0.2,0.04 -0.41,0.07 -0.61,0.11 0.2,-0.04 0.4,-0.07 0.61,-0.11 m -0.73,0.13 c -0.22,0.03 -0.44,0.07 -0.66,0.1 0.22,-0.03 0.44,-0.07 0.66,-0.1 m -0.67,0.1 c -0.71,0.12 -1.44,0.24 -2.16,0.35 0.72,-0.11 1.44,-0.23 2.16,-0.35"
         style="fill:#f28d84;fill-opacity:1;fill-rule:nonzero;stroke:none"
         id="path288" /><path
         d="m 2516.65,3267.05 c -3.17,0.08 -6.35,0.11 -9.5,0.11 -2.86,0 -5.72,-0.03 -8.56,-0.09 0,0 0,0 0,0 2.83,0.07 5.68,0.09 8.54,0.09 3.16,0 6.34,-0.03 9.53,-0.11 h -0.01"
         style="fill:#57666b;fill-opacity:1;fill-rule:nonzero;stroke:none"
         id="path290" /><path
         d="m 2586.54,3260.4 c -23.5,3.75 -46.95,6.13 -69.89,6.65 h 0.01 c 22.93,-0.52 46.39,-2.9 69.88,-6.65"
         style="fill:#f28d84;fill-opacity:1;fill-rule:nonzero;stroke:none"
         id="path292" /><path
         d="m 2510.31,3308.16 c 4.81,10.01 10.62,18.91 16.56,25.49 -5.94,-6.58 -11.75,-15.48 -16.56,-25.49"
         style="fill:#ffffff;fill-opacity:1;fill-rule:nonzero;stroke:none"
         id="path294" /><path
         d="m 2690.12,3236.26 c -26.05,7.74 -52.98,14.65 -80.07,19.96 -0.02,0 -0.04,0.01 -0.06,0.01 -0.19,0.04 -0.36,0.07 -0.55,0.11 h -0.01 c -0.75,0.15 -1.5,0.29 -2.25,0.44 -0.04,0.01 -0.07,0.01 -0.11,0.02 -0.16,0.03 -0.33,0.06 -0.5,0.09 -0.03,0.01 -0.06,0.01 -0.09,0.02 -0.54,0.1 -1.07,0.2 -1.61,0.3 -0.03,0.01 -0.06,0.02 -0.08,0.02 -0.16,0.03 -0.32,0.06 -0.47,0.09 -0.06,0.01 -0.11,0.02 -0.17,0.03 -0.15,0.03 -0.3,0.06 -0.45,0.08 -0.06,0.02 -0.12,0.03 -0.17,0.03 -0.16,0.04 -0.31,0.06 -0.46,0.09 h -0.02 c -0.32,0.06 -0.65,0.13 -0.97,0.18 -0.07,0.02 -0.14,0.03 -0.22,0.04 -0.13,0.03 -0.25,0.05 -0.38,0.07 -0.09,0.02 -0.18,0.04 -0.26,0.05 -0.13,0.02 -0.26,0.05 -0.38,0.07 -0.09,0.02 -0.19,0.04 -0.29,0.05 -0.11,0.03 -0.24,0.05 -0.36,0.07 -0.1,0.02 -0.21,0.04 -0.32,0.06 -0.2,0.03 -0.39,0.07 -0.6,0.11 -0.1,0.01 -0.21,0.04 -0.32,0.05 -0.11,0.02 -0.22,0.04 -0.33,0.06 -0.11,0.02 -0.22,0.04 -0.33,0.06 -0.11,0.02 -0.22,0.04 -0.33,0.06 -0.11,0.02 -0.23,0.04 -0.35,0.06 -0.1,0.02 -0.2,0.04 -0.29,0.05 -0.17,0.04 -0.34,0.06 -0.51,0.09 -0.1,0.02 -0.21,0.04 -0.31,0.06 -0.16,0.03 -0.32,0.05 -0.48,0.08 -0.08,0.02 -0.16,0.03 -0.24,0.04 -0.14,0.03 -0.28,0.05 -0.41,0.07 -0.09,0.02 -0.18,0.03 -0.27,0.05 -0.14,0.02 -0.29,0.05 -0.42,0.07 -0.08,0.02 -0.17,0.03 -0.25,0.05 -0.22,0.03 -0.43,0.07 -0.65,0.11 -0.01,0 -0.03,0 -0.05,0 -0.21,0.04 -0.41,0.08 -0.62,0.11 -0.06,0.01 -0.11,0.02 -0.17,0.03 -0.17,0.03 -0.34,0.06 -0.51,0.09 -0.06,0.01 -0.13,0.02 -0.19,0.03 -0.19,0.03 -0.37,0.06 -0.55,0.09 -0.04,0.01 -0.08,0.01 -0.11,0.02 -0.47,0.08 -0.93,0.15 -1.4,0.23 -0.02,0.01 -0.04,0.01 -0.07,0.01 -0.21,0.04 -0.41,0.07 -0.61,0.11 -0.04,0 -0.08,0.01 -0.12,0.02 -0.22,0.03 -0.44,0.07 -0.66,0.1 h -0.01 c -0.72,0.12 -1.44,0.24 -2.16,0.35 h -0.01 c -23.49,3.75 -46.95,6.13 -69.88,6.65 -3.19,0.08 -6.37,0.11 -9.53,0.11 -2.86,0 -5.71,-0.02 -8.55,-0.09 1.11,13.8 5.61,28.34 11.73,41.09 4.81,10.01 10.62,18.91 16.56,25.49 2.01,2.22 4.03,4.17 6.03,5.81 9.42,7.71 33.98,13.49 61.32,13.49 29.85,0 63.03,-6.88 83.45,-25.66 15.24,-33.17 13.41,-57.83 12.45,-91.03"
         style="fill:#6d97d6;fill-opacity:1;fill-rule:nonzero;stroke:none"
         id="path296" /><path
         d="m 2706.7,3231.18 c -59.08,5.27 -123.25,8.19 -151.17,20.27 -27.91,12.09 -96.66,16.67 -110,2.09 -6.25,11.25 25.32,31.82 89.53,28.41 64.22,-3.41 171.64,-50.77 171.64,-50.77"
         style="fill:#406fbf;fill-opacity:1;fill-rule:nonzero;stroke:none"
         id="path298" /><path
         d="m 2610.18,3336.05 -26.62,2.18 -10.95,-21.89 -7.75,0.64 -10.23,-27.94 29.5,26.21 5.4,-0.44 20.65,21.24"
         style="fill:#ffffff;fill-opacity:1;fill-rule:nonzero;stroke:none"
         id="path300" /><path
         d="m 2680.35,3356.93 c -1.1,-5.03 -7.82,-7.84 -15,-6.27 -7.19,1.56 -12.12,6.91 -11.02,11.95 1.09,5.03 7.81,7.84 15,6.28 7.18,-1.57 12.12,-6.93 11.02,-11.96"
         style="fill:#406fbf;fill-opacity:1;fill-rule:nonzero;stroke:none"
         id="path302" /><path
         d="m 2910.14,2809.38 c 12.96,-12.04 24.03,-22.78 35.5,-34.54 11.42,-11.47 22.36,-23.38 33.34,-35.29 21.7,-24.09 43.02,-48.7 63.15,-75.02 20.35,-26.18 39.89,-53.49 58.04,-84.01 9.05,-15.3 18.12,-31.1 26.12,-48.99 7.99,-18.04 15.76,-37.43 20.95,-62.8 l 1.04,-5.06 c 0.69,-3.41 1,-7.05 0.96,-10.39 -0.46,-28.38 -6.58,-47.94 -13.07,-65.24 -6.64,-17.17 -14.15,-31.67 -21.95,-45.23 -15.52,-27.15 -33.06,-50.13 -50.77,-72.27 -18.06,-21.83 -36.77,-42.29 -56.35,-61.72 -19.78,-19.45 -39.48,-37.63 -61.86,-55.36 -19.61,-15.54 -48.11,-12.23 -63.65,7.39 -11.71,14.78 -12.71,34.61 -4.1,50.14 l 0.72,1.26 37.15,66.73 c 12.23,22.24 24.22,44.28 35.05,66.17 11.07,21.64 20.77,43.56 28.22,63.54 3.72,9.96 6.59,19.61 7.93,27.4 1.42,7.61 1.22,13.95 0.26,11.86 l 2,-15.45 c -1.95,4.73 -6.33,13.97 -12.14,23.5 -5.95,9.67 -12.83,20.36 -20.56,30.97 -7.64,10.66 -16.08,21.48 -24.94,32.25 -8.65,10.89 -17.76,21.79 -27.18,32.6 -18.87,21.56 -38.39,43.3 -58.5,64.67 l -30.29,32.03 -29.84,31.11 -1.44,1.51 c -34.41,35.87 -33.23,92.84 2.64,127.25 34.56,33.15 88.88,33.08 123.57,0.99"
         style="fill:#ea675a;fill-opacity:1;fill-rule:nonzero;stroke:none"
         id="path304" /><path
         d="m 2936.73,2238.52 -100.84,-1.44 35.54,-115.61 c 0,0 91.15,12.39 92.4,61.88 l -27.1,55.17"
         style="fill:#17282f;fill-opacity:1;fill-rule:nonzero;stroke:none"
         id="path306" /><path
         d="m 2762.29,2162.53 19.29,-38.41 c 7.68,-15.3 25.31,-22.78 41.64,-17.68 l 48.21,15.03 -35.54,115.61 -57.38,-27.31 c -17.69,-8.42 -25,-29.73 -16.22,-47.24"
         style="fill:#17282f;fill-opacity:1;fill-rule:nonzero;stroke:none"
         id="path308" /><path
         d="m 2873.59,2222.84 c 23.33,23.89 45.68,70.22 51.94,89.91 68.89,-15.21 109.99,-72.87 104.17,-96.58 -40.28,-40.55 -75.75,-68.95 -103.45,-78.27 -39.11,20.51 -52.66,84.94 -52.66,84.94"
         style="fill:#17282f;fill-opacity:1;fill-rule:nonzero;stroke:none"
         id="path310" /><path
         d="m 2806.47,2875.11 c 49.9,-11.99 120.49,-40.32 151.45,-87.82 30.95,-47.5 114.28,-138.34 145.95,-201.67 -47.5,-106.62 -113.34,-105.42 -162.5,-95.84 -86.67,58.34 -198.37,130.73 -200,192.57 -1.42,53.86 27.69,133.09 65.1,192.76"
         style="fill:#17282f;fill-opacity:1;fill-rule:nonzero;stroke:none"
         id="path312" /><path
         d="m 2869.66,2870.92 c 1.41,-5.65 -0.21,-12.19 -0.66,-13.78 l -12.62,-45.44 c 0.99,2.59 2.06,5.15 3.19,7.7 1.36,3.06 2.82,6.14 4.29,9.23 6.63,13.94 13.48,28.37 10.59,42.34 -0.37,1.76 -0.7,2.23 -0.83,2.34 -0.8,0.16 -2.3,-0.74 -3.96,-2.39 m -13.59,-22.95 c -17.8,-34.79 -30.18,-75.17 -36.88,-120.34 -1.19,-8.09 -2.2,-16.17 -3.02,-24.21 4.18,16.05 8.6,31.94 12.97,47.65 l 26.93,96.9 m -8.95,4.45 c -8.79,-13.92 -16.77,-28.85 -23.71,-44.37 -13.47,-30.1 -23.39,-63.13 -29.49,-98.16 -3.3,-18.92 -5.47,-38.53 -6.47,-58.28 v 0 c -1.81,-35.69 -0.15,-72.75 5.16,-112.68 -0.16,24.54 1.41,49.1 4.7,73.39 1.51,11.16 3.38,22.28 5.53,33.34 0.48,26.87 2.26,55.06 6.47,83.43 6.84,46.21 19.54,87.58 37.81,123.33 m -20.99,-459.8 c 0.57,-1.06 1.16,-2.09 1.8,-3.11 2.11,-3.37 4.67,-6.42 7.56,-9.12 -3.3,3.84 -6.43,7.92 -9.36,12.23 m -13.31,252 c -0.4,-23.54 0.21,-46.08 1.04,-66.85 1.95,-49.25 6.2,-105.75 31.9,-152.93 10.66,-19.58 24.79,-37.2 39.69,-54.88 l -0.1,0.7 c -1.98,13.73 -7.26,26.52 -12.86,40.06 -2.78,6.74 -5.66,13.71 -8.07,20.77 -6.96,20.36 -10.16,41.67 -13.26,62.29 -3.03,20.11 -6.16,40.91 -7.47,61.74 -1.13,18.19 -0.87,36.64 -0.62,54.48 0.13,9.61 0.27,19.23 0.19,28.84 -0.09,11.42 -0.45,22.95 -0.81,34.5 -1.07,34.18 -2.18,69.16 3.99,102.6 l -7.67,-27.55 c -9.42,-33.87 -19.08,-68.61 -25.95,-103.77 m 52.75,-277.7 c 3.09,-0.29 6.26,-0.3 9.37,0 -14.2,16.96 -27.57,34.04 -37.97,53.13 -26.73,49.08 -31.1,106.94 -33.11,157.33 l -0.02,0.55 c -1.82,-26.09 -1.64,-52.33 0.52,-78.37 2.72,-32.43 8.24,-57.29 17.36,-78.23 10.19,-23.4 25.59,-42.43 43.85,-54.41 m 15.35,-16.77 c -3.97,0 -8.47,1.31 -13.28,3.91 -1.91,1.02 -3.79,2.12 -5.65,3.28 -17.12,2.45 -33.35,12.19 -42.54,26.87 -5.72,9.15 -8.64,19.18 -11.61,30.41 -24.29,91.64 -33.94,167.11 -30.37,237.49 v 0 c 1.02,20.16 3.23,40.18 6.6,59.5 6.24,35.84 16.41,69.66 30.22,100.52 7.22,16.18 15.55,31.74 24.76,46.24 0.54,0.84 1.19,2.03 1.96,3.4 4.94,8.9 9.55,16.35 15.91,17.43 2.66,0.45 4.76,0.12 6.39,-0.52 2.49,2.3 5.5,4.15 8.72,4.6 3.09,0.42 6.08,-0.5 8.39,-2.64 2.45,-2.27 3.33,-5.27 3.82,-7.63 3.58,-17.28 -4.01,-33.24 -11.35,-48.67 -1.44,-3.02 -2.86,-6.02 -4.18,-9 -19.35,-43.55 -17.78,-93.44 -16.27,-141.68 0.37,-11.64 0.73,-23.24 0.82,-34.74 0.08,-9.69 -0.06,-19.38 -0.19,-29.06 -0.25,-17.65 -0.5,-35.9 0.6,-53.72 1.28,-20.39 4.38,-40.97 7.38,-60.87 3.03,-20.18 6.17,-41.05 12.83,-60.55 2.31,-6.76 5.13,-13.59 7.86,-20.18 5.57,-13.52 11.35,-27.49 13.51,-42.45 0.45,-3.15 1.84,-12.74 -4.68,-18.47 -2.64,-2.32 -5.91,-3.47 -9.65,-3.47"
         style="fill:#406fbf;fill-opacity:1;fill-rule:nonzero;stroke:none"
         id="path314" /><path
         d="m 2880.92,2350.15 c -3.97,0 -8.47,1.31 -13.28,3.91 -1.91,1.02 -3.79,2.12 -5.65,3.28 -6.61,0.94 -13.09,2.98 -19.08,5.96 -9.52,4.75 -17.82,11.9 -23.46,20.91 -5.72,9.15 -8.64,19.18 -11.61,30.41 -7.6,28.65 -13.76,55.72 -18.54,81.55 -8.44,45.65 -12.54,87.42 -12.55,127.18 0,9.7 0.24,19.28 0.72,28.76 v 0 0 c 1.02,20.16 3.23,40.18 6.6,59.5 6.24,35.84 16.41,69.66 30.22,100.52 7.22,16.18 15.55,31.74 24.76,46.24 0.54,0.84 1.19,2.03 1.96,3.4 4.94,8.9 9.55,16.35 15.91,17.43 0.85,0.14 1.64,0.21 2.37,0.21 1.58,0 2.91,-0.29 4.02,-0.73 2.49,2.3 5.5,4.15 8.72,4.6 0.49,0.06 0.98,0.1 1.46,0.1 2.56,0 4.99,-0.94 6.93,-2.74 2.45,-2.27 3.33,-5.27 3.82,-7.63 0.63,-3.04 0.91,-6.03 0.91,-8.99 0.01,-13.88 -6.21,-26.96 -12.26,-39.68 -1.44,-3.02 -2.86,-6.02 -4.18,-9 -14.09,-31.73 -17.09,-66.82 -17.09,-102.19 0,-13.18 0.41,-26.4 0.82,-39.49 0.37,-11.64 0.73,-23.24 0.82,-34.74 0.02,-1.97 0.02,-3.94 0.02,-5.9 0,-7.72 -0.1,-15.44 -0.21,-23.16 -0.11,-7.59 -0.22,-15.28 -0.22,-23.01 0,-10.25 0.19,-20.55 0.82,-30.71 1.28,-20.39 4.38,-40.97 7.38,-60.87 3.03,-20.18 6.17,-41.05 12.83,-60.55 2.31,-6.76 5.13,-13.59 7.86,-20.18 5.57,-13.52 11.35,-27.49 13.51,-42.45 0.16,-1.12 0.44,-3.06 0.44,-5.34 0,-4.14 -0.92,-9.44 -5.12,-13.13 -2.64,-2.32 -5.91,-3.47 -9.65,-3.47 m -78.32,192.26 c -0.01,-14.31 0.58,-28.61 1.76,-42.85 2.72,-32.43 8.24,-57.29 17.36,-78.23 10.19,-23.4 25.59,-42.43 43.85,-54.41 1.55,-0.14 3.12,-0.22 4.7,-0.22 1.56,0 3.12,0.07 4.67,0.22 v 0 0 c -10.06,12.02 -19.7,24.09 -28.17,36.9 -3.48,5.27 -6.77,10.67 -9.8,16.23 -10.24,18.81 -17.2,38.91 -22,59.39 -7.73,32.94 -9.87,66.86 -11.11,97.94 l -0.02,0.55 c -0.83,-11.82 -1.24,-23.67 -1.24,-35.52 m 10.1,86.91 c 0,-18.02 0.51,-35.33 1.16,-51.55 1.95,-49.25 6.2,-105.75 31.9,-152.93 10.66,-19.58 24.79,-37.2 39.69,-54.88 v 0 0 l -0.1,0.7 c -1.98,13.73 -7.26,26.52 -12.86,40.06 -2.78,6.74 -5.66,13.71 -8.07,20.77 -6.03,17.63 -9.24,35.98 -12,53.97 -0.43,2.78 -0.84,5.56 -1.26,8.32 -3.03,20.11 -6.16,40.91 -7.47,61.74 -0.04,0.72 -0.09,1.44 -0.13,2.16 -0.54,9.67 -0.71,19.39 -0.71,29.05 0,7.83 0.11,15.6 0.22,23.27 0.1,7.66 0.21,15.32 0.21,22.98 0,1.96 0,3.91 -0.02,5.86 -0.09,11.42 -0.45,22.95 -0.81,34.5 -0.41,13.22 -0.83,26.56 -0.84,39.88 0,21.12 1.05,42.21 4.83,62.72 v 0 0 l -7.67,-27.55 c -9.42,-33.87 -19.08,-68.61 -25.95,-103.77 -0.09,-5.15 -0.12,-10.26 -0.12,-15.3 m 13.43,-236.7 c 0.57,-1.06 1.16,-2.09 1.8,-3.11 2.11,-3.37 4.67,-6.42 7.56,-9.12 v 0 0 c -3.3,3.84 -6.43,7.92 -9.36,12.23 v 0 0 m -39.38,231.09 c -0.01,-27.09 1.91,-55.15 5.86,-84.78 v 0 0 c -0.01,1.15 -0.01,2.3 -0.01,3.45 0,23.39 1.58,46.78 4.71,69.94 1.51,11.16 3.38,22.28 5.53,33.34 0.48,26.87 2.26,55.06 6.47,83.43 6.84,46.21 19.54,87.58 37.81,123.33 v 0 0 c -8.79,-13.92 -16.77,-28.85 -23.71,-44.37 -13.47,-30.1 -23.39,-63.13 -29.49,-98.16 -3.3,-18.92 -5.47,-38.53 -6.47,-58.28 v 0 c -0.47,-9.2 -0.7,-18.5 -0.7,-27.9 m 69.32,224.26 c -17.8,-34.79 -30.18,-75.17 -36.88,-120.34 -1.19,-8.09 -2.2,-16.17 -3.02,-24.21 v 0 0 c 4.18,16.05 8.6,31.94 12.97,47.65 l 26.93,96.9 v 0 m 14.16,17.91 c -0.01,-4.02 -0.91,-7.61 -1.23,-8.74 l -12.62,-45.44 v 0 c 0.99,2.59 2.06,5.15 3.19,7.7 1.36,3.06 2.82,6.14 4.29,9.23 5.57,11.71 11.29,23.76 11.27,35.6 0,2.25 -0.21,4.5 -0.68,6.74 -0.37,1.76 -0.7,2.23 -0.83,2.34 -0.06,0.01 -0.12,0.02 -0.19,0.02 -0.83,0 -2.24,-0.88 -3.77,-2.41 v 0 0 c 0.41,-1.65 0.57,-3.38 0.57,-5.04"
         style="fill:#7da6dd;fill-opacity:1;fill-rule:nonzero;stroke:none"
         id="path316" /><path
         d="m 1700.67,2990.47 c -28.41,0 -55.7,13.07 -73.49,36.11 -8.78,11.37 -20.21,20.3 -33.03,26.8 -64.77,32.91 -114.13,94.61 -128.18,172.1 -22.1,121.86 54.07,242.96 173.59,275.44 21.43,5.83 42.87,8.59 63.92,8.59 111.99,0 212.38,-78.47 235.88,-192.46 15.44,-74.9 -5.69,-148.84 -51.18,-203.31 -9.11,-10.9 -15.92,-23.53 -19.45,-37.29 l -0.01,-0.07 c -8.82,-34.38 -36.45,-60.73 -71.21,-67.9 l -78.08,-16.09 c -6.25,-1.29 -12.53,-1.92 -18.76,-1.92"
         style="fill:#a3c3ea;fill-opacity:1;fill-rule:nonzero;stroke:none"
         id="path318" /><path
         d="m 1833.62,2960.06 -128.2,-26.43 c -9.65,-1.99 -19.18,4.28 -21.17,13.93 -1.99,9.66 4.28,19.19 13.93,21.17 l 128.2,26.44 c 9.66,1.99 19.19,-4.28 21.18,-13.94 1.99,-9.65 -4.28,-19.18 -13.94,-21.17"
         style="fill:#17282f;fill-opacity:1;fill-rule:nonzero;stroke:none"
         id="path320" /><path
         d="m 1831.67,2906.53 -103.28,-21.3 c -9.65,-1.99 -19.19,4.28 -21.17,13.94 -2,9.65 4.27,19.18 13.93,21.17 l 103.28,21.3 c 9.66,1.99 19.19,-4.28 21.18,-13.94 1.99,-9.65 -4.28,-19.18 -13.94,-21.17"
         style="fill:#17282f;fill-opacity:1;fill-rule:nonzero;stroke:none"
         id="path322" /><path
         d="m 1584.1,3301.13 c -6.86,-1.42 -12.83,-4.85 -17.33,-10.2 -9.53,-11.34 -10.23,-28.56 -1.72,-42.84 6.1,-10.24 30,-38.88 103.58,-33.63 -15.18,41.27 -34.72,74.47 -59.47,83.93 -8.95,3.42 -17.54,4.29 -25.06,2.74 z m 215.58,44.45 c -7.52,-1.55 -15.07,-5.75 -21.93,-12.43 -19,-18.48 -23.8,-56.7 -21.43,-100.6 69.65,24.27 80.29,60.03 81.84,71.85 2.17,16.48 -5.27,32.02 -18.53,38.67 -6.25,3.13 -13.09,3.93 -19.95,2.51 z m -1.17,-341.99 c -2.46,-0.51 -4.96,0.9 -5.76,3.34 -2.32,7.1 -38.02,117.66 -45.44,212.17 -19.55,-5.86 -44.79,-11.06 -65.08,-13.42 30.56,-89.73 41.51,-205.4 42.18,-212.84 0.25,-2.76 -1.93,-5.2 -4.52,-5.43 -2.75,-0.25 -5.18,1.77 -5.44,4.52 -0.16,1.83 -11.58,122.69 -42.36,212.73 -78.86,-6.54 -106.77,23.44 -115.63,38.31 -10.69,17.93 -9.62,39.8 2.67,54.4 12.28,14.61 32.32,18.5 53.6,10.36 28.09,-10.74 49.7,-47.52 66.07,-92.35 10.47,1.12 21.86,2.9 34.23,5.45 12.38,2.55 23.53,5.42 33.59,8.53 -2.69,47.66 2.61,89.99 24.15,110.96 16.33,15.89 36.26,20.25 53.35,11.68 17.05,-8.55 26.68,-28.2 23.96,-48.9 -2.26,-17.17 -16.04,-55.74 -91.06,-80.92 7.36,-94.88 44.67,-210.39 45.25,-212.14 0.85,-2.63 -0.59,-5.45 -3.21,-6.31 l -0.55,-0.14"
         style="fill:#ffffff;fill-opacity:1;fill-rule:nonzero;stroke:none"
         id="path324" /><path
         d="m 1725.23,3562.03 -9.97,0.59 4.32,73.28 9.98,-0.59 -4.33,-73.28"
         style="fill:#406fbf;fill-opacity:1;fill-rule:nonzero;stroke:none"
         id="path326" /><path
         d="m 1800.35,3546.37 -9.48,3.15 23.14,69.66 9.48,-3.15 -23.14,-69.66"
         style="fill:#406fbf;fill-opacity:1;fill-rule:nonzero;stroke:none"
         id="path328" /><path
         d="m 1868.88,3511.64 -8.35,5.49 40.31,61.36 8.35,-5.49 -40.31,-61.36"
         style="fill:#406fbf;fill-opacity:1;fill-rule:nonzero;stroke:none"
         id="path330" /><path
         d="m 1505.39,2959.33 -8.35,5.49 40.31,61.36 8.36,-5.49 -40.32,-61.36"
         style="fill:#406fbf;fill-opacity:1;fill-rule:nonzero;stroke:none"
         id="path332" /><path
         d="m 1926.08,3460.54 -6.65,7.46 54.83,48.81 6.65,-7.47 -54.83,-48.8"
         style="fill:#406fbf;fill-opacity:1;fill-rule:nonzero;stroke:none"
         id="path334" /><path
         d="m 1431.95,3021.09 -6.64,7.47 54.83,48.82 6.64,-7.47 -54.83,-48.82"
         style="fill:#406fbf;fill-opacity:1;fill-rule:nonzero;stroke:none"
         id="path336" /><path
         d="m 1968.01,3396.27 -4.49,8.94 65.68,32.97 4.5,-8.93 -65.69,-32.98"
         style="fill:#406fbf;fill-opacity:1;fill-rule:nonzero;stroke:none"
         id="path338" /><path
         d="m 1377.01,3099.72 -4.49,8.94 65.68,32.97 4.5,-8.93 -65.69,-32.98"
         style="fill:#406fbf;fill-opacity:1;fill-rule:nonzero;stroke:none"
         id="path340" /><path
         d="m 2063.88,3338.23 -71.96,-14.83 -2.01,9.79 71.95,14.84 2.02,-9.8"
         style="fill:#406fbf;fill-opacity:1;fill-rule:nonzero;stroke:none"
         id="path342" /><path
         d="m 1416.31,3204.71 -71.95,-14.83 -2.03,9.79 71.96,14.84 2.02,-9.8"
         style="fill:#406fbf;fill-opacity:1;fill-rule:nonzero;stroke:none"
         id="path344" /><path
         d="m 2069.55,3242.52 -73.37,4.3 0.59,9.98 73.37,-4.3 -0.59,-9.98"
         style="fill:#406fbf;fill-opacity:1;fill-rule:nonzero;stroke:none"
         id="path346" /><path
         d="m 1409.44,3281.11 -73.37,4.3 0.6,9.98 73.36,-4.3 -0.59,-9.98"
         style="fill:#406fbf;fill-opacity:1;fill-rule:nonzero;stroke:none"
         id="path348" /><path
         d="m 2050.19,3148.57 -69.66,23.14 3.14,9.49 69.66,-23.15 -3.14,-9.48"
         style="fill:#406fbf;fill-opacity:1;fill-rule:nonzero;stroke:none"
         id="path350" /><path
         d="m 1422.54,3356.71 -69.66,23.14 3.15,9.49 69.66,-23.14 -3.15,-9.49"
         style="fill:#406fbf;fill-opacity:1;fill-rule:nonzero;stroke:none"
         id="path352" /><path
         d="m 2007.17,3062.79 -61.3,40.41 5.5,8.35 61.3,-40.41 -5.5,-8.35"
         style="fill:#406fbf;fill-opacity:1;fill-rule:nonzero;stroke:none"
         id="path354" /><path
         d="m 1454.86,3426.27 -61.3,40.41 5.5,8.36 61.3,-40.42 -5.5,-8.35"
         style="fill:#406fbf;fill-opacity:1;fill-rule:nonzero;stroke:none"
         id="path356" /><path
         d="m 1504.07,3485.28 -48.82,54.82 7.46,6.65 48.82,-54.82 -7.46,-6.65"
         style="fill:#406fbf;fill-opacity:1;fill-rule:nonzero;stroke:none"
         id="path358" /><path
         d="m 1566.86,3529.38 -32.96,65.59 8.92,4.48 32.96,-65.59 -8.92,-4.48"
         style="fill:#406fbf;fill-opacity:1;fill-rule:nonzero;stroke:none"
         id="path360" /><path
         d="m 1648.67,3557.77 -9.8,-2.02 -14.84,71.96 9.8,2.02 14.84,-71.96"
         style="fill:#406fbf;fill-opacity:1;fill-rule:nonzero;stroke:none"
         id="path362" /></g></g></svg>
