<?xml version="1.0" encoding="UTF-8" standalone="no"?>
<svg
        xmlns="http://www.w3.org/2000/svg"
        version="1.1"
        id="svg2"
        xml:space="preserve"
        width="1000"
        height="666.66669"
        viewBox="0 0 1000 666.66669"
><defs
     id="defs6"><clipPath
       id="clipPath28"><path
         d="M 0,500 H 750 V 0 H 0 Z"
         id="path26" /></clipPath><clipPath
        id="clipPath234"><path
         d="M 0,500 H 750 V 0 H 0 Z"
         id="path232" /></clipPath><clipPath
        id="clipPath254"><path
         d="M 0,500 H 750 V 0 H 0 Z"
         id="path252" /></clipPath><clipPath
        id="clipPath312"><path
         d="M 0,500 H 750 V 0 H 0 Z"
         id="path310" /></clipPath><clipPath
        id="clipPath324"><path
         d="M 0,500 H 750 V 0 H 0 Z"
         id="path322" /></clipPath><clipPath
        id="clipPath444"><path
         d="m 365.348,43.1693 h 66.86 v -5.6409 h -66.86 z"
         id="path442" /></clipPath><clipPath
        id="clipPath484"><path
         d="M 623.755,85.1809 H 636.63 V 18.6956 h -12.875 z"
         id="path482" /></clipPath><clipPath
        id="clipPath592"><path
         d="m 474.999,132.342 h 51.712 v -11.618 h -51.712 z"
         id="path590" /></clipPath><clipPath
        id="clipPath644"><path
         d="m 444.126,173.456 h 15.35 v -35.005 h -15.35 z"
         id="path642" /></clipPath><clipPath
        id="clipPath668"><path
         d="m 390.2,128.587 h 38.313 V 114.256 H 390.2 Z"
         id="path666" /></clipPath><clipPath
        id="clipPath770"><path
         d="M 0,500 H 750 V 0 H 0 Z"
         id="path768" /></clipPath></defs><g
     id="g10"
     transform="matrix(1.3333333,0,0,-1.3333333,0,666.66667)"><g
       id="g12"
       transform="translate(483.6002,466.7658)"><path
         d="m 0,0 v -135.684 h -194.877 l -7.021,134.735 z"
         style="fill:#e1e1e1;fill-opacity:1;fill-rule:nonzero;stroke:none"
         id="path14" /></g><path
       d="M 476.58,331.368 H 281.703 V 465.816 H 476.58 Z"
       style="fill:#ffffff;fill-opacity:1;fill-rule:nonzero;stroke:none"
       id="path16" /><path
       d="m 282.627,332.293 h 193.029 v 132.6 H 282.627 Z m 194.878,-1.849 H 280.778 v 136.297 h 196.727 z"
       style="fill:#e1e1e1;fill-opacity:1;fill-rule:nonzero;stroke:none"
       id="path18" /><path
       d="M 455.473,348.072 H 302.808 v 101.04 h 152.665 z"
       style="fill:#ffffff;fill-opacity:1;fill-rule:nonzero;stroke:none"
       id="path20" /><g
       id="g22"><g
         id="g24"
         clip-path="url(#clipPath28)"><g
           id="g30"
           transform="translate(455.4733,449.1125)"><path
             d="m 0,0 c 0,0 -0.263,-0.017 -0.753,-0.026 -0.518,-0.006 -1.235,-0.015 -2.171,-0.026 -1.934,-0.012 -4.742,-0.03 -8.384,-0.053 -7.333,-0.028 -17.995,-0.068 -31.461,-0.119 -26.921,-0.053 -65.028,-0.129 -109.896,-0.217 L -152.223,0 c 0.012,-30.871 0.026,-65.076 0.04,-101.028 v -0.012 l -0.482,0.481 c 57.59,-0.037 110.686,-0.07 152.664,-0.097 l -0.383,-0.384 c 0.084,30.748 0.154,55.959 0.201,73.516 0.043,8.774 0.076,15.629 0.098,20.329 0.02,2.321 0.033,4.104 0.043,5.341 C -0.027,-0.643 0,0 0,0 0,0 0.027,-0.588 0.041,-1.773 0.051,-2.994 0.065,-4.752 0.084,-7.043 0.106,-11.722 0.14,-18.548 0.182,-27.286 0.23,-44.899 0.299,-70.192 0.384,-101.04 l 0.001,-0.383 -0.386,-0.001 c -41.978,-0.027 -95.074,-0.06 -152.664,-0.097 l -0.481,-0.001 v 0.482 0.012 c 0.014,35.952 0.027,70.157 0.04,101.028 v 0.443 l 0.441,-0.001 C -107.679,0.353 -69.472,0.278 -42.479,0.225 -29.056,0.174 -18.428,0.133 -11.118,0.106 -7.515,0.083 -4.736,0.064 -2.822,0.052 -1.908,0.041 -1.207,0.032 -0.701,0.026 -0.228,0.018 0,0 0,0"
             style="fill:#e1e1e1;fill-opacity:1;fill-rule:nonzero;stroke:none"
             id="path32" /></g><g
           id="g34"
           transform="translate(281.7018,466.1945)"><path
             d="m 0,0 c 0.082,0.104 1.356,-0.731 3.351,-2.17 1.993,-1.44 4.708,-3.482 7.639,-5.827 2.932,-2.347 5.51,-4.566 7.326,-6.229 1.815,-1.662 2.876,-2.758 2.791,-2.856 -0.181,-0.204 -4.867,3.66 -10.719,8.333 C 4.533,-4.081 -0.171,-0.22 0,0"
             style="fill:#e1e1e1;fill-opacity:1;fill-rule:nonzero;stroke:none"
             id="path36" /></g><g
           id="g38"
           transform="translate(476.5797,465.8166)"><path
             d="m 0,0 c 0.165,-0.208 -4.427,-4.117 -10.254,-8.729 -5.83,-4.614 -10.687,-8.184 -10.852,-7.975 -0.165,0.208 4.424,4.117 10.254,8.73 C -5.024,-3.362 -0.165,0.208 0,0"
             style="fill:#e1e1e1;fill-opacity:1;fill-rule:nonzero;stroke:none"
             id="path40" /></g><g
           id="g42"
           transform="translate(476.4254,331.3488)"><path
             d="M 0,0 C -7.243,5.87 -14.485,11.741 -21.729,17.611"
             style="fill:#ffffff;fill-opacity:1;fill-rule:nonzero;stroke:none"
             id="path44" /></g><g
           id="g46"
           transform="translate(454.6969,348.9597)"><path
             d="m 0,0 c 0.168,0.207 5.168,-3.569 11.167,-8.431 6.001,-4.864 10.729,-8.973 10.562,-9.18 -0.167,-0.206 -5.167,3.568 -11.168,8.432 C 4.562,-4.316 -0.167,-0.207 0,0"
             style="fill:#e1e1e1;fill-opacity:1;fill-rule:nonzero;stroke:none"
             id="path48" /></g><g
           id="g50"
           transform="translate(281.7023,331.3683)"><path
             d="m 0,0 c -0.165,0.208 4.378,4.077 10.146,8.638 5.77,4.564 10.58,8.093 10.745,7.884 C 21.056,16.314 16.513,12.447 10.744,7.883 4.976,3.321 0.165,-0.208 0,0"
             style="fill:#e1e1e1;fill-opacity:1;fill-rule:nonzero;stroke:none"
             id="path52" /></g><path
           d="m 429.865,383.8 h -96.059 v 33.833 h 96.059 z"
           style="fill:#e1e1e1;fill-opacity:1;fill-rule:nonzero;stroke:none"
           id="path54" /><path
           d="M 697.295,51.049 H 565.679 v 248.798 h 131.616 z"
           style="fill:#e1e1e1;fill-opacity:1;fill-rule:nonzero;stroke:none"
           id="path56" /><path
           d="M 658.234,51.049 H 526.618 v 248.798 h 131.616 z"
           style="fill:#f5f5f5;fill-opacity:1;fill-rule:nonzero;stroke:none"
           id="path58" /><path
           d="m 536.961,250.023 h 110.197 v 36.662 H 536.961 Z m 111.586,-1.389 H 535.572 v 39.438 h 112.975 z"
           style="fill:#e1e1e1;fill-opacity:1;fill-rule:nonzero;stroke:none"
           id="path60" /><g
           id="g62"
           transform="translate(609.3131,279.5202)"><path
             d="m 0,0 h -32.978 c -2.732,0 -4.947,2.215 -4.947,4.948 V 7.859 H 4.948 V 4.948 C 4.948,2.215 2.733,0 0,0"
             style="fill:#ececec;fill-opacity:1;fill-rule:nonzero;stroke:none"
             id="path64" /></g><path
           d="m 536.961,199.926 h 110.197 v 36.662 H 536.961 Z m 111.586,-1.388 H 535.572 v 39.438 h 112.975 z"
           style="fill:#e1e1e1;fill-opacity:1;fill-rule:nonzero;stroke:none"
           id="path66" /><g
           id="g68"
           transform="translate(609.3131,229.4235)"><path
             d="m 0,0 h -32.978 c -2.732,0 -4.947,2.215 -4.947,4.947 V 7.858 H 4.948 V 4.948 C 4.948,2.215 2.733,0 0,0"
             style="fill:#ececec;fill-opacity:1;fill-rule:nonzero;stroke:none"
             id="path70" /></g><path
           d="m 536.961,149.829 h 110.197 v 36.662 H 536.961 Z M 648.547,148.44 H 535.572 v 39.438 h 112.975 z"
           style="fill:#e1e1e1;fill-opacity:1;fill-rule:nonzero;stroke:none"
           id="path72" /><g
           id="g74"
           transform="translate(609.3131,179.3268)"><path
             d="m 0,0 h -32.978 c -2.732,0 -4.947,2.215 -4.947,4.947 V 7.858 H 4.948 V 4.948 C 4.948,2.215 2.733,0 0,0"
             style="fill:#ececec;fill-opacity:1;fill-rule:nonzero;stroke:none"
             id="path76" /></g><path
           d="m 536.961,99.732 h 110.197 v 36.662 H 536.961 Z M 648.547,98.344 H 535.572 v 39.438 h 112.975 z"
           style="fill:#e1e1e1;fill-opacity:1;fill-rule:nonzero;stroke:none"
           id="path78" /><g
           id="g80"
           transform="translate(609.3131,129.2292)"><path
             d="m 0,0 h -32.977 c -2.733,0 -4.948,2.216 -4.948,4.948 V 7.859 H 4.948 V 4.948 C 4.948,2.216 2.733,0 0,0"
             style="fill:#ececec;fill-opacity:1;fill-rule:nonzero;stroke:none"
             id="path82" /></g><path
           d="M 663.74,296.765 H 520.78 v 12.393 h 142.96 z"
           style="fill:#ececec;fill-opacity:1;fill-rule:nonzero;stroke:none"
           id="path84" /><path
           d="m 706.73,296.765 h -42.99 v 12.393 h 42.99 z"
           style="fill:#e1e1e1;fill-opacity:1;fill-rule:nonzero;stroke:none"
           id="path86" /><path
           d="m 533.534,38.34 h -6.916 v 12.709 h 6.916 z"
           style="fill:#e1e1e1;fill-opacity:1;fill-rule:nonzero;stroke:none"
           id="path88" /><path
           d="m 576.27,38.34 h -6.916 v 12.709 h 6.916 z"
           style="fill:#e1e1e1;fill-opacity:1;fill-rule:nonzero;stroke:none"
           id="path90" /><path
           d="m 654.333,38.34 h -6.917 v 12.709 h 6.917 z"
           style="fill:#e1e1e1;fill-opacity:1;fill-rule:nonzero;stroke:none"
           id="path92" /><path
           d="m 693.363,38.34 h -6.916 v 12.709 h 6.916 z"
           style="fill:#e1e1e1;fill-opacity:1;fill-rule:nonzero;stroke:none"
           id="path94" /><g
           id="g96"
           transform="translate(648.4781,342.2438)"><path
             d="M 0,0 13.322,-34.083 5.041,-34.045 -1.597,-13.1 Z"
             style="fill:#e1e1e1;fill-opacity:1;fill-rule:nonzero;stroke:none"
             id="path98" /></g><g
           id="g100"
           transform="translate(602.983,373.7355)"><path
             d="M 0,0 -4.579,-65.304 42.701,-66.292 48.021,0 Z"
             style="fill:#ececec;fill-opacity:1;fill-rule:nonzero;stroke:none"
             id="path102" /></g><g
           id="g104"
           transform="translate(607.7135,368.4767)"><path
             d="m 0,0 -3.813,-54.357 35.149,-1.646 4.91,56.325 z"
             style="fill:#fafafa;fill-opacity:1;fill-rule:nonzero;stroke:none"
             id="path106" /></g><g
           id="g108"
           transform="translate(615.4264,360.7907)"><path
             d="M 0,0 -2.852,-38.209 H 16.537 L 19.958,0 Z"
             style="fill:#e1e1e1;fill-opacity:1;fill-rule:nonzero;stroke:none"
             id="path110" /></g><path
           d="M 265.802,95.877 H 64.863 v 92.671 h 200.939 z"
           style="fill:#f5f5f5;fill-opacity:1;fill-rule:nonzero;stroke:none"
           id="path112" /><path
           d="m 70.712,101.494 h 189.057 v 80.928 H 70.712 Z m 190.307,-1.25 H 69.462 v 83.428 h 191.557 z"
           style="fill:#e1e1e1;fill-opacity:1;fill-rule:nonzero;stroke:none"
           id="path114" /><path
           d="m 314.89,95.877 h -49.088 v 92.671 h 49.088 z"
           style="fill:#e1e1e1;fill-opacity:1;fill-rule:nonzero;stroke:none"
           id="path116" /><g
           id="g118"
           transform="translate(70.0866,157.8522)"><path
             d="m 0,0 h 64.58 102.032 23.695 c 0.325,0 0.325,0.505 0,0.505 H 125.728 23.695 0 C -0.324,0.505 -0.325,0 0,0"
             style="fill:#e1e1e1;fill-opacity:1;fill-rule:nonzero;stroke:none"
             id="path120" /></g><g
           id="g122"
           transform="translate(165.862,158.1052)"><path
             d="m 0,0 c 0.57,8.227 0.509,16.938 0.065,25.172 -0.018,0.33 -0.495,0.331 -0.513,0 C -0.892,16.938 -0.953,8.227 -0.383,0 -0.365,-0.246 -0.017,-0.246 0,0"
             style="fill:#e1e1e1;fill-opacity:1;fill-rule:nonzero;stroke:none"
             id="path124" /></g><g
           id="g126"
           transform="translate(217.0861,170.6911)"><path
             d="m 0,0 c 0,-1.432 -1.161,-2.593 -2.593,-2.593 -1.432,0 -2.592,1.161 -2.592,2.593 0,1.432 1.16,2.593 2.592,2.593 C -1.161,2.593 0,1.432 0,0"
             style="fill:#e1e1e1;fill-opacity:1;fill-rule:nonzero;stroke:none"
             id="path128" /></g><g
           id="g130"
           transform="translate(117.2121,170.6911)"><path
             d="m 0,0 c 0,-1.432 -1.161,-2.593 -2.592,-2.593 -1.432,0 -2.593,1.161 -2.593,2.593 0,1.432 1.161,2.593 2.593,2.593 C -1.161,2.593 0,1.432 0,0"
             style="fill:#e1e1e1;fill-opacity:1;fill-rule:nonzero;stroke:none"
             id="path132" /></g><g
           id="g134"
           transform="translate(167.8327,141.9577)"><path
             d="m 0,0 c 0,-1.432 -1.16,-2.593 -2.592,-2.593 -1.432,0 -2.593,1.161 -2.593,2.593 0,1.432 1.161,2.593 2.593,2.593 C -1.16,2.593 0,1.432 0,0"
             style="fill:#e1e1e1;fill-opacity:1;fill-rule:nonzero;stroke:none"
             id="path136" /></g><g
           id="g138"
           transform="translate(88.8869,95.8766)"><path
             d="m 0,0 -10.346,-58.181 h 5.82 L 14.548,0 Z"
             style="fill:#e1e1e1;fill-opacity:1;fill-rule:nonzero;stroke:none"
             id="path140" /></g><g
           id="g142"
           transform="translate(251.5851,95.8766)"><path
             d="M 0,0 8.651,-58.281 H 2.833 L -14.548,0 Z"
             style="fill:#e1e1e1;fill-opacity:1;fill-rule:nonzero;stroke:none"
             id="path144" /></g><g
           id="g146"
           transform="translate(290.4303,95.8766)"><path
             d="M 0,0 9.802,-58.281 H 3.983 L -14.548,0 Z"
             style="fill:#e1e1e1;fill-opacity:1;fill-rule:nonzero;stroke:none"
             id="path148" /></g><g
           id="g150"
           transform="translate(167.6588,115.7311)"><path
             d="m 0,0 c 0,-1.433 -1.161,-2.593 -2.592,-2.593 -1.432,0 -2.593,1.16 -2.593,2.593 0,1.432 1.161,2.593 2.593,2.593 C -1.161,2.593 0,1.432 0,0"
             style="fill:#e1e1e1;fill-opacity:1;fill-rule:nonzero;stroke:none"
             id="path152" /></g><g
           id="g154"
           transform="translate(70.0866,129.1559)"><path
             d="m 0,0 h 64.58 102.032 23.695 c 0.325,0 0.325,0.504 0,0.504 H 125.728 23.695 0 C -0.324,0.504 -0.325,0 0,0"
             style="fill:#e1e1e1;fill-opacity:1;fill-rule:nonzero;stroke:none"
             id="path156" /></g><g
           id="g158"
           transform="translate(225.671,188.5856)"><path
             d="m 0,0 c 0,0 -0.169,0.023 -0.492,0.095 -0.323,0.063 -0.805,0.16 -1.444,0.239 -1.276,0.179 -3.176,0.238 -5.626,0.205 -1.225,-0.006 -2.593,-0.016 -4.086,0.111 -1.489,0.132 -3.123,0.396 -4.753,1.08 -1.626,0.67 -3.212,1.88 -4.238,3.627 -0.507,0.87 -0.864,1.878 -0.92,2.956 -0.064,1.066 0.21,2.22 0.899,3.133 0.665,0.919 1.642,1.643 2.784,1.996 1.129,0.349 2.509,0.237 3.511,-0.574 1.008,-0.783 1.562,-2.049 1.663,-3.328 0.11,-1.294 -0.29,-2.621 -1,-3.731 -0.705,-1.125 -1.677,-2.075 -2.76,-2.878 -1.079,-0.816 -2.295,-1.475 -3.584,-1.996 -2.579,-1.047 -5.504,-1.446 -8.421,-1.097 -2.908,0.341 -5.847,1.453 -8.224,3.433 -2.384,1.954 -4.234,4.636 -5.27,7.662 -1.043,3.017 -1.244,6.417 -0.337,9.615 0.463,1.589 1.204,3.126 2.273,4.44 1.063,1.307 2.475,2.401 4.13,2.927 1.641,0.528 3.438,0.56 5.067,0.014 1.629,-0.529 3.043,-1.753 3.715,-3.322 0.702,-1.556 0.743,-3.319 0.343,-4.913 -0.382,-1.606 -1.23,-3.08 -2.397,-4.216 -2.378,-2.261 -5.652,-3.106 -8.691,-3.185 -3.079,-0.072 -6.067,0.567 -8.79,1.621 -5.475,2.134 -9.813,5.892 -13.049,9.906 -3.279,4.031 -5.394,8.452 -6.853,12.586 -1.458,4.153 -2.282,8.055 -2.87,11.489 -0.568,3.44 -0.889,6.425 -1.125,8.866 -0.235,2.44 -0.372,4.338 -0.466,5.625 -0.041,0.627 -0.072,1.114 -0.095,1.465 -0.019,0.33 -0.015,0.5 -0.015,0.5 0,0 0.032,-0.167 0.068,-0.496 0.035,-0.35 0.084,-0.835 0.146,-1.46 0.132,-1.307 0.321,-3.195 0.563,-5.614 0.268,-2.434 0.617,-5.412 1.211,-8.837 0.614,-3.419 1.46,-7.298 2.929,-11.414 1.474,-4.101 3.586,-8.464 6.843,-12.438 3.214,-3.959 7.507,-7.649 12.884,-9.73 2.672,-1.028 5.611,-1.648 8.605,-1.572 2.961,0.081 6.108,0.913 8.352,3.057 1.089,1.062 1.893,2.455 2.25,3.969 0.378,1.504 0.33,3.153 -0.315,4.579 -0.618,1.436 -1.898,2.548 -3.41,3.042 -1.508,0.505 -3.202,0.479 -4.739,-0.018 -1.545,-0.49 -2.874,-1.516 -3.888,-2.759 -1.017,-1.25 -1.732,-2.725 -2.179,-4.258 -0.875,-3.081 -0.688,-6.374 0.322,-9.304 1.003,-2.938 2.797,-5.546 5.103,-7.443 2.296,-1.919 5.139,-3.002 7.966,-3.341 2.835,-0.345 5.685,0.036 8.194,1.046 2.487,1.008 4.776,2.566 6.148,4.678 0.676,1.055 1.046,2.274 0.95,3.471 -0.089,1.186 -0.598,2.343 -1.495,3.043 -0.887,0.723 -2.107,0.834 -3.153,0.52 -1.053,-0.318 -1.976,-0.991 -2.596,-1.843 -0.643,-0.846 -0.898,-1.889 -0.847,-2.899 0.046,-1.012 0.377,-1.971 0.857,-2.807 0.974,-1.681 2.488,-2.861 4.065,-3.525 1.583,-0.68 3.189,-0.956 4.661,-1.101 1.478,-0.14 2.839,-0.145 4.064,-0.156 2.45,0.003 4.363,-0.09 5.641,-0.304 C -0.641,0.24 0,0 0,0"
             style="fill:#e1e1e1;fill-opacity:1;fill-rule:nonzero;stroke:none"
             id="path160" /></g><g
           id="g162"
           transform="translate(129.7345,252.4557)"><path
             d="m 0,0 -15.881,-63.976 h 6.433 L 7.036,0 Z"
             style="fill:#f5f5f5;fill-opacity:1;fill-rule:nonzero;stroke:none"
             id="path164" /></g><g
           id="g166"
           transform="translate(175.7658,252.4557)"><path
             d="M 0,0 15.881,-63.976 H 9.448 L -7.036,0 Z"
             style="fill:#f5f5f5;fill-opacity:1;fill-rule:nonzero;stroke:none"
             id="path168" /></g><path
           d="m 155.724,188.48 h -7.488 v 81.372 h 7.488 z"
           style="fill:#f5f5f5;fill-opacity:1;fill-rule:nonzero;stroke:none"
           id="path170" /><path
           d="M 204.633,267.414 H 98.967 v 67.697 h 105.666 z"
           style="fill:#e1e1e1;fill-opacity:1;fill-rule:nonzero;stroke:none"
           id="path172" /><path
           d="m 178.348,246.956 h -53.036 v 6.538 h 53.036 z"
           style="fill:#f5f5f5;fill-opacity:1;fill-rule:nonzero;stroke:none"
           id="path174" /><g
           id="g176"
           transform="translate(105.9894,276.2453)"><path
             d="m 0,0 c 0.025,0 0.049,-0.389 0.072,-1.238 h -0.144 c -0.109,3.31 -0.188,14.28 -0.188,27.278 0.03,7.845 0.056,14.942 0.076,20.168 0.034,2.526 0.062,4.597 0.083,6.111 0.019,0.674 0.036,1.224 0.049,1.661 0.016,0.38 0.034,0.58 0.052,0.58 0.018,0 0.036,-0.2 0.053,-0.58 C 0.065,53.543 0.082,52.993 0.102,52.319 0.122,50.805 0.15,48.734 0.184,46.208 0.204,40.982 0.23,33.885 0.26,26.04 0.26,13.042 0.181,2.072 0.072,-1.238 H -0.072 C -0.049,-0.389 -0.025,0 0,0"
             style="fill:#f5f5f5;fill-opacity:1;fill-rule:nonzero;stroke:none"
             id="path178" /></g><g
           id="g180"
           transform="translate(113.8537,276.2453)"><path
             d="m 0,0 c 0.025,0 0.049,-0.389 0.072,-1.238 h -0.144 c -0.109,3.31 -0.188,14.28 -0.188,27.278 0.03,7.845 0.056,14.942 0.076,20.168 0.034,2.526 0.062,4.597 0.083,6.111 0.019,0.674 0.036,1.224 0.049,1.661 0.017,0.38 0.034,0.58 0.052,0.58 0.018,0 0.036,-0.2 0.053,-0.58 C 0.065,53.543 0.082,52.993 0.102,52.319 0.122,50.805 0.15,48.734 0.184,46.208 0.204,40.982 0.231,33.885 0.261,26.04 0.261,13.042 0.181,2.072 0.073,-1.238 H -0.072 C -0.049,-0.389 -0.025,0 0,0"
             style="fill:#f5f5f5;fill-opacity:1;fill-rule:nonzero;stroke:none"
             id="path182" /></g><g
           id="g184"
           transform="translate(121.7184,276.2453)"><path
             d="m 0,0 c 0.025,0 0.049,-0.389 0.072,-1.238 h -0.144 c -0.109,3.31 -0.189,14.28 -0.189,27.278 0.03,7.845 0.057,14.942 0.077,20.168 0.034,2.526 0.062,4.597 0.082,6.111 0.02,0.674 0.037,1.224 0.049,1.661 0.017,0.38 0.035,0.58 0.053,0.58 0.018,0 0.035,-0.2 0.052,-0.58 0.013,-0.437 0.03,-0.987 0.049,-1.661 C 0.122,50.805 0.15,48.734 0.184,46.208 0.204,40.982 0.23,33.885 0.26,26.04 0.26,13.042 0.181,2.072 0.072,-1.238 H -0.073 C -0.05,-0.389 -0.025,0 0,0"
             style="fill:#f5f5f5;fill-opacity:1;fill-rule:nonzero;stroke:none"
             id="path186" /></g><g
           id="g188"
           transform="translate(129.5827,276.2453)"><path
             d="m 0,0 c 0.025,0 0.049,-0.389 0.072,-1.238 h -0.144 c -0.109,3.31 -0.188,14.28 -0.188,27.278 0.029,7.845 0.056,14.942 0.076,20.168 0.034,2.526 0.062,4.597 0.082,6.111 0.02,0.674 0.037,1.224 0.049,1.661 0.017,0.38 0.035,0.58 0.053,0.58 0.018,0 0.036,-0.2 0.052,-0.58 0.013,-0.437 0.03,-0.987 0.049,-1.661 C 0.122,50.805 0.15,48.734 0.184,46.208 0.204,40.982 0.23,33.885 0.26,26.04 0.26,13.042 0.181,2.072 0.072,-1.238 H -0.072 C -0.049,-0.389 -0.025,0 0,0"
             style="fill:#f5f5f5;fill-opacity:1;fill-rule:nonzero;stroke:none"
             id="path190" /></g><g
           id="g192"
           transform="translate(137.4469,276.2453)"><path
             d="m 0,0 c 0.025,0 0.049,-0.389 0.072,-1.238 h -0.144 c -0.109,3.31 -0.188,14.28 -0.188,27.278 0.029,7.845 0.056,14.942 0.076,20.168 0.034,2.526 0.062,4.597 0.083,6.111 0.019,0.674 0.036,1.224 0.049,1.661 0.016,0.38 0.034,0.58 0.052,0.58 0.018,0 0.036,-0.2 0.053,-0.58 C 0.065,53.543 0.082,52.993 0.102,52.319 0.122,50.805 0.15,48.734 0.184,46.208 0.204,40.982 0.231,33.885 0.26,26.04 0.26,13.042 0.181,2.072 0.072,-1.238 H -0.072 C -0.049,-0.389 -0.025,0 0,0"
             style="fill:#f5f5f5;fill-opacity:1;fill-rule:nonzero;stroke:none"
             id="path194" /></g><g
           id="g196"
           transform="translate(145.3112,276.2453)"><path
             d="m 0,0 c 0.025,0 0.049,-0.389 0.073,-1.238 h -0.145 c -0.109,3.31 -0.188,14.28 -0.188,27.278 0.03,7.845 0.056,14.942 0.076,20.168 0.034,2.526 0.062,4.597 0.083,6.111 0.02,0.674 0.036,1.224 0.049,1.661 0.017,0.38 0.034,0.58 0.052,0.58 0.018,0 0.036,-0.2 0.053,-0.58 C 0.065,53.543 0.082,52.993 0.102,52.319 0.122,50.805 0.15,48.734 0.185,46.208 0.204,40.982 0.231,33.885 0.261,26.04 0.261,13.042 0.181,2.072 0.073,-1.238 H -0.072 C -0.049,-0.389 -0.025,0 0,0"
             style="fill:#f5f5f5;fill-opacity:1;fill-rule:nonzero;stroke:none"
             id="path198" /></g><g
           id="g200"
           transform="translate(153.1759,276.2453)"><path
             d="m 0,0 c 0.025,0 0.049,-0.389 0.072,-1.238 h -0.145 c -0.108,3.31 -0.188,14.28 -0.188,27.278 0.03,7.845 0.057,14.942 0.077,20.168 0.034,2.526 0.062,4.597 0.082,6.111 0.02,0.674 0.037,1.224 0.049,1.661 0.017,0.38 0.035,0.58 0.053,0.58 0.018,0 0.035,-0.2 0.052,-0.58 C 0.065,53.543 0.081,52.993 0.101,52.319 0.122,50.805 0.15,48.734 0.184,46.208 0.204,40.982 0.23,33.885 0.26,26.04 0.26,13.042 0.181,2.072 0.072,-1.238 H -0.073 C -0.05,-0.389 -0.025,0 0,0"
             style="fill:#f5f5f5;fill-opacity:1;fill-rule:nonzero;stroke:none"
             id="path202" /></g><g
           id="g204"
           transform="translate(161.0402,276.2453)"><path
             d="m 0,0 c 0.025,0 0.049,-0.389 0.072,-1.238 h -0.144 c -0.109,3.31 -0.188,14.28 -0.188,27.278 0.029,7.845 0.056,14.942 0.076,20.168 0.034,2.526 0.062,4.597 0.082,6.111 0.02,0.674 0.037,1.224 0.05,1.661 0.016,0.38 0.034,0.58 0.052,0.58 0.018,0 0.036,-0.2 0.052,-0.58 0.013,-0.437 0.03,-0.987 0.05,-1.661 C 0.122,50.805 0.15,48.734 0.184,46.208 0.204,40.982 0.23,33.885 0.26,26.04 0.26,13.042 0.181,2.072 0.072,-1.238 H -0.072 C -0.049,-0.389 -0.025,0 0,0"
             style="fill:#f5f5f5;fill-opacity:1;fill-rule:nonzero;stroke:none"
             id="path206" /></g><g
           id="g208"
           transform="translate(168.9044,276.2453)"><path
             d="m 0,0 c 0.025,0 0.049,-0.389 0.072,-1.238 h -0.144 c -0.109,3.31 -0.188,14.28 -0.188,27.278 0.03,7.845 0.056,14.942 0.076,20.168 0.034,2.526 0.062,4.597 0.083,6.111 0.019,0.674 0.036,1.224 0.049,1.661 0.016,0.38 0.034,0.58 0.052,0.58 0.018,0 0.036,-0.2 0.053,-0.58 C 0.065,53.543 0.082,52.993 0.102,52.319 0.122,50.805 0.15,48.734 0.184,46.208 0.204,40.982 0.231,33.885 0.26,26.04 0.26,13.042 0.181,2.072 0.072,-1.238 H -0.072 C -0.049,-0.389 -0.025,0 0,0"
             style="fill:#f5f5f5;fill-opacity:1;fill-rule:nonzero;stroke:none"
             id="path210" /></g><g
           id="g212"
           transform="translate(176.7687,276.2453)"><path
             d="m 0,0 c 0.025,0 0.049,-0.389 0.072,-1.238 h -0.144 c -0.109,3.31 -0.188,14.28 -0.188,27.278 0.03,7.845 0.056,14.942 0.076,20.168 0.034,2.526 0.062,4.597 0.083,6.111 0.02,0.674 0.036,1.224 0.049,1.661 0.017,0.38 0.034,0.58 0.052,0.58 0.018,0 0.036,-0.2 0.053,-0.58 C 0.065,53.543 0.082,52.993 0.102,52.319 0.122,50.805 0.15,48.734 0.184,46.208 0.204,40.982 0.231,33.885 0.261,26.04 0.261,13.042 0.181,2.072 0.072,-1.238 H -0.072 C -0.049,-0.389 -0.025,0 0,0"
             style="fill:#f5f5f5;fill-opacity:1;fill-rule:nonzero;stroke:none"
             id="path214" /></g><g
           id="g216"
           transform="translate(184.6334,276.2453)"><path
             d="m 0,0 c 0.025,0 0.049,-0.389 0.072,-1.238 h -0.145 c -0.108,3.31 -0.188,14.28 -0.188,27.278 0.03,7.845 0.057,14.942 0.076,20.168 0.035,2.526 0.063,4.597 0.083,6.111 0.02,0.674 0.037,1.224 0.049,1.661 0.017,0.38 0.035,0.58 0.053,0.58 0.018,0 0.035,-0.2 0.052,-0.58 0.013,-0.437 0.03,-0.987 0.049,-1.661 C 0.122,50.805 0.15,48.734 0.184,46.208 0.204,40.982 0.23,33.885 0.26,26.04 0.26,13.042 0.181,2.072 0.072,-1.238 H -0.073 C -0.049,-0.389 -0.025,0 0,0"
             style="fill:#f5f5f5;fill-opacity:1;fill-rule:nonzero;stroke:none"
             id="path218" /></g><g
           id="g220"
           transform="translate(192.4977,276.2453)"><path
             d="m 0,0 c 0.025,0 0.049,-0.389 0.072,-1.238 h -0.144 c -0.109,3.31 -0.188,14.28 -0.188,27.278 0.029,7.845 0.056,14.942 0.076,20.168 0.034,2.526 0.062,4.597 0.082,6.111 0.02,0.674 0.037,1.224 0.049,1.661 0.017,0.38 0.035,0.58 0.053,0.58 0.018,0 0.036,-0.2 0.052,-0.58 0.013,-0.437 0.03,-0.987 0.049,-1.661 C 0.122,50.805 0.15,48.734 0.184,46.208 0.204,40.982 0.23,33.885 0.26,26.04 0.26,13.042 0.181,2.072 0.072,-1.238 H -0.072 C -0.049,-0.389 -0.025,0 0,0"
             style="fill:#f5f5f5;fill-opacity:1;fill-rule:nonzero;stroke:none"
             id="path222" /></g><g
           id="g224"
           transform="translate(200.362,276.2453)"><path
             d="m 0,0 c 0.025,0 0.049,-0.389 0.072,-1.238 h -0.144 c -0.109,3.31 -0.188,14.28 -0.188,27.278 0.03,7.845 0.056,14.942 0.076,20.168 0.034,2.526 0.062,4.597 0.083,6.111 0.019,0.674 0.036,1.224 0.049,1.661 0.016,0.38 0.034,0.58 0.052,0.58 0.018,0 0.036,-0.2 0.053,-0.58 C 0.065,53.543 0.082,52.993 0.102,52.319 0.122,50.805 0.15,48.734 0.184,46.208 0.204,40.982 0.231,33.885 0.26,26.04 0.26,13.042 0.181,2.072 0.072,-1.238 H -0.072 C -0.049,-0.389 -0.025,0 0,0"
             style="fill:#f5f5f5;fill-opacity:1;fill-rule:nonzero;stroke:none"
             id="path226" /></g></g></g><g
       id="g228"><g
         id="g230"
         clip-path="url(#clipPath234)"><g
           id="g236"
           transform="translate(92.1466,243.2204)"><path
             d="m 0,0 1.529,-2.442 c 12.889,-20.59 35.846,-32.791 59.846,-30.939 3.084,0.238 6.153,0.699 9.177,1.391 21.775,4.977 40.549,21.757 48.132,43.017 4.459,12.504 5.555,26.845 14.209,36.841 11.262,13.009 30.68,13.682 47.765,13.387 17.084,-0.296 36.514,0.429 47.72,13.488 7.018,8.178 9.125,19.699 8.4,30.512 -1.92,28.626 -22.238,53.964 -47.801,66.343 -25.563,12.38 -55.469,13.105 -83.175,7.118 C 66.989,170.33 30.274,148.269 8.487,114.68 -13.299,81.091 -18.3,35.673 0,0"
             style="fill:#ececec;fill-opacity:1;fill-rule:nonzero;stroke:none"
             id="path238" /></g><g
           id="g240"
           transform="translate(332.4547,106.8347)"><path
             d="m 0,0 c 0,-22.34 -18.11,-40.45 -40.451,-40.45 -22.34,0 -40.451,18.11 -40.451,40.45 0,22.341 18.111,40.451 40.451,40.451 C -18.11,40.451 0,22.341 0,0"
             style="fill:#ececec;fill-opacity:1;fill-rule:nonzero;stroke:none"
             id="path242" /></g><g
           id="g244"
           transform="translate(651.1354,359.7287)"><path
             d="m 0,0 c -8.158,15.303 -22.977,27.51 -37.027,37.674 -20.973,15.17 -51.982,17.707 -68.874,13.788 -9.997,-1.971 -19.423,-6.101 -27.244,-12.7 -17.866,-15.076 -23.794,-44.357 -9.34,-62.73 5.813,-7.39 14.11,-12.451 20.318,-19.513 17.763,-20.204 15.282,-52.418 32.372,-73.194 15.436,-18.767 44.732,-22.783 66.443,-11.87 21.711,10.913 35.559,34.31 38.566,58.423 C 18.22,-46.009 11.431,-21.443 0,0"
             style="fill:#ececec;fill-opacity:1;fill-rule:nonzero;stroke:none"
             id="path246" /></g></g></g><g
       id="g248"><g
         id="g250"
         clip-path="url(#clipPath254)"><g
           id="g256"
           transform="translate(174.3454,120.1638)"><path
             d="m 0,0 c 4.38,2.26 9.537,2.554 14.399,1.75 2.613,-0.432 5.336,-1.213 7.113,-3.175 1.778,-1.963 2.115,-5.415 0.074,-7.101 -1.215,-1.004 -2.91,-1.157 -4.485,-1.138 -3.807,0.044 -8.03,0.715 -11.071,-1.576 -1.735,-1.307 -2.89,-3.479 -4.964,-4.121 -2.029,-0.629 -4.319,0.569 -5.396,2.4 -1.076,1.832 -1.111,4.121 -0.61,6.186 0,0 0.528,4.5 4.94,6.775"
             style="fill:#ff735d;fill-opacity:1;fill-rule:nonzero;stroke:none"
             id="path258" /></g><g
           id="g260"
           transform="translate(164.3112,139.5349)"><path
             d="m 0,0 c 2.678,-3.825 7.883,-2.559 10.297,-0.225 2.413,2.335 3.433,5.719 4.362,8.947 2.121,7.372 4.26,15.106 2.683,22.615 -0.472,2.244 -1.311,4.482 -2.888,6.148 -1.578,1.665 -4.003,2.656 -6.221,2.07 C 5.609,38.861 3.978,36.291 2.799,33.846 -0.667,26.658 -2.501,18.69 -2.528,10.711 -2.542,6.984 -2.102,3.076 0,0"
             style="fill:#ff735d;fill-opacity:1;fill-rule:nonzero;stroke:none"
             id="path262" /></g><g
           id="g264"
           transform="translate(156.9567,133.864)"><path
             d="m 0,0 c 2.908,3.451 3.46,8.484 2.166,12.808 -1.294,4.323 -4.217,8.001 -7.586,11.004 -3.95,3.52 -8.593,6.259 -13.584,8.015 -1.964,0.691 -4.036,1.236 -6.109,1.037 -2.073,-0.197 -4.16,-1.258 -5.127,-3.101 -1.429,-2.727 -0.059,-6.034 1.424,-8.732 2.611,-4.754 5.598,-9.301 8.922,-13.587 2.674,-3.447 5.737,-6.848 9.813,-8.406 4.076,-1.559 8.309,-1.375 10.47,1.451"
             style="fill:#ff735d;fill-opacity:1;fill-rule:nonzero;stroke:none"
             id="path266" /></g><g
           id="g268"
           transform="translate(164.13,81.653)"><path
             d="m 0,0 c 0.05,-0.003 0.131,0.616 0.242,1.737 0.123,1.266 0.278,2.854 0.462,4.744 0.221,1.996 0.512,4.372 1.067,6.957 0.553,2.581 1.417,5.376 2.529,8.212 1.15,2.82 2.554,5.381 4.193,7.43 1.628,2.059 3.521,3.548 5.301,4.407 1.774,0.877 3.365,1.233 4.465,1.391 1.109,0.113 1.73,0.201 1.73,0.25 10e-4,0.05 -0.621,0.058 -1.761,0.027 C 17.1,35.08 15.442,34.794 13.573,33.944 11.697,33.112 9.688,31.6 7.98,29.498 6.259,27.406 4.805,24.788 3.634,21.919 2.504,19.033 1.652,16.209 1.124,13.573 0.597,10.941 0.356,8.54 0.198,6.527 0.048,4.514 -0.009,2.883 -0.037,1.755 -0.062,0.627 -0.049,0.003 0,0"
             style="fill:#1a2e35;fill-opacity:1;fill-rule:nonzero;stroke:none"
             id="path270" /></g><g
           id="g272"
           transform="translate(164.4567,85.3024)"><path
             d="M 0,0 C 0.025,0.001 0.04,0.279 0.047,0.807 0.045,1.413 0.043,2.176 0.041,3.113 0.035,5.114 0.036,8.011 0.144,11.587 0.32,18.74 0.937,26.439 2.126,37.292 3.252,47.498 4.765,59.375 6.36,67.098 c 0.342,1.756 0.687,3.337 1.011,4.719 0.31,1.388 0.574,2.583 0.829,3.551 0.218,0.911 0.397,1.653 0.538,2.242 0.116,0.515 0.165,0.788 0.142,0.795 C 8.856,78.412 8.76,78.152 8.6,77.649 8.423,77.069 8.202,76.338 7.93,75.439 7.633,74.481 7.329,73.293 6.981,71.911 6.619,70.533 6.239,68.957 5.864,67.203 4.285,60.206 2.614,50.427 1.413,39.547 0.221,28.671 -0.316,18.768 -0.364,11.597 -0.406,8.012 -0.33,5.109 -0.238,3.106 -0.181,2.169 -0.135,1.407 -0.098,0.801 -0.058,0.274 -0.024,-0.001 0,0"
             style="fill:#1a2e35;fill-opacity:1;fill-rule:nonzero;stroke:none"
             id="path274" /></g><g
           id="g276"
           transform="translate(164.5045,104.403)"><path
             d="m 0,0 c 0.05,0.001 0.042,0.857 -0.017,2.409 -0.088,1.548 -0.301,3.785 -0.737,6.527 -0.463,2.734 -1.108,5.981 -2.123,9.509 -0.44,1.614 -1.474,5.478 -3.977,11.253 -3.298,7.824 -7.779,14.222 -11.678,18.184 -0.914,1.052 -1.933,1.81 -2.747,2.554 -0.422,0.356 -0.795,0.711 -1.174,0.994 -0.381,0.262 -0.736,0.508 -1.066,0.734 -1.283,0.878 -2.002,1.34 -2.028,1.299 -0.115,-0.156 2.874,-1.916 6.648,-5.932 3.759,-4.006 8.115,-10.359 11.387,-18.118 1.825,-4.208 3.096,-7.962 3.999,-11.149 C -2.47,14.77 -1.778,11.556 -1.254,8.849 -0.757,6.136 -0.469,3.92 -0.295,2.386 -0.152,0.85 -0.049,-0.002 0,0"
             style="fill:#1a2e35;fill-opacity:1;fill-rule:nonzero;stroke:none"
             id="path278" /></g><g
           id="g280"
           transform="translate(146.0436,70.7097)"><path
             d="M 0,0 1.914,-26.22 H 35.599 L 37.512,0 Z"
             style="fill:#1a2e35;fill-opacity:1;fill-rule:nonzero;stroke:none"
             id="path282" /></g><path
           d="m 142.79,70.71 h 44.786 V 81.046 H 142.79 Z"
           style="fill:#1a2e35;fill-opacity:1;fill-rule:nonzero;stroke:none"
           id="path284" /><g
           id="g286"
           transform="translate(142.7897,45.4929)"><path
             d="M 0,0 V -2.864 H 2.104 44.045 V 0 Z"
             style="fill:#375a64;fill-opacity:1;fill-rule:nonzero;stroke:none"
             id="path288" /></g><g
           id="g290"
           transform="translate(146.9567,37.5866)"><path
             d="M 0,0 -2.063,5.042 H 38.274 L 35.868,0 Z"
             style="fill:#375a64;fill-opacity:1;fill-rule:nonzero;stroke:none"
             id="path292" /></g><g
           id="g294"
           transform="translate(182.9303,62.1403)"><path
             d="m 0,0 c 0.008,-0.006 -0.046,-0.088 -0.157,-0.24 -0.134,-0.178 -0.3,-0.398 -0.503,-0.668 -0.479,-0.613 -1.136,-1.453 -1.963,-2.511 l -0.087,-0.112 -0.084,0.117 c -1.234,1.706 -2.881,3.984 -4.821,6.668 h 0.277 c -1.434,-2.031 -3.031,-4.293 -4.746,-6.721 l -0.149,-0.211 -0.166,0.199 c -1.752,2.083 -3.654,4.346 -5.629,6.697 l 0.324,0.004 c -0.098,-0.123 -0.204,-0.256 -0.31,-0.389 -1.745,-2.189 -3.435,-4.308 -5.033,-6.311 l -0.168,-0.21 -0.155,0.219 c -1.708,2.418 -3.305,4.677 -4.748,6.719 l 0.276,-0.013 c -2.34,-2.667 -4.325,-4.927 -5.848,-6.663 l -0.104,-0.118 -0.08,0.133 c -0.771,1.295 -1.385,2.328 -1.831,3.076 -0.191,0.334 -0.346,0.605 -0.469,0.819 -0.104,0.188 -0.153,0.287 -0.144,0.292 0.009,0.006 0.076,-0.083 0.196,-0.259 0.137,-0.207 0.308,-0.467 0.52,-0.788 0.468,-0.736 1.113,-1.75 1.922,-3.021 l -0.183,0.015 c 1.499,1.756 3.452,4.046 5.755,6.745 l 0.145,0.17 0.131,-0.184 c 1.457,-2.033 3.067,-4.282 4.791,-6.688 l -0.322,0.008 c 1.594,2.006 3.28,4.127 5.021,6.32 0.106,0.134 0.212,0.266 0.31,0.388 l 0.16,0.202 0.165,-0.197 c 1.969,-2.354 3.866,-4.623 5.613,-6.711 l -0.315,-0.012 c 1.732,2.416 3.346,4.667 4.794,6.687 l 0.14,0.195 0.137,-0.195 c 1.899,-2.713 3.512,-5.015 4.719,-6.74 l -0.171,0.005 c 0.86,1.031 1.543,1.85 2.041,2.447 0.222,0.257 0.402,0.465 0.547,0.633 C -0.076,-0.063 -0.008,0.007 0,0"
             style="fill:#e1e1e1;fill-opacity:1;fill-rule:nonzero;stroke:none"
             id="path296" /></g><g
           id="g298"
           transform="translate(184.0246,70.8835)"><path
             d="m 0,0 c 0,-0.116 -8.44,-0.21 -18.849,-0.21 -10.413,0 -18.852,0.094 -18.852,0.21 0,0.115 8.439,0.209 18.852,0.209 C -8.44,0.209 0,0.115 0,0"
             style="fill:#375a64;fill-opacity:1;fill-rule:nonzero;stroke:none"
             id="path300" /></g><g
           id="g302"
           transform="translate(185.7262,42.3464)"><path
             d="m 0,0 c 0,-0.116 -9.173,-0.21 -20.485,-0.21 -11.317,0 -20.488,0.094 -20.488,0.21 0,0.115 9.171,0.209 20.488,0.209 C -9.173,0.209 0,0.115 0,0"
             style="fill:#1a2e35;fill-opacity:1;fill-rule:nonzero;stroke:none"
             id="path304" /></g></g></g><g
       id="g306"><g
         id="g308"
         clip-path="url(#clipPath312)"><g
           id="g314"
           transform="translate(691.3414,37.528)"><path
             d="m 0,0 c 0,-0.144 -146.18,-0.26 -326.46,-0.26 -180.343,0 -326.492,0.116 -326.492,0.26 0,0.145 146.149,0.261 326.492,0.261 C -146.18,0.261 0,0.145 0,0"
             style="fill:#1a2e35;fill-opacity:1;fill-rule:nonzero;stroke:none"
             id="path316" /></g></g></g><g
       id="g318"><g
         id="g320"
         clip-path="url(#clipPath324)"><g
           id="g326"
           transform="translate(398.8824,299.2712)"><path
             d="m 0,0 c -4.391,0.435 -8.106,3.478 -10.868,6.919 -2.762,3.441 -4.861,7.388 -7.757,10.717 -2.158,2.481 -2.497,7.522 -5.685,8.332 -3.988,1.014 -5.94,6.718 -5.682,9.996 0.282,3.569 3.173,7.158 3.081,8.225 -0.239,2.804 -3.452,4.808 -3.501,7.621 -0.116,6.611 4.986,7.517 4.986,7.517 1.272,3.434 3.018,7.997 7.412,10.934 4.763,3.183 12.132,6.883 17.751,5.767 5.619,-1.117 9.684,-1.754 13.003,-6.423"
             style="fill:#1a2e35;fill-opacity:1;fill-rule:nonzero;stroke:none"
             id="path328" /></g><g
           id="g330"
           transform="translate(446.4459,301.5417)"><path
             d="m 0,0 -4.383,-22.662 -9.865,-20.409 -13.151,9.107 -4.338,12.288 -3.638,10.306 c 0,0 -14.359,-2.893 -19.53,10.624 -2.497,6.527 -6.545,20.384 -10.064,32.97 -3.784,13.535 3.458,27.706 16.646,32.566 l 1.309,0.483 c 14.432,4.38 26.214,-5.429 30.194,-19.976 L 0,0"
             style="fill:#ffbf9d;fill-opacity:1;fill-rule:nonzero;stroke:none"
             id="path332" /></g><g
           id="g334"
           transform="translate(389.0143,325.0578)"><path
             d="M 0,0 C 0.341,-1.038 1.501,-1.604 2.591,-1.268 3.679,-0.932 4.286,0.18 3.945,1.217 3.604,2.254 2.444,2.823 1.356,2.487 0.267,2.15 -0.341,1.037 0,0"
             style="fill:#1a2e35;fill-opacity:1;fill-rule:nonzero;stroke:none"
             id="path336" /></g><g
           id="g338"
           transform="translate(386.3766,328.842)"><path
             d="M 0,0 C 0.333,-0.164 1.401,1.464 3.49,2.228 5.565,3.021 7.493,2.511 7.625,2.85 7.694,3.004 7.281,3.371 6.436,3.61 5.602,3.852 4.309,3.91 3.011,3.425 1.714,2.939 0.797,2.058 0.349,1.336 -0.111,0.607 -0.16,0.07 0,0"
             style="fill:#1a2e35;fill-opacity:1;fill-rule:nonzero;stroke:none"
             id="path340" /></g><g
           id="g342"
           transform="translate(408.5612,332.4123)"><path
             d="M 0,0 C 0.341,-1.038 1.501,-1.604 2.591,-1.268 3.678,-0.932 4.286,0.18 3.945,1.217 3.604,2.254 2.443,2.822 1.355,2.487 0.266,2.15 -0.342,1.037 0,0"
             style="fill:#1a2e35;fill-opacity:1;fill-rule:nonzero;stroke:none"
             id="path344" /></g><g
           id="g346"
           transform="translate(406.9528,337.092)"><path
             d="M 0,0 C 0.314,-0.2 1.555,1.304 3.712,1.836 5.861,2.399 7.722,1.684 7.89,2.007 7.976,2.152 7.606,2.562 6.79,2.891 5.986,3.222 4.707,3.419 3.365,3.078 2.022,2.735 1.016,1.958 0.491,1.29 -0.043,0.616 -0.151,0.086 0,0"
             style="fill:#1a2e35;fill-opacity:1;fill-rule:nonzero;stroke:none"
             id="path348" /></g><g
           id="g350"
           transform="translate(405.6256,317.1076)"><path
             d="m 0,0 c -0.034,0.122 -1.414,-0.131 -3.614,-0.637 -0.553,-0.142 -1.097,-0.221 -1.321,0.109 -0.267,0.339 -0.255,0.995 -0.226,1.711 0.026,1.473 0.053,3.018 0.081,4.637 0.059,6.584 -0.107,11.917 -0.372,11.917 -0.266,0 -0.528,-5.336 -0.588,-11.919 C -6.042,4.2 -6.045,2.656 -6.046,1.181 c 0.023,-0.68 -0.072,-1.495 0.494,-2.194 0.291,-0.345 0.788,-0.49 1.163,-0.456 0.38,0.022 0.683,0.127 0.952,0.208 C -1.279,-0.595 0.036,-0.122 0,0"
             style="fill:#1a2e35;fill-opacity:1;fill-rule:nonzero;stroke:none"
             id="path352" /></g><g
           id="g354"
           transform="translate(412.2985,317.9274)"><path
             d="m 0,0 c -0.347,-0.105 0.483,-2.372 -0.862,-4.694 -1.341,-2.326 -3.849,-2.961 -3.75,-3.285 0.02,-0.153 0.699,-0.241 1.728,0.106 1.013,0.334 2.354,1.194 3.178,2.614 0.819,1.422 0.844,2.925 0.578,3.883 C 0.609,-0.398 0.15,0.07 0,0"
             style="fill:#1a2e35;fill-opacity:1;fill-rule:nonzero;stroke:none"
             id="path356" /></g><g
           id="g358"
           transform="translate(404.6754,344.0554)"><path
             d="M 0,0 C 0.372,-0.524 2.437,0.342 5.035,0.733 7.626,1.176 9.857,0.999 10.047,1.614 10.127,1.905 9.622,2.356 8.646,2.694 7.678,3.033 6.233,3.211 4.677,2.962 3.121,2.711 1.805,2.09 0.992,1.464 0.171,0.838 -0.167,0.251 0,0"
             style="fill:#1a2e35;fill-opacity:1;fill-rule:nonzero;stroke:none"
             id="path360" /></g><g
           id="g362"
           transform="translate(385.3834,334.5261)"><path
             d="M 0,0 C 0.542,-0.339 1.798,0.683 3.518,1.343 5.215,2.063 6.828,2.201 6.981,2.82 7.041,3.115 6.636,3.505 5.831,3.718 5.036,3.933 3.847,3.91 2.672,3.437 1.499,2.961 0.628,2.152 0.205,1.445 -0.227,0.733 -0.247,0.171 0,0"
             style="fill:#1a2e35;fill-opacity:1;fill-rule:nonzero;stroke:none"
             id="path364" /></g><g
           id="g366"
           transform="translate(410.2653,369.4997)"><path
             d="m 0,0 c 1.068,-3.022 0.722,-6.512 -0.921,-9.265 -1.642,-2.753 -4.549,-4.715 -7.716,-5.211 -2.458,-0.384 -5.396,-0.1 -6.967,-2.029 -1.651,-2.029 -0.63,-5.229 -1.93,-7.499 -1.858,-3.244 -6.854,-2.553 -9.887,-4.738 -2.342,-1.688 -3.102,-4.755 -4.104,-7.463 -1.002,-2.707 -2.905,-5.612 -5.789,-5.749 -0.653,2.407 -1.311,4.84 -1.397,7.333 -0.086,2.493 0.451,5.088 1.975,7.063 0.836,1.082 1.942,1.95 2.663,3.111 1.557,2.508 0.996,5.731 1.481,8.643 0.626,3.755 3.189,7.132 6.636,8.745 2.868,1.343 6.244,1.521 8.889,3.264 1.954,1.289 3.339,3.333 5.367,4.504 3.947,2.28 8.937,0.618 13.057,-1.333"
             style="fill:#1a2e35;fill-opacity:1;fill-rule:nonzero;stroke:none"
             id="path368" /></g><g
           id="g370"
           transform="translate(398.8346,358.7565)"><path
             d="m 0,0 c 1.706,1.205 5.156,3.786 5.599,5.785 0.961,4.342 4.002,8.139 8.055,9.311 4.054,1.171 8.968,-0.637 11.248,-4.553 4.826,1.645 10.577,0.262 14.475,-3.481 3.897,-3.741 5.784,-9.691 4.747,-14.973 -0.271,-1.383 -0.724,-2.829 -0.269,-4.193 0.565,-1.69 2.275,-2.589 3.639,-3.673 3.721,-2.958 5.36,-8.232 4.951,-13.012 -0.409,-4.778 -1.206,-6.686 -3.552,-8.434 -4.593,-3.42 5.272,-11.537 -3.309,-14.534 l -13.579,29.671 c -0.175,-0.195 -0.399,-0.388 -0.701,-0.577 -4.678,-2.923 -8.813,6.764 -8.669,9.996 -2.407,0.99 -4.843,1.997 -6.969,3.58 C 13.54,-7.504 10.332,-2.283 9.742,0.366 7.949,-0.38 -0.75,-0.529 0,0"
             style="fill:#1a2e35;fill-opacity:1;fill-rule:nonzero;stroke:none"
             id="path372" /></g><g
           id="g374"
           transform="translate(430.1949,336.2209)"><path
             d="M 0,0 C 0.195,0.185 8.313,6.197 11.438,-3.195 14.562,-12.587 4.487,-13.787 4.382,-13.522 4.276,-13.259 0,0 0,0"
             style="fill:#ffbf9d;fill-opacity:1;fill-rule:nonzero;stroke:none"
             id="path376" /></g><g
           id="g378"
           transform="translate(436.2623,327.2106)"><path
             d="M 0,0 C 0.031,0.044 0.201,-0.06 0.521,-0.095 0.831,-0.128 1.323,-0.059 1.752,0.287 2.623,0.981 2.935,2.834 2.417,4.542 2.156,5.405 1.706,6.16 1.18,6.733 0.664,7.325 0.061,7.656 -0.469,7.579 -1.004,7.529 -1.259,7.112 -1.285,6.81 -1.324,6.505 -1.202,6.337 -1.246,6.305 -1.265,6.272 -1.5,6.395 -1.554,6.808 -1.577,7.008 -1.54,7.266 -1.38,7.52 -1.216,7.778 -0.915,7.981 -0.555,8.06 0.187,8.25 1.06,7.801 1.639,7.172 2.259,6.553 2.784,5.712 3.077,4.743 3.646,2.83 3.267,0.737 2.039,-0.107 1.437,-0.5 0.818,-0.483 0.46,-0.356 0.092,-0.221 -0.027,-0.028 0,0"
             style="fill:#ff9a6c;fill-opacity:1;fill-rule:nonzero;stroke:none"
             id="path380" /></g><g
           id="g382"
           transform="translate(411.0514,290.1745)"><path
             d="m 0,0 c 0,0 8.839,2.464 15.849,11.554 0,0 -0.584,-11.314 -14.584,-15.084 z"
             style="fill:#ff9a6c;fill-opacity:1;fill-rule:nonzero;stroke:none"
             id="path384" /></g><g
           id="g386"
           transform="translate(408.6823,359.0339)"><path
             d="m 0,0 c 0,0 6.74,-1.598 15.091,-1.033 8.351,0.566 9.502,5.193 12.201,9.583 0,0 5.423,-2.764 6.746,-9.677 0,0 -4.721,-13.428 -21.251,-11.817 0,0 -12.05,3.339 -12.787,12.944"
             style="fill:#e1e1e1;fill-opacity:1;fill-rule:nonzero;stroke:none"
             id="path388" /></g><g
           id="g390"
           transform="translate(442.3531,347.194)"><path
             d="m 0,0 c 0.248,-0.22 -0.371,-1.501 -2.103,-2.95 -1.699,-1.441 -4.628,-2.932 -8.147,-3.14 -3.52,-0.207 -6.604,0.93 -8.46,2.161 -1.891,1.237 -2.656,2.436 -2.435,2.683 0.246,0.294 1.393,-0.349 3.267,-1.041 1.861,-0.699 4.532,-1.376 7.475,-1.204 2.941,0.175 5.514,1.16 7.28,2.074 C -1.343,-0.511 -0.278,0.263 0,0"
             style="fill:#e1e1e1;fill-opacity:1;fill-rule:nonzero;stroke:none"
             id="path392" /></g><g
           id="g394"
           transform="translate(419.8346,340.2272)"><path
             d="m 0,0 c 0.132,-0.034 -0.231,-1.22 -1.39,-2.124 -1.151,-0.914 -2.389,-0.987 -2.391,-0.851 -0.032,0.15 1.039,0.435 2.069,1.261 C -0.668,-0.907 -0.139,0.066 0,0"
             style="fill:#ff9a6c;fill-opacity:1;fill-rule:nonzero;stroke:none"
             id="path396" /></g><g
           id="g398"
           transform="translate(421.5846,337.6281)"><path
             d="m 0,0 c 0.033,-0.14 -0.953,-0.495 -2.203,-0.793 -1.25,-0.298 -2.291,-0.426 -2.324,-0.286 -0.034,0.14 0.953,0.495 2.203,0.793 C -1.074,0.012 -0.034,0.14 0,0"
             style="fill:#ff9a6c;fill-opacity:1;fill-rule:nonzero;stroke:none"
             id="path400" /></g><g
           id="g402"
           transform="translate(402.0865,341.5681)"><path
             d="m 0,0 c 0.021,-0.073 -0.315,-0.222 -0.821,-0.513 -0.512,-0.283 -1.18,-0.737 -1.973,-1.207 -0.793,-0.47 -1.604,-0.789 -2.225,-0.868 -0.621,-0.088 -1.003,0.021 -0.997,0.085 0.003,0.078 0.37,0.105 0.918,0.275 0.551,0.162 1.27,0.501 2.042,0.958 0.773,0.458 1.501,0.881 2.078,1.091 C -0.403,0.039 -0.016,0.065 0,0"
             style="fill:#ff9a6c;fill-opacity:1;fill-rule:nonzero;stroke:none"
             id="path404" /></g><g
           id="g406"
           transform="translate(405.0963,347.1599)"><path
             d="m 0,0 c 0.024,-0.082 -0.616,-0.275 -1.483,-0.869 -0.88,-0.578 -1.914,-1.611 -3.043,-2.8 -1.133,-1.193 -2.331,-2.171 -3.355,-2.609 -1.018,-0.457 -1.729,-0.427 -1.728,-0.371 -0.016,0.086 0.649,0.188 1.563,0.7 0.924,0.496 2.023,1.46 3.146,2.642 1.124,1.185 2.247,2.226 3.223,2.751 C -0.71,-0.012 -0.009,0.057 0,0"
             style="fill:#ff9a6c;fill-opacity:1;fill-rule:nonzero;stroke:none"
             id="path408" /></g><g
           id="g410"
           transform="translate(388.5797,325.0305)"><path
             d="m 0,0 c 0.066,-0.121 -0.632,-0.58 -1.629,-0.621 -0.997,-0.048 -1.733,0.348 -1.678,0.475 0.049,0.141 0.774,0 1.655,0.045 C -0.771,-0.068 -0.062,0.137 0,0"
             style="fill:#ff9a6c;fill-opacity:1;fill-rule:nonzero;stroke:none"
             id="path412" /></g><g
           id="g414"
           transform="translate(387.9362,323.9138)"><path
             d="m 0,0 c 0.057,-0.138 -0.401,-0.447 -0.785,-0.967 -0.397,-0.512 -0.57,-1.036 -0.719,-1.018 -0.14,0.001 -0.184,0.691 0.304,1.332 C -0.716,-0.009 -0.039,0.134 0,0"
             style="fill:#ff9a6c;fill-opacity:1;fill-rule:nonzero;stroke:none"
             id="path416" /></g><g
           id="g418"
           transform="translate(415.361,317.8381)"><path
             d="M 0,0 C -0.135,-0.061 -0.532,0.606 -1.363,0.949 -2.183,1.32 -2.94,1.153 -2.989,1.293 -3.012,1.354 -2.84,1.497 -2.497,1.576 -2.159,1.657 -1.652,1.641 -1.156,1.427 -0.662,1.212 -0.303,0.854 -0.13,0.552 0.047,0.249 0.061,0.025 0,0"
             style="fill:#ff9a6c;fill-opacity:1;fill-rule:nonzero;stroke:none"
             id="path420" /></g><g
           id="g422"
           transform="translate(417.2858,317.6198)"><path
             d="m 0,0 c -0.143,-0.048 -0.487,0.69 -1.21,1.325 -0.711,0.65 -1.481,0.912 -1.449,1.059 0.008,0.138 0.963,0.082 1.797,-0.672 C -0.023,0.966 0.137,0.022 0,0"
             style="fill:#ff9a6c;fill-opacity:1;fill-rule:nonzero;stroke:none"
             id="path424" /></g><g
           id="g426"
           transform="translate(416.6461,332.7575)"><path
             d="m 0,0 c 0.129,-0.038 -0.332,-1.391 -1.641,-2.487 -1.298,-1.108 -2.709,-1.337 -2.725,-1.203 -0.046,0.148 1.195,0.576 2.389,1.601 C -0.768,-1.083 -0.138,0.07 0,0"
             style="fill:#ff9a6c;fill-opacity:1;fill-rule:nonzero;stroke:none"
             id="path428" /></g><g
           id="g430"
           transform="translate(398.9235,91.2682)"><path
             d="m 0,0 1.353,-34.42 c 0,0 -34.532,-12.934 -34.901,-19.32 l 66.832,0.226 0.093,53.717 z"
             style="fill:#375a64;fill-opacity:1;fill-rule:nonzero;stroke:none"
             id="path432" /></g><g
           id="g434"
           transform="translate(420.9323,59.8141)"><path
             d="m 0,0 c 1.295,-0.349 2.193,-1.8 1.897,-3.108 -0.295,-1.308 -1.763,-2.235 -3.064,-1.908 -1.3,0.327 -2.433,2.036 -1.992,3.302 0.44,1.267 2.223,2.261 3.407,1.632"
             style="fill:#e1e1e1;fill-opacity:1;fill-rule:nonzero;stroke:none"
             id="path436" /></g><g
           id="g438"><g
             id="g440" /><g
             id="g452"><g
               clip-path="url(#clipPath444)"
               opacity="0.600006"
               id="g450"><g
                 transform="translate(432.2076,37.7546)"
                 id="g448"><path
                   d="M 0,0 -0.202,5.415 -64.205,3.173 c 0,0 -2.971,-1.305 -2.628,-3.4 z"
                   style="fill:#ffffff;fill-opacity:1;fill-rule:nonzero;stroke:none"
                   id="path446" /></g></g></g></g><g
           id="g454"
           transform="translate(399.192,57.1852)"><path
             d="M 0,0 C 0.012,-0.327 1.645,-0.469 3.253,-1.513 4.89,-2.515 5.723,-3.926 6.022,-3.795 6.323,-3.73 5.83,-1.781 3.859,-0.552 1.9,0.695 -0.072,0.299 0,0"
             style="fill:#1a2e35;fill-opacity:1;fill-rule:nonzero;stroke:none"
             id="path456" /></g><g
           id="g458"
           transform="translate(392.192,54.2624)"><path
             d="M 0,0 C -0.073,-0.316 1.342,-0.867 2.455,-2.243 3.608,-3.587 3.893,-5.079 4.218,-5.063 4.524,-5.114 4.744,-3.202 3.327,-1.517 1.927,0.181 0.006,0.311 0,0"
             style="fill:#1a2e35;fill-opacity:1;fill-rule:nonzero;stroke:none"
             id="path460" /></g><g
           id="g462"
           transform="translate(388.2389,45.8591)"><path
             d="M 0,0 C 0.297,-0.068 0.746,1.563 -0.099,3.348 -0.93,5.139 -2.471,5.839 -2.608,5.566 -2.792,5.297 -1.798,4.342 -1.127,2.866 -0.422,1.406 -0.324,0.031 0,0"
             style="fill:#1a2e35;fill-opacity:1;fill-rule:nonzero;stroke:none"
             id="path464" /></g><g
           id="g466"
           transform="translate(399.7545,65.0632)"><path
             d="M 0,0 C 0.137,-0.297 1.633,0.158 3.478,0.039 5.325,-0.042 6.763,-0.656 6.932,-0.376 7.12,-0.14 5.715,1.064 3.539,1.174 1.366,1.3 -0.162,0.256 0,0"
             style="fill:#1a2e35;fill-opacity:1;fill-rule:nonzero;stroke:none"
             id="path468" /></g><g
           id="g470"
           transform="translate(579.5504,46.2585)"><path
             d="m 0,0 34.067,5.099 c 0,0 16.624,-32.915 23.012,-32.585 L 49.564,38.923 -3.842,33.155 Z"
             style="fill:#375a64;fill-opacity:1;fill-rule:nonzero;stroke:none"
             id="path472" /></g><g
           id="g474"
           transform="translate(608.4166,71.5661)"><path
             d="M 0,0 C 0.206,1.325 1.551,2.377 2.883,2.226 4.215,2.074 5.297,0.716 5.113,-0.612 4.932,-1.94 3.355,-3.252 2.049,-2.953 c -1.308,0.3 -2.489,1.964 -1.993,3.21"
             style="fill:#e1e1e1;fill-opacity:1;fill-rule:nonzero;stroke:none"
             id="path476" /></g><g
           id="g478"><g
             id="g480" /><g
             id="g492"><g
               clip-path="url(#clipPath484)"
               opacity="0.600006"
               id="g490"><g
                 transform="translate(629.1149,85.1813)"
                 id="g488"><path
                   d="m 0,0 -5.36,-0.792 9.209,-63.376 c 0,0 1.621,-2.811 3.666,-2.241 z"
                   style="fill:#ffffff;fill-opacity:1;fill-rule:nonzero;stroke:none"
                   id="path486" /></g></g></g></g><g
           id="g494"
           transform="translate(613.402,50.2429)"><path
             d="M 0,0 C 0.323,0.047 0.286,1.686 1.148,3.398 1.966,5.135 3.277,6.116 3.115,6.4 3.019,6.692 1.135,5.989 0.127,3.896 -0.898,1.812 -0.29,-0.104 0,0"
             style="fill:#1a2e35;fill-opacity:1;fill-rule:nonzero;stroke:none"
             id="path496" /></g><g
           id="g498"
           transform="translate(617.0709,43.6032)"><path
             d="M 0,0 C 0.322,-0.038 0.715,1.429 1.962,2.685 3.172,3.979 4.623,4.424 4.573,4.745 4.589,5.056 2.665,5.065 1.145,3.474 -0.391,1.896 -0.31,-0.027 0,0"
             style="fill:#1a2e35;fill-opacity:1;fill-rule:nonzero;stroke:none"
             id="path500" /></g><g
           id="g502"
           transform="translate(625.8551,40.5905)"><path
             d="m 0,0 c 0.035,0.303 -1.636,0.57 -3.317,-0.463 -1.69,-1.022 -2.217,-2.631 -1.931,-2.737 0.287,-0.153 1.128,0.939 2.522,1.767 C -1.353,-0.573 0.005,-0.326 0,0"
             style="fill:#1a2e35;fill-opacity:1;fill-rule:nonzero;stroke:none"
             id="path504" /></g><g
           id="g506"
           transform="translate(605.5094,49.9421)"><path
             d="m 0,0 c 0.28,0.169 -0.336,1.606 -0.419,3.453 -0.12,1.846 0.334,3.342 0.036,3.48 C -0.639,7.094 -1.682,5.564 -1.553,3.391 -1.441,1.217 -0.237,-0.188 0,0"
             style="fill:#1a2e35;fill-opacity:1;fill-rule:nonzero;stroke:none"
             id="path508" /></g><g
           id="g510"
           transform="translate(363.8385,231.7458)"><path
             d="M 0,0 47.962,-11.537 33.275,-41.243 -9.481,-17.014 Z"
             style="fill:#ffbf9d;fill-opacity:1;fill-rule:nonzero;stroke:none"
             id="path512" /></g><g
           id="g514"
           transform="translate(347.6442,239.0573)"><path
             d="m 0,0 -8.2,1.574 -11.25,-5.303 -4.773,-10.599 c -0.628,-1.394 -0.34,-3.025 0.717,-4.129 2.036,-2.124 5.352,-5.329 7.07,-5.598 0,0 0.247,-3.726 3.749,-3.905 0,0 -1.031,-1.713 3.056,-2.367 4.086,-0.655 16.84,1.72 16.84,1.72 0,0 0.751,2.231 -2.743,4.956 l 4.172,3.363 c 0,0 -0.256,2.66 -4.151,3.331 l 4.182,6.855 z"
             style="fill:#ff735d;fill-opacity:1;fill-rule:nonzero;stroke:none"
             id="path516" /></g><g
           id="g518"
           transform="translate(351.4113,214.5739)"><path
             d="M 0,0 14.051,-8.536 25.513,14.597 7.888,21.031 -2.723,0.482 Z"
             style="fill:#ff735d;fill-opacity:1;fill-rule:nonzero;stroke:none"
             id="path520" /></g><g
           id="g522"
           transform="translate(329.5367,233.8376)"><path
             d="m 0,0 -0.924,-2.484 -29.296,11.032 -3.629,0.936 -1.641,1.398 1.179,2.236 1.942,-0.231 3.164,-2.022 z"
             style="fill:#e1e1e1;fill-opacity:1;fill-rule:nonzero;stroke:none"
             id="path524" /></g><g
           id="g526"
           transform="translate(352.11,215.4059)"><path
             d="m 0,0 c 0.025,-0.062 -0.89,-0.514 -2.424,-1.111 -1.534,-0.598 -3.697,-1.322 -6.137,-1.933 -2.441,-0.607 -4.69,-0.985 -6.326,-1.179 -1.635,-0.194 -2.655,-0.225 -2.661,-0.159 -0.009,0.076 0.995,0.237 2.607,0.524 1.613,0.285 3.832,0.716 6.254,1.32 2.42,0.605 4.582,1.267 6.139,1.774 C -0.99,-0.259 -0.029,0.071 0,0"
             style="fill:#1a2e35;fill-opacity:1;fill-rule:nonzero;stroke:none"
             id="path528" /></g><g
           id="g530"
           transform="translate(332.1119,215.4518)"><path
             d="m 0,0 c 5.764,0.716 11.443,2.086 16.946,3.987 0.705,0.243 1.417,0.501 2.033,0.935 0.616,0.433 1.134,1.07 1.286,1.833"
             style="fill:#ff735d;fill-opacity:1;fill-rule:nonzero;stroke:none"
             id="path532" /></g><g
           id="g534"
           transform="translate(352.3766,222.2067)"><path
             d="m 0,0 c 0.026,-0.001 0.038,-0.333 -0.224,-0.853 -0.255,-0.514 -0.858,-1.165 -1.787,-1.604 -1.859,-0.809 -4.465,-1.648 -7.408,-2.445 -2.943,-0.786 -5.658,-1.289 -7.631,-1.572 -1.975,-0.276 -3.207,-0.347 -3.215,-0.281 -0.009,0.076 1.205,0.276 3.155,0.645 1.949,0.374 4.632,0.929 7.557,1.711 2.911,0.787 5.563,1.584 7.386,2.275 0.896,0.376 1.475,0.924 1.769,1.374 C -0.103,-0.299 -0.043,0.011 0,0"
             style="fill:#1a2e35;fill-opacity:1;fill-rule:nonzero;stroke:none"
             id="path536" /></g><g
           id="g538"
           transform="translate(353.8253,219.2653)"><path
             d="m 0,0 -25.916,9.642 2.694,7.241 L 2.694,7.241 C 4.693,6.497 5.711,4.273 4.967,2.273 4.223,0.274 2,-0.744 0,0"
             style="fill:#375a64;fill-opacity:1;fill-rule:nonzero;stroke:none"
             id="path540" /></g><g
           id="g542"
           transform="translate(329.0597,223.8268)"><path
             d="m 0,0 c 6.488,1.321 13.097,2.047 19.716,2.165 0.788,0.014 1.625,0.006 2.291,-0.414 0.713,-0.45 1.09,-1.305 1.168,-2.145 10e-4,-0.008 0.002,-0.016 0.002,-0.025 0.129,-1.482 -0.924,-2.78 -2.256,-3.442 -0.083,-0.042 0,0 -0.06,-0.024"
             style="fill:#ff735d;fill-opacity:1;fill-rule:nonzero;stroke:none"
             id="path544" /></g><g
           id="g546"
           transform="translate(349.9205,219.9421)"><path
             d="M 0,0 C -0.035,0.021 0.353,0.21 0.895,0.685 1.408,1.148 2.187,2.029 2.139,3.297 2.109,3.912 1.897,4.618 1.412,5.134 0.933,5.666 0.136,5.825 -0.712,5.813 -2.445,5.779 -4.369,5.703 -6.374,5.567 -10.391,5.303 -14.011,4.854 -16.622,4.472 c -1.22,-0.183 -2.253,-0.338 -3.093,-0.464 -0.731,-0.113 -1.139,-0.158 -1.146,-0.123 -0.007,0.035 0.387,0.147 1.108,0.321 0.72,0.169 1.768,0.396 3.072,0.629 2.604,0.477 6.236,0.986 10.273,1.252 2.019,0.137 3.938,0.198 5.7,0.206 C 0.165,6.298 1.15,6.103 1.728,5.429 2.297,4.785 2.494,3.999 2.507,3.308 2.518,2.599 2.27,1.986 1.972,1.534 1.67,1.077 1.326,0.754 1.024,0.527 0.416,0.082 -0.004,-0.044 0,0"
             style="fill:#1a2e35;fill-opacity:1;fill-rule:nonzero;stroke:none"
             id="path548" /></g><g
           id="g550"
           transform="translate(364.5319,231.1354)"><path
             d="m 0,0 c 0,0 -8.252,7.33 -11.519,9.141 -3.266,1.809 -6.224,1.91 -8.054,1.455 -1.829,-0.455 -15.43,-10.285 -15.43,-10.285 0,0 1.332,-3.185 5.84,-2.724 4.509,0.46 6.977,3.163 6.977,3.163 0,0 0.859,-4.463 6.43,-5.894 C -9.326,-6.795 0,0 0,0"
             style="fill:#ff735d;fill-opacity:1;fill-rule:nonzero;stroke:none"
             id="path552" /></g><g
           id="g554"
           transform="translate(342.2443,240.0944)"><path
             d="m 0,0 c 0.016,-0.024 -0.308,-0.28 -0.92,-0.734 -0.683,-0.493 -1.57,-1.133 -2.655,-1.915 -2.36,-1.656 -5.568,-3.905 -9.283,-6.509 l 0.051,0.358 c 0.694,-0.829 1.6,-1.547 2.688,-1.948 1.084,-0.408 2.316,-0.496 3.536,-0.323 2.532,0.378 4.782,1.633 6.527,3.051 l 0.279,0.226 0.113,-0.338 c 0.699,-2.101 2.13,-3.739 3.67,-4.734 1.55,-1.011 3.201,-1.372 4.549,-1.424 1.36,-0.051 2.432,0.198 3.141,0.408 0.712,0.219 1.08,0.394 1.096,0.361 0.006,-0.013 -0.08,-0.068 -0.253,-0.163 -0.171,-0.095 -0.436,-0.218 -0.79,-0.352 -0.706,-0.263 -1.795,-0.568 -3.201,-0.56 -1.391,0.01 -3.124,0.345 -4.767,1.377 -1.63,1.015 -3.155,2.713 -3.913,4.932 l 0.391,-0.111 c -1.795,-1.479 -4.098,-2.787 -6.769,-3.189 -1.287,-0.183 -2.612,-0.09 -3.788,0.358 -1.182,0.439 -2.161,1.227 -2.892,2.119 l -0.172,0.208 0.223,0.15 c 3.758,2.544 7.002,4.739 9.39,6.356 1.118,0.734 2.032,1.335 2.735,1.797 C -0.372,-0.187 -0.016,0.023 0,0"
             style="fill:#1a2e35;fill-opacity:1;fill-rule:nonzero;stroke:none"
             id="path556" /></g><g
           id="g558"
           transform="translate(354.3038,210.1432)"><path
             d="m 0,0 c 0.832,0.771 0.644,2.215 -0.092,3.078 -0.736,0.863 -1.848,1.291 -2.912,1.686 0.704,0.215 1.347,0.623 1.842,1.167 0.345,0.378 0.625,0.842 0.665,1.353 0.066,0.835 -0.536,1.609 -1.276,2.002 -0.74,0.394 -1.37,0.251 -2.204,0.336"
             style="fill:#ff735d;fill-opacity:1;fill-rule:nonzero;stroke:none"
             id="path560" /></g><g
           id="g562"
           transform="translate(350.3268,219.7653)"><path
             d="m 0,0 c 0.004,0.037 0.217,0.045 0.602,0.068 0.372,0.01 0.986,0.096 1.676,-0.235 0.633,-0.315 1.423,-0.992 1.445,-2.084 0,-0.533 -0.251,-1.043 -0.584,-1.455 C 2.803,-4.119 2.381,-4.478 1.89,-4.75 1.616,-4.902 1.329,-5.021 1.049,-5.105 l 0.014,0.489 C 1.958,-4.948 2.831,-5.31 3.5,-5.859 4.183,-6.388 4.576,-7.146 4.651,-7.785 4.747,-8.43 4.582,-8.965 4.377,-9.256 4.174,-9.553 3.992,-9.642 3.977,-9.622 3.899,-9.59 4.569,-9.013 4.309,-7.847 4.191,-7.283 3.843,-6.679 3.213,-6.222 2.6,-5.751 1.777,-5.425 0.883,-5.101 l -0.718,0.26 0.732,0.23 c 0.246,0.077 0.499,0.182 0.74,0.317 0.844,0.477 1.576,1.267 1.606,2.053 0.023,0.801 -0.597,1.44 -1.137,1.748 C 1.55,-0.172 0.981,-0.184 0.597,-0.134 0.208,-0.095 -0.004,-0.034 0,0"
             style="fill:#1a2e35;fill-opacity:1;fill-rule:nonzero;stroke:none"
             id="path564" /></g><g
           id="g566"
           transform="translate(369.8707,231.7458)"><path
             d="m 0,0 -11.167,-21.603 4.103,-2.492 10.507,22.838 z"
             style="fill:#e1e1e1;fill-opacity:1;fill-rule:nonzero;stroke:none"
             id="path568" /></g><g
           id="g570"
           transform="translate(420.5328,289.8713)"><path
             d="m 0,0 c 0,0 4.492,13.964 12.893,15.124 8.4,1.159 18.393,0.755 25.216,-1.74 12.293,-4.495 63.73,-58.871 63.73,-58.871 0,0 15.614,-21.131 10.444,-29.404 L 68.997,-91.283 H 32.422 c 0,0 -26.495,34.792 -25.915,35.662 C 7.087,-54.75 0,0 0,0"
             style="fill:#e1e1e1;fill-opacity:1;fill-rule:nonzero;stroke:none"
             id="path572" /></g><g
           id="g574"
           transform="translate(474.61,147.6599)"><path
             d="m 0,0 c 0,0 1.269,-87.142 4.229,-94.333 2.962,-7.191 6.769,-12.69 19.459,-15.229 12.691,-2.538 107.871,4.23 107.871,4.23 l -4.653,42.726 -67.821,6.215 c 0,0 -0.285,19.165 0.138,28.049 0.423,8.883 10.349,25.52 11.609,45.383 C 72.093,36.904 0,0 0,0"
             style="fill:#ff735d;fill-opacity:1;fill-rule:nonzero;stroke:none"
             id="path576" /></g><g
           id="g578"
           transform="translate(535.3571,92.0095)"><path
             d="m 0,0 c 0.034,-0.081 -1.225,-0.638 -3.151,-1.723 -1.928,-1.082 -4.496,-2.755 -7.039,-4.967 -2.538,-2.222 -4.541,-4.541 -5.873,-6.305 -1.336,-1.764 -2.057,-2.936 -2.133,-2.891 -0.031,0.019 0.121,0.328 0.423,0.874 0.296,0.55 0.776,1.316 1.412,2.234 1.267,1.836 3.256,4.228 5.828,6.479 2.577,2.244 5.216,3.892 7.207,4.9 0.994,0.506 1.818,0.878 2.403,1.098 C -0.342,-0.075 -0.015,0.033 0,0"
             style="fill:#1a2e35;fill-opacity:1;fill-rule:nonzero;stroke:none"
             id="path580" /></g><g
           id="g582"
           transform="translate(523.4723,66.7429)"><path
             d="m 0,0 c -0.035,0.008 0.019,0.385 0.146,1.063 0.123,0.679 0.346,1.652 0.662,2.844 0.628,2.385 1.701,5.634 3.261,9.066 1.568,3.43 3.317,6.372 4.704,8.41 0.693,1.02 1.281,1.827 1.713,2.364 0.428,0.541 0.678,0.829 0.707,0.808 0.068,-0.05 -0.811,-1.292 -2.111,-3.372 C 7.78,19.104 6.098,16.159 4.543,12.757 2.995,9.354 1.877,6.151 1.161,3.806 0.444,1.46 0.082,-0.019 0,0"
             style="fill:#1a2e35;fill-opacity:1;fill-rule:nonzero;stroke:none"
             id="path584" /></g><g
           id="g586"><g
             id="g588" /><g
             id="g600"><g
               clip-path="url(#clipPath592)"
               opacity="0.300003"
               id="g598"><g
                 transform="translate(475.0475,129.1618)"
                 id="g596"><path
                   d="M 0,0 -0.049,-0.357 C 7.237,-5.94 16.378,-8.904 25.543,-8.378 34.707,-7.853 45.064,-3.199 51.664,3.181 35.461,-1.413 16.798,-1.218 0,0"
                   style="fill:#000000;fill-opacity:1;fill-rule:nonzero;stroke:none"
                   id="path594" /></g></g></g></g><g
           id="g602"
           transform="translate(576.9957,87.3005)"><path
             d="m 0,0 2.52,-46.727 14.754,0.945 -2.802,44.456 z"
             style="fill:#e1e1e1;fill-opacity:1;fill-rule:nonzero;stroke:none"
             id="path604" /></g><g
           id="g606"
           transform="translate(437.2242,226.5856)"><path
             d="m 0,0 53.446,-25.654 43.196,19.939 c 0,0 8.079,-9.551 9.669,-13.52 1.588,-3.971 2.1,-17.523 2.1,-17.523 L 52.835,-43.979 H 4.887 l -8.686,14.729 z"
             style="fill:#ff735d;fill-opacity:1;fill-rule:nonzero;stroke:none"
             id="path608" /></g><g
           id="g610"
           transform="translate(545.0475,198.5886)"><path
             d="m 0,0 c -5.076,5.923 -73.822,-6.511 -73.822,-6.511 0,0 -68.107,-2.962 -78.259,-4.653 -10.152,-1.692 -19.653,-19.341 -19.653,-29.916 0,-10.576 9.096,-90.766 9.096,-90.766 l 57.564,5.856 c -0.423,7.614 -6.397,62.371 -6.397,62.371 0,0 52.877,-9.307 66.414,-7.614 13.537,1.692 35.957,16.92 41.034,24.112 C 1.053,-39.93 5.076,-5.922 0,0"
             style="fill:#ff735d;fill-opacity:1;fill-rule:nonzero;stroke:none"
             id="path612" /></g><g
           id="g614"
           transform="translate(437.4547,190.5026)"><path
             d="m 0,0 c 0,0 83.648,10.822 109.831,-8.969 0,0 4.892,11.282 -2.238,17.055 C 100.463,13.859 -2.94,4.987 -2.94,4.987 Z"
             style="fill:#375a64;fill-opacity:1;fill-rule:nonzero;stroke:none"
             id="path616" /></g><g
           id="g618"
           transform="translate(412.693,154.5085)"><path
             d="m 0,0 c 0.008,0.035 0.434,-0.04 1.2,-0.208 0.385,-0.078 0.852,-0.189 1.381,-0.367 0.53,-0.172 1.147,-0.336 1.792,-0.614 1.318,-0.489 2.829,-1.225 4.429,-2.177 1.58,-0.982 3.237,-2.196 4.813,-3.657 1.56,-1.482 2.877,-3.058 3.957,-4.573 1.052,-1.536 1.883,-2.997 2.454,-4.281 0.319,-0.627 0.522,-1.232 0.727,-1.75 0.211,-0.517 0.351,-0.976 0.454,-1.355 0.216,-0.754 0.318,-1.174 0.284,-1.184 -0.101,-0.032 -0.564,1.642 -1.797,4.129 -0.605,1.248 -1.458,2.667 -2.512,4.163 -1.085,1.476 -2.39,3.015 -3.923,4.471 -1.55,1.436 -3.169,2.641 -4.71,3.629 C 6.989,-2.815 5.52,-2.056 4.235,-1.53 1.675,-0.458 -0.026,-0.104 0,0"
             style="fill:#1a2e35;fill-opacity:1;fill-rule:nonzero;stroke:none"
             id="path620" /></g><g
           id="g622"
           transform="translate(413.7848,145.6198)"><path
             d="m 0,0 c 0.008,0.035 0.32,-0.005 0.88,-0.106 0.561,-0.097 1.363,-0.285 2.344,-0.558 1.961,-0.541 4.623,-1.502 7.382,-2.941 2.758,-1.447 5.066,-3.085 6.629,-4.387 0.784,-0.65 1.395,-1.201 1.794,-1.607 0.403,-0.402 0.614,-0.635 0.589,-0.662 -0.056,-0.061 -1,0.764 -2.611,1.98 -1.609,1.217 -3.918,2.786 -6.642,4.214 C 7.639,-2.645 5.033,-1.643 3.116,-1.016 1.199,-0.387 -0.018,-0.082 0,0"
             style="fill:#1a2e35;fill-opacity:1;fill-rule:nonzero;stroke:none"
             id="path624" /></g><g
           id="g626"
           transform="translate(527.8678,132.2419)"><path
             d="m 0,0 c 0.002,-0.009 -0.078,-0.033 -0.235,-0.072 -0.189,-0.043 -0.419,-0.096 -0.702,-0.161 -0.662,-0.14 -1.566,-0.33 -2.709,-0.572 -1.177,-0.252 -2.62,-0.54 -4.309,-0.795 -1.688,-0.264 -3.603,-0.622 -5.741,-0.857 -1.069,-0.133 -2.187,-0.272 -3.351,-0.417 -1.166,-0.14 -2.385,-0.223 -3.643,-0.343 -2.518,-0.261 -5.219,-0.377 -8.059,-0.537 -5.684,-0.218 -11.942,-0.225 -18.499,0.081 -13.122,0.656 -24.905,2.35 -33.38,3.777 -4.238,0.719 -7.659,1.355 -10.014,1.836 -1.144,0.236 -2.049,0.422 -2.711,0.558 -0.283,0.065 -0.514,0.116 -0.703,0.158 -0.157,0.039 -0.237,0.063 -0.235,0.072 0.002,0.008 0.085,0.002 0.246,-0.019 0.191,-0.029 0.425,-0.064 0.712,-0.107 0.666,-0.114 1.577,-0.267 2.729,-0.462 2.365,-0.42 5.793,-1 10.035,-1.672 8.483,-1.333 20.255,-2.966 33.345,-3.62 6.543,-0.307 12.786,-0.314 18.456,-0.122 2.833,0.146 5.529,0.246 8.041,0.488 1.257,0.11 2.474,0.183 3.638,0.312 1.163,0.133 2.28,0.26 3.347,0.382 2.138,0.211 4.052,0.543 5.74,0.78 1.691,0.227 3.138,0.486 4.318,0.707 1.151,0.2 2.061,0.359 2.726,0.474 0.287,0.045 0.521,0.081 0.712,0.111 C -0.085,0.002 -0.002,0.009 0,0"
             style="fill:#1a2e35;fill-opacity:1;fill-rule:nonzero;stroke:none"
             id="path628" /></g><g
           id="g630"
           transform="translate(460.1549,146.5602)"><path
             d="M 0,0 C 0.006,-0.019 -0.226,-0.104 -0.669,-0.25 -1.171,-0.407 -1.817,-0.61 -2.617,-0.861 -4.38,-1.387 -6.815,-2.113 -9.788,-2.999 l -0.191,-0.057 -0.052,0.196 c -1.361,4.994 -2.663,11.756 -4.037,19.152 -1.05,5.619 -2.088,10.854 -3.19,15.193 l -0.068,0.27 0.275,0.008 c 4.309,0.12 7.88,-0.318 10.335,-0.76 1.231,-0.222 2.186,-0.441 2.833,-0.607 0.647,-0.167 0.987,-0.273 0.982,-0.294 -0.006,-0.024 -0.357,0.038 -1.011,0.163 -0.655,0.121 -1.615,0.3 -2.845,0.483 -2.457,0.365 -6.008,0.735 -10.278,0.571 l 0.207,0.278 c 1.152,-4.345 2.222,-9.588 3.271,-15.209 1.375,-7.399 2.627,-14.154 3.905,-19.15 l -0.244,0.139 c 2.993,0.817 5.444,1.487 7.219,1.973 0.812,0.209 1.467,0.378 1.977,0.509 C -0.246,-0.03 -0.005,0.02 0,0"
             style="fill:#1a2e35;fill-opacity:1;fill-rule:nonzero;stroke:none"
             id="path632" /></g><g
           id="g634"
           transform="translate(461.6871,147.2858)"><path
             d="m 0,0 c -0.036,0.001 -0.067,0.411 -0.093,1.151 -0.033,0.851 -0.074,1.898 -0.123,3.132 -0.124,2.643 -0.409,6.286 -1.013,10.274 -0.611,3.988 -1.425,7.551 -2.094,10.11 -0.322,1.194 -0.594,2.205 -0.816,3.027 -0.196,0.714 -0.289,1.115 -0.255,1.126 0.035,0.012 0.193,-0.368 0.449,-1.064 0.26,-0.696 0.596,-1.717 0.976,-2.99 0.763,-2.543 1.64,-6.119 2.254,-10.13 C -0.106,10.624 0.122,6.951 0.152,4.295 0.168,2.967 0.151,1.893 0.11,1.15 0.073,0.408 0.035,-0.001 0,0"
             style="fill:#1a2e35;fill-opacity:1;fill-rule:nonzero;stroke:none"
             id="path636" /></g><g
           id="g638"><g
             id="g640" /><g
             id="g652"><g
               clip-path="url(#clipPath644)"
               opacity="0.300003"
               id="g650"><g
                 transform="translate(450.4606,143.6061)"
                 id="g648"><path
                   d="M 0,0 C -2.321,10.18 -3.891,19.568 -6.212,29.748 L -6.334,29.85 C -5.049,18.182 -4,6.513 -2.715,-5.155 1.688,-3.344 5.71,-0.61 9.016,2.817 6.01,1.878 3.005,0.939 0,0"
                   style="fill:#000000;fill-opacity:1;fill-rule:nonzero;stroke:none"
                   id="path646" /></g></g></g></g><g
           id="g654"
           transform="translate(423.8746,129.279)"><path
             d="m 0,0 c 0.02,0.003 0.07,-0.238 0.15,-0.698 0.083,-0.52 0.191,-1.189 0.324,-2.016 0.264,-1.821 0.63,-4.336 1.078,-7.405 L 1.58,-10.315 1.379,-10.34 c -5.139,-0.623 -12.019,-0.933 -19.535,-1.223 -5.711,-0.225 -11.042,-0.496 -15.494,-0.957 l -0.278,-0.028 0.032,0.274 c 0.505,4.28 1.456,7.75 2.248,10.116 0.397,1.184 0.753,2.098 1.009,2.715 0.26,0.616 0.414,0.936 0.435,0.928 0.022,-0.009 -0.089,-0.347 -0.308,-0.976 -0.215,-0.63 -0.531,-1.555 -0.89,-2.745 -0.717,-2.378 -1.597,-5.838 -2.052,-10.087 l -0.245,0.245 c 4.466,0.512 9.808,0.81 15.522,1.036 7.52,0.289 14.385,0.551 19.513,1.091 l -0.173,-0.22 C 0.788,-7.092 0.479,-4.569 0.257,-2.743 0.167,-1.909 0.095,-1.236 0.038,-0.714 -0.006,-0.248 -0.02,-0.002 0,0"
             style="fill:#1a2e35;fill-opacity:1;fill-rule:nonzero;stroke:none"
             id="path656" /></g><g
           id="g658"
           transform="translate(423.3785,130.8991)"><path
             d="m 0,0 c -0.006,-0.035 -0.416,-0.006 -1.152,0.076 -0.847,0.09 -1.888,0.2 -3.118,0.331 -2.631,0.26 -6.279,0.505 -10.311,0.484 -4.034,-0.027 -7.679,-0.317 -10.308,-0.609 -1.227,-0.145 -2.267,-0.268 -3.112,-0.368 -0.735,-0.091 -1.145,-0.125 -1.151,-0.09 -0.007,0.036 0.391,0.137 1.118,0.29 0.726,0.157 1.785,0.342 3.099,0.534 2.627,0.386 6.291,0.737 10.35,0.764 4.058,0.022 7.726,-0.284 10.357,-0.64 C -2.911,0.597 -1.851,0.425 -1.122,0.276 -0.394,0.132 0.006,0.036 0,0"
             style="fill:#1a2e35;fill-opacity:1;fill-rule:nonzero;stroke:none"
             id="path660" /></g><g
           id="g662"><g
             id="g664" /><g
             id="g676"><g
               clip-path="url(#clipPath668)"
               opacity="0.300003"
               id="g674"><g
                 transform="translate(425.3951,119.2585)"
                 id="g672"><path
                   d="m 0,0 c -10.408,-0.823 -24.787,-1.455 -35.195,-2.278 l 4.026,-2.661 c 11.732,-0.417 34.286,1.385 34.286,1.385 L -1.482,9.329 C -0.988,6.22 -0.494,3.11 0,0"
                   style="fill:#000000;fill-opacity:1;fill-rule:nonzero;stroke:none"
                   id="path670" /></g></g></g></g><g
           id="g678"
           transform="translate(506.2477,227.652)"><path
             d="m 0,0 c 0.027,-0.022 -0.252,-0.396 -0.781,-1.053 -0.527,-0.658 -1.316,-1.587 -2.314,-2.715 -1.995,-2.256 -4.866,-5.28 -8.246,-8.401 -3.384,-3.118 -6.629,-5.736 -9.039,-7.543 -1.206,-0.904 -2.195,-1.615 -2.893,-2.087 -0.697,-0.474 -1.091,-0.722 -1.113,-0.693 -0.021,0.029 0.333,0.333 0.992,0.856 0.74,0.588 1.674,1.33 2.788,2.215 2.346,1.877 5.542,4.528 8.913,7.635 3.366,3.108 6.266,6.079 8.327,8.266 0.971,1.04 1.787,1.911 2.432,2.601 C -0.359,-0.305 -0.027,0.023 0,0"
             style="fill:#1a2e35;fill-opacity:1;fill-rule:nonzero;stroke:none"
             id="path680" /></g><g
           id="g682"
           transform="translate(482.2789,228.3884)"><path
             d="m 0,0 c 0.068,-0.014 -0.095,-1.194 -0.461,-3.085 -0.367,-1.89 -0.952,-4.487 -1.739,-7.32 -0.789,-2.833 -1.631,-5.36 -2.293,-7.167 -0.663,-1.809 -1.134,-2.904 -1.198,-2.88 -0.072,0.025 0.277,1.164 0.849,2.998 0.571,1.834 1.354,4.367 2.14,7.188 0.784,2.822 1.423,5.395 1.882,7.261 C -0.363,-1.14 -0.073,0.015 0,0"
             style="fill:#1a2e35;fill-opacity:1;fill-rule:nonzero;stroke:none"
             id="path684" /></g><g
           id="g686"
           transform="translate(504.4147,194.4128)"><path
             d="m 0,0 -1.665,-44.709 c -0.28,-7.546 5.598,-13.895 13.143,-14.197 l 20.043,-0.8 C 38.884,-60 45.162,-54.421 45.725,-47.074 46.822,-32.75 47.809,-10.483 44.508,0 Z"
             style="fill:#375a64;fill-opacity:1;fill-rule:nonzero;stroke:none"
             id="path688" /></g><g
           id="g690"
           transform="translate(549.3463,190.5671)"><path
             d="m 0,0 c 0.004,-0.035 -0.599,-0.137 -1.694,-0.29 -1.094,-0.159 -2.685,-0.336 -4.655,-0.506 -3.938,-0.345 -9.409,-0.572 -15.443,-0.325 -6.035,0.255 -11.469,0.935 -15.365,1.605 -1.949,0.333 -3.52,0.641 -4.597,0.891 -1.078,0.243 -1.671,0.394 -1.663,0.429 0.007,0.035 0.613,-0.049 1.701,-0.231 1.088,-0.187 2.665,-0.439 4.615,-0.725 3.902,-0.576 9.319,-1.195 15.33,-1.449 6.011,-0.246 11.46,-0.078 15.395,0.172 1.969,0.123 3.561,0.243 4.66,0.34 C -0.616,0.002 -0.005,0.036 0,0"
             style="fill:#1a2e35;fill-opacity:1;fill-rule:nonzero;stroke:none"
             id="path692" /></g><g
           id="g694"
           transform="translate(549.5446,172.8854)"><path
             d="m 0,0 c 0.013,-0.033 -0.526,-0.263 -1.515,-0.649 -0.492,-0.199 -1.1,-0.427 -1.82,-0.652 -0.719,-0.228 -1.529,-0.517 -2.45,-0.749 -1.826,-0.525 -4.04,-1.01 -6.522,-1.407 -2.486,-0.365 -5.242,-0.626 -8.144,-0.67 -2.903,-0.02 -5.666,0.179 -8.16,0.49 -2.491,0.342 -4.714,0.778 -6.551,1.263 -0.927,0.211 -1.743,0.481 -2.466,0.694 -0.726,0.208 -1.338,0.424 -1.835,0.612 -0.996,0.364 -1.54,0.581 -1.528,0.615 0.012,0.034 0.579,-0.118 1.592,-0.423 0.503,-0.157 1.123,-0.344 1.852,-0.523 0.727,-0.186 1.545,-0.43 2.472,-0.618 1.836,-0.436 4.051,-0.831 6.524,-1.144 2.477,-0.282 5.216,-0.465 8.094,-0.444 2.877,0.042 5.61,0.286 8.08,0.623 2.466,0.368 4.671,0.811 6.497,1.288 0.922,0.208 1.734,0.47 2.457,0.672 0.726,0.196 1.34,0.395 1.841,0.564 C -0.576,-0.132 -0.013,0.033 0,0"
             style="fill:#1a2e35;fill-opacity:1;fill-rule:nonzero;stroke:none"
             id="path696" /></g><g
           id="g698"
           transform="translate(474.4371,204.4304)"><path
             d="m 0,0 c 0.018,-0.031 -0.377,-0.283 -1.107,-0.712 -0.727,-0.435 -1.812,-1.008 -3.179,-1.66 -2.731,-1.309 -6.659,-2.83 -11.172,-3.881 -4.518,-1.041 -8.715,-1.402 -11.743,-1.427 -1.515,-0.015 -2.741,0.022 -3.585,0.094 -0.845,0.064 -1.31,0.116 -1.307,0.151 0.002,0.037 0.47,0.053 1.314,0.051 0.842,-0.01 2.063,0.01 3.567,0.072 3.008,0.119 7.159,0.536 11.636,1.567 4.472,1.041 8.384,2.492 11.138,3.708 1.377,0.605 2.482,1.125 3.235,1.505 C -0.445,-0.16 -0.018,0.031 0,0"
             style="fill:#1a2e35;fill-opacity:1;fill-rule:nonzero;stroke:none"
             id="path700" /></g><g
           id="g702"
           transform="translate(381.7565,72.5983)"><path
             d="M 0,0 C -0.06,0.531 -1.568,14.196 -1.568,14.196 L 56.379,19.411 57.697,6.422 Z"
             style="fill:#e1e1e1;fill-opacity:1;fill-rule:nonzero;stroke:none"
             id="path704" /></g><g
           id="g706"
           transform="translate(530.7096,161.696)"><path
             d="m 0,0 -6.227,-9.535 h 4.044 l -2.739,-8.35 7.828,10.829 h -4.173 z"
             style="fill:#e1e1e1;fill-opacity:1;fill-rule:nonzero;stroke:none"
             id="path708" /></g><g
           id="g710"
           transform="translate(414.4742,254.3112)"><path
             d="m 0,0 c 0,0 -11.647,-19.545 -11.66,-31.81 l -55.134,-26.854 5.865,-16.116 c 0,0 65.482,7.801 69.936,10.181 4.453,2.382 16.119,11.953 19.409,19.432 3.29,7.478 8.515,29.801 8.515,29.801 z"
             style="fill:#ffbf9d;fill-opacity:1;fill-rule:nonzero;stroke:none"
             id="path712" /></g><g
           id="g714"
           transform="translate(417.3102,220.0729)"><path
             d="m 0,0 c -0.052,-0.07 -0.755,0.425 -1.983,1.035 -1.225,0.613 -3.01,1.284 -5.074,1.596 -2.066,0.304 -3.969,0.182 -5.319,-0.049 -1.353,-0.226 -2.17,-0.495 -2.199,-0.412 -0.022,0.052 0.759,0.447 2.127,0.773 1.363,0.329 3.333,0.517 5.468,0.203 C -4.848,2.824 -3.018,2.072 -1.81,1.36 -0.595,0.649 0.036,0.043 0,0"
             style="fill:#ff9a6c;fill-opacity:1;fill-rule:nonzero;stroke:none"
             id="path716" /></g><g
           id="g718"
           transform="translate(306.5138,202.2399)"><path
             d="m 0,0 -14.124,-15.649 42.907,-9.097 -0.735,19.328 z"
             style="fill:#375a64;fill-opacity:1;fill-rule:nonzero;stroke:none"
             id="path720" /></g><g
           id="g722"
           transform="translate(348.6393,196.8229)"><path
             d="m 0,0 c 0,0 -8.239,1.961 -12.211,1.615 -3.973,-0.345 -21.935,-4.361 -21.935,-4.361 0,0 -1.382,-3.238 3.108,-4.62 4.491,-1.382 10.536,0 10.536,0 0,0 -11.054,-8.809 -11.227,-9.5 -0.172,-0.691 -1.554,-2.245 0.173,-3.454 1.727,-1.209 6.909,0 6.909,0 0,0 0,-3.8 1.554,-4.836 1.555,-1.036 2.937,-1.901 2.937,-1.901 0,0 2.763,-2.935 4.49,-3.454 1.728,-0.518 5.182,-1.209 5.182,-1.209 h 5.181 l 13.983,11.831 12.065,2.597 -7.686,23.345 z"
             style="fill:#ff735d;fill-opacity:1;fill-rule:nonzero;stroke:none"
             id="path724" /></g><g
           id="g726"
           transform="translate(332.4547,179.0768)"><path
             d="m 0,0 c 0.061,-0.123 -1.697,-1.083 -4.043,-1.821 -2.344,-0.745 -4.333,-0.971 -4.354,-0.835 -0.027,0.147 1.891,0.597 4.197,1.332 C -1.891,-0.599 -0.063,0.137 0,0"
             style="fill:#1a2e35;fill-opacity:1;fill-rule:nonzero;stroke:none"
             id="path728" /></g><g
           id="g730"
           transform="translate(356.733,189.0729)"><path
             d="m 0,0 c 0.147,-0.005 0.169,-2.84 0.2,-6.331 0.027,-3.493 0.05,-6.327 -0.096,-6.335 -0.141,-0.007 -0.398,2.825 -0.425,6.33 C -0.352,-2.832 -0.141,0.005 0,0"
             style="fill:#1a2e35;fill-opacity:1;fill-rule:nonzero;stroke:none"
             id="path732" /></g><g
           id="g734"
           transform="translate(354.8507,199.7018)"><path
             d="m 0,0 7.393,-21.708 5.031,1.083 -8.57,22.411 z"
             style="fill:#e1e1e1;fill-opacity:1;fill-rule:nonzero;stroke:none"
             id="path736" /></g><g
           id="g738"
           transform="translate(440.2223,301.0046)"><path
             d="M 0,0 C 0,0 -16.731,-4.389 -20.023,-11.794 -23.314,-19.201 -33.6,-55.49 -33.6,-55.49 l 44.783,-15.812 c 0,0 5.767,25.777 8.236,35.651 C 21.888,-25.776 29.624,-6.857 0,0"
             style="fill:#e1e1e1;fill-opacity:1;fill-rule:nonzero;stroke:none"
             id="path740" /></g><g
           id="g742"
           transform="translate(406.6227,245.5143)"><path
             d="m 0,0 c 0.003,0.008 0.085,-0.011 0.244,-0.057 0.187,-0.057 0.416,-0.129 0.699,-0.215 0.651,-0.214 1.543,-0.507 2.674,-0.877 2.357,-0.798 5.697,-1.928 9.814,-3.321 8.311,-2.865 19.741,-6.804 32.408,-11.17 l -0.342,-0.204 c 0.043,0.264 0.089,0.55 0.136,0.836 2.204,13.413 4.198,25.553 5.65,34.39 0.742,4.365 1.346,7.911 1.772,10.412 0.215,1.196 0.383,2.14 0.508,2.827 0.058,0.297 0.106,0.538 0.144,0.733 0.036,0.165 0.059,0.249 0.067,0.247 0.009,-10e-4 0.004,-0.088 -0.014,-0.255 -0.026,-0.198 -0.056,-0.441 -0.094,-0.742 -0.101,-0.69 -0.237,-1.64 -0.411,-2.842 -0.387,-2.508 -0.935,-6.063 -1.609,-10.438 -1.413,-8.844 -3.354,-20.992 -5.5,-34.415 -0.045,-0.287 -0.092,-0.572 -0.135,-0.837 l -0.05,-0.306 -0.292,0.102 c -12.648,4.423 -24.06,8.415 -32.358,11.318 -4.093,1.457 -7.416,2.64 -9.76,3.475 C 2.434,-0.93 1.552,-0.606 0.909,-0.371 0.633,-0.264 0.408,-0.177 0.227,-0.106 0.073,-0.045 -0.003,-0.009 0,0"
             style="fill:#1a2e35;fill-opacity:1;fill-rule:nonzero;stroke:none"
             id="path744" /></g><g
           id="g746"
           transform="translate(463.0377,273.8366)"><path
             d="m 0,0 c 0.035,-0.006 0.017,-0.324 -0.048,-0.896 -0.061,-0.572 -0.186,-1.395 -0.372,-2.406 -0.369,-2.023 -1.029,-4.796 -2.03,-7.774 -1.005,-2.979 -2.155,-5.587 -3.085,-7.421 -0.464,-0.918 -0.861,-1.649 -1.158,-2.142 -0.294,-0.494 -0.472,-0.759 -0.503,-0.742 -0.071,0.038 0.491,1.176 1.329,3.042 0.839,1.865 1.927,4.474 2.924,7.429 0.992,2.955 1.703,5.69 2.163,7.683 C -0.32,-1.234 -0.079,0.012 0,0"
             style="fill:#1a2e35;fill-opacity:1;fill-rule:nonzero;stroke:none"
             id="path748" /></g><g
           id="g750"
           transform="translate(409.4401,244.4606)"><path
             d="m 0,0 c 0.013,-0.007 -0.043,-0.147 -0.162,-0.412 -0.142,-0.304 -0.32,-0.686 -0.539,-1.155 -0.469,-1.009 -1.156,-2.48 -1.925,-4.371 -1.567,-3.761 -3.273,-9.329 -3.755,-16.041 l -0.011,-0.139 -0.129,-0.064 c -3.136,-1.515 -6.559,-3.17 -10.124,-4.893 -8.521,-4.172 -16.221,-7.983 -21.835,-10.658 -2.805,-1.343 -5.085,-2.407 -6.667,-3.129 -0.755,-0.337 -1.363,-0.608 -1.829,-0.816 -0.42,-0.181 -0.645,-0.268 -0.652,-0.253 -0.008,0.017 0.201,0.136 0.607,0.348 0.456,0.23 1.049,0.53 1.787,0.903 1.611,0.801 3.85,1.914 6.592,3.278 5.619,2.786 13.29,6.59 21.768,10.795 3.561,1.74 6.991,3.389 10.143,4.87 l -0.14,-0.202 c 0.519,6.762 2.31,12.376 3.964,16.118 0.811,1.883 1.545,3.339 2.06,4.326 0.248,0.456 0.45,0.826 0.611,1.121 C -0.093,-0.121 -0.013,0.006 0,0"
             style="fill:#ff9a6c;fill-opacity:1;fill-rule:nonzero;stroke:none"
             id="path752" /></g><g
           id="g754"
           transform="translate(435.1705,267.4133)"><path
             d="m 0,0 -6.228,-9.535 h 4.045 l -2.74,-8.35 7.828,10.829 h -4.172 z"
             style="fill:#ff735d;fill-opacity:1;fill-rule:nonzero;stroke:none"
             id="path756" /></g><g
           id="g758"
           transform="translate(437.8424,243.8337)"><path
             d="m 0,0 c -0.048,-0.136 -3.763,1.029 -8.298,2.601 -4.537,1.573 -8.176,2.958 -8.129,3.093 0.047,0.136 3.762,-1.028 8.299,-2.601 C -3.593,1.521 0.047,0.136 0,0"
             style="fill:#ff735d;fill-opacity:1;fill-rule:nonzero;stroke:none"
             id="path760" /></g></g></g><path
       d="m 256.543,211.343 h -31.381 v 31.38 h 31.381 z"
       style="fill:#375a64;fill-opacity:1;fill-rule:nonzero;stroke:none"
       id="path762" /><g
       id="g764"><g
         id="g766"
         clip-path="url(#clipPath770)"><g
           id="g772"
           transform="translate(251.5529,226.9948)"><path
             d="M 0,0 C -0.068,-0.005 -0.012,0.934 -0.426,2.532 -0.835,4.1 -1.888,6.4 -4.247,8.177 c -1.169,0.867 -2.638,1.603 -4.331,1.896 -1.681,0.282 -3.576,0.225 -5.378,-0.465 -0.906,-0.316 -1.781,-0.794 -2.584,-1.397 -0.812,-0.591 -1.549,-1.323 -2.157,-2.173 -1.256,-1.673 -1.963,-3.821 -1.984,-6.036 0.02,-2.216 0.727,-4.365 1.983,-6.039 0.608,-0.85 1.345,-1.583 2.158,-2.174 0.803,-0.602 1.678,-1.081 2.584,-1.397 1.802,-0.69 3.698,-0.747 5.379,-0.464 1.692,0.293 3.162,1.029 4.33,1.896 2.359,1.777 3.412,4.077 3.821,5.645 C -0.012,-0.934 -0.068,0.005 0,0 0,0 0.131,-0.936 -0.229,-2.581 -0.586,-4.192 -1.61,-6.59 -4.023,-8.469 c -1.195,-0.918 -2.714,-1.703 -4.475,-2.028 -1.749,-0.315 -3.728,-0.271 -5.621,0.437 -0.952,0.327 -1.872,0.822 -2.717,1.45 -0.855,0.616 -1.631,1.381 -2.273,2.271 -1.324,1.752 -2.073,4.014 -2.093,6.341 0.021,2.326 0.77,4.587 2.094,6.339 0.641,0.888 1.418,1.654 2.273,2.27 0.845,0.627 1.764,1.122 2.716,1.449 1.892,0.708 3.872,0.752 5.62,0.437 1.761,-0.324 3.28,-1.11 4.475,-2.027 C -1.61,6.591 -0.586,4.193 -0.229,2.581 0.131,0.936 0,0 0,0"
             style="fill:#1a2e35;fill-opacity:1;fill-rule:nonzero;stroke:none"
             id="path774" /></g><g
           id="g776"
           transform="translate(238.7619,227.2722)"><path
             d="m 0,0 c 0,-0.936 -0.758,-1.694 -1.694,-1.694 -0.936,0 -1.695,0.758 -1.695,1.694 0,0.937 0.759,1.694 1.695,1.694 C -0.758,1.694 0,0.937 0,0"
             style="fill:#1a2e35;fill-opacity:1;fill-rule:nonzero;stroke:none"
             id="path778" /></g><g
           id="g780"
           transform="translate(246.9928,227.2722)"><path
             d="m 0,0 c 0,-0.936 -0.759,-1.694 -1.695,-1.694 -0.935,0 -1.694,0.758 -1.694,1.694 0,0.937 0.759,1.694 1.694,1.694 C -0.759,1.694 0,0.937 0,0"
             style="fill:#1a2e35;fill-opacity:1;fill-rule:nonzero;stroke:none"
             id="path782" /></g><g
           id="g784"
           transform="translate(230.6139,214.3649)"><path
             d="m 0,0 c 0,-0.816 -0.662,-1.479 -1.479,-1.479 -0.816,0 -1.479,0.663 -1.479,1.479 0,0.817 0.663,1.479 1.479,1.479 C -0.662,1.479 0,0.817 0,0"
             style="fill:#e1e1e1;fill-opacity:1;fill-rule:nonzero;stroke:none"
             id="path786" /></g><g
           id="g788"
           transform="translate(229.778,215.1081)"><path
             d="m 0,0 c 0.052,-0.139 -0.26,-0.383 -0.548,-0.736 -0.296,-0.347 -0.481,-0.698 -0.626,-0.671 -0.14,0.015 -0.163,0.539 0.226,1.004 C -0.56,0.063 -0.041,0.135 0,0"
             style="fill:#1a2e35;fill-opacity:1;fill-rule:nonzero;stroke:none"
             id="path790" /></g><g
           id="g792"
           transform="translate(229.7916,213.9372)"><path
             d="M 0,0 C -0.139,-0.051 -0.381,0.265 -0.757,0.521 -1.125,0.79 -1.502,0.913 -1.501,1.061 -1.514,1.202 -0.971,1.312 -0.457,0.946 0.06,0.584 0.137,0.035 0,0"
             style="fill:#1a2e35;fill-opacity:1;fill-rule:nonzero;stroke:none"
             id="path794" /></g><g
           id="g796"
           transform="translate(255.0724,214.3649)"><path
             d="m 0,0 c 0,-0.816 -0.662,-1.479 -1.479,-1.479 -0.816,0 -1.479,0.663 -1.479,1.479 0,0.817 0.663,1.479 1.479,1.479 C -0.662,1.479 0,0.817 0,0"
             style="fill:#e1e1e1;fill-opacity:1;fill-rule:nonzero;stroke:none"
             id="path798" /></g><g
           id="g800"
           transform="translate(254.2365,215.1081)"><path
             d="m 0,0 c 0.052,-0.139 -0.26,-0.383 -0.547,-0.736 -0.297,-0.347 -0.482,-0.698 -0.627,-0.671 -0.14,0.015 -0.162,0.539 0.227,1.004 C -0.56,0.063 -0.04,0.135 0,0"
             style="fill:#1a2e35;fill-opacity:1;fill-rule:nonzero;stroke:none"
             id="path802" /></g><g
           id="g804"
           transform="translate(254.2501,213.9372)"><path
             d="M 0,0 C -0.139,-0.051 -0.381,0.265 -0.757,0.521 -1.125,0.79 -1.502,0.913 -1.501,1.061 -1.514,1.202 -0.971,1.312 -0.457,0.946 0.06,0.584 0.137,0.035 0,0"
             style="fill:#1a2e35;fill-opacity:1;fill-rule:nonzero;stroke:none"
             id="path806" /></g><g
           id="g808"
           transform="translate(255.0724,239.7712)"><path
             d="m 0,0 c 0,-0.816 -0.662,-1.479 -1.479,-1.479 -0.816,0 -1.479,0.663 -1.479,1.479 0,0.817 0.663,1.479 1.479,1.479 C -0.662,1.479 0,0.817 0,0"
             style="fill:#e1e1e1;fill-opacity:1;fill-rule:nonzero;stroke:none"
             id="path810" /></g><g
           id="g812"
           transform="translate(254.2365,240.5134)"><path
             d="m 0,0 c 0.052,-0.138 -0.26,-0.382 -0.547,-0.736 -0.297,-0.346 -0.482,-0.698 -0.627,-0.67 -0.14,0.015 -0.162,0.539 0.227,1.004 C -0.56,0.063 -0.04,0.135 0,0"
             style="fill:#1a2e35;fill-opacity:1;fill-rule:nonzero;stroke:none"
             id="path814" /></g><g
           id="g816"
           transform="translate(254.2501,239.3434)"><path
             d="m 0,0 c -0.139,-0.051 -0.381,0.265 -0.757,0.521 -0.368,0.269 -0.745,0.392 -0.744,0.54 -0.013,0.14 0.53,0.251 1.044,-0.115 C 0.06,0.583 0.137,0.035 0,0"
             style="fill:#1a2e35;fill-opacity:1;fill-rule:nonzero;stroke:none"
             id="path818" /></g><g
           id="g820"
           transform="translate(230.6046,239.7712)"><path
             d="m 0,0 c 0,-0.816 -0.662,-1.479 -1.479,-1.479 -0.816,0 -1.479,0.663 -1.479,1.479 0,0.817 0.663,1.479 1.479,1.479 C -0.662,1.479 0,0.817 0,0"
             style="fill:#e1e1e1;fill-opacity:1;fill-rule:nonzero;stroke:none"
             id="path822" /></g><g
           id="g824"
           transform="translate(229.7682,240.5134)"><path
             d="m 0,0 c 0.053,-0.138 -0.26,-0.382 -0.547,-0.736 -0.297,-0.346 -0.481,-0.698 -0.626,-0.67 -0.14,0.015 -0.163,0.539 0.226,1.004 C -0.56,0.063 -0.04,0.135 0,0"
             style="fill:#1a2e35;fill-opacity:1;fill-rule:nonzero;stroke:none"
             id="path826" /></g><g
           id="g828"
           transform="translate(229.7824,239.3434)"><path
             d="M 0,0 C -0.139,-0.051 -0.381,0.265 -0.757,0.521 -1.125,0.79 -1.503,0.913 -1.501,1.061 -1.514,1.201 -0.972,1.312 -0.457,0.946 0.06,0.583 0.137,0.035 0,0"
             style="fill:#1a2e35;fill-opacity:1;fill-rule:nonzero;stroke:none"
             id="path830" /></g><path
           d="m 291.95,211.343 h -31.381 v 31.38 h 31.381 z"
           style="fill:#1a2e35;fill-opacity:1;fill-rule:nonzero;stroke:none"
           id="path832" /><g
           id="g834"
           transform="translate(269.2296,242.7233)"><path
             d="m 0,0 c 0.044,0.01 0.048,-0.337 0.339,-0.893 0.282,-0.556 0.842,-1.303 1.718,-2.114 1.743,-1.634 4.674,-3.528 8.45,-5.549 1.889,-1.011 3.992,-2.058 6.27,-3.138 1.144,-0.534 2.326,-1.085 3.543,-1.654 1.21,-0.564 2.51,-1.127 3.699,-1.944 2.374,-1.572 4.628,-3.868 5.608,-6.912 0.981,-2.992 0.741,-6.541 -0.984,-9.442 -1.713,-2.888 -4.635,-4.912 -7.747,-5.494 -3.126,-0.603 -6.228,0.119 -8.816,1.32 -2.622,1.209 -4.761,2.961 -6.595,4.702 -1.83,1.761 -3.373,3.547 -4.786,5.161 -2.844,3.204 -5.295,5.675 -6.909,7.453 -0.814,0.883 -1.435,1.58 -1.846,2.061 -0.186,0.222 -0.338,0.404 -0.461,0.552 -0.102,0.127 -0.15,0.195 -0.144,0.201 0.007,0.005 0.069,-0.05 0.183,-0.165 0.134,-0.139 0.298,-0.309 0.499,-0.518 0.468,-0.486 1.107,-1.151 1.916,-1.992 1.659,-1.735 4.146,-4.16 7.038,-7.349 1.431,-1.598 2.984,-3.363 4.808,-5.091 1.827,-1.71 3.94,-3.415 6.497,-4.58 2.53,-1.159 5.534,-1.839 8.518,-1.254 2.966,0.559 5.764,2.502 7.396,5.258 1.644,2.759 1.88,6.158 0.948,9.019 -0.924,2.9 -3.081,5.127 -5.39,6.671 -1.153,0.8 -2.404,1.349 -3.626,1.928 -1.214,0.577 -2.394,1.137 -3.535,1.679 -2.276,1.1 -4.375,2.168 -6.26,3.205 C 6.564,-6.81 3.643,-4.855 1.917,-3.153 1.05,-2.309 0.502,-1.523 0.244,-0.937 0.116,-0.643 0.045,-0.41 0.03,-0.244 0.001,-0.083 -0.009,-0.001 0,0"
             style="fill:#375a64;fill-opacity:1;fill-rule:nonzero;stroke:none"
             id="path836" /></g><g
           id="g838"
           transform="translate(281.6661,242.7233)"><path
             d="m 0,0 c 0.028,-0.011 -0.064,-0.352 -0.315,-0.936 -0.246,-0.585 -0.682,-1.406 -1.364,-2.325 -1.352,-1.836 -3.925,-3.931 -7.331,-4.889 -1.725,-0.421 -3.421,-0.37 -4.914,-0.175 -1.497,0.208 -2.809,0.575 -3.881,0.952 -1.071,0.382 -1.906,0.769 -2.463,1.075 -0.557,0.305 -0.845,0.507 -0.829,0.534 0.042,0.081 1.267,-0.599 3.408,-1.259 1.068,-0.328 2.364,-0.65 3.825,-0.827 1.458,-0.163 3.095,-0.194 4.726,0.204 3.259,0.919 5.789,2.89 7.169,4.613 C -0.568,-1.297 -0.096,0.048 0,0"
             style="fill:#375a64;fill-opacity:1;fill-rule:nonzero;stroke:none"
             id="path840" /></g><g
           id="g842"
           transform="translate(272.4933,228.4714)"><path
             d="m 0,0 c -0.335,0 -0.672,0.009 -1.012,0.025 -3.934,0.2 -7.934,1.812 -11.328,3.364 l 0.831,1.818 c 3.222,-1.472 7.001,-3.002 10.598,-3.184 3.828,-0.191 7.334,0.831 9.855,2.88 2.76,2.247 4.187,5.854 3.55,8.976 l 1.96,0.4 C 15.247,10.388 13.58,6.099 10.206,3.353 7.529,1.174 3.935,0 0,0"
             style="fill:#375a64;fill-opacity:1;fill-rule:nonzero;stroke:none"
             id="path844" /></g><g
           id="g846"
           transform="translate(275.0636,242.7243)"><path
             d="m 0,0 c 0,0 -0.116,-0.271 -0.446,-0.721 -0.326,-0.451 -0.885,-1.071 -1.734,-1.711 -0.847,-0.64 -1.985,-1.266 -3.265,-2.022 -1.275,-0.756 -2.676,-1.734 -3.863,-3.162 -0.593,-0.707 -1.116,-1.536 -1.442,-2.476 -0.319,-0.932 -0.412,-2.005 -0.081,-3.012 0.622,-2.058 2.844,-3.495 5.206,-3.82 2.422,-0.315 4.969,0.433 7.524,1.256 2.55,0.802 5.377,1.721 8.33,1.168 1.463,-0.297 2.805,-1.039 3.799,-2.105 1,-1.05 1.589,-2.545 1.373,-3.978 -0.186,-1.438 -1.029,-2.646 -1.988,-3.557 -0.97,-0.922 -2.083,-1.616 -3.211,-2.172 -4.53,-2.229 -9.146,-2.792 -12.906,-2.707 -3.79,0.079 -6.791,0.863 -8.784,1.528 -0.992,0.36 -1.756,0.657 -2.252,0.908 -0.503,0.235 -0.762,0.367 -0.755,0.383 0.008,0.016 0.283,-0.083 0.796,-0.286 0.508,-0.219 1.279,-0.484 2.274,-0.813 1.998,-0.6 4.982,-1.321 8.728,-1.351 3.716,-0.038 8.26,0.56 12.683,2.767 1.096,0.546 2.167,1.225 3.083,2.103 0.908,0.869 1.666,1.984 1.826,3.261 0.188,1.275 -0.328,2.593 -1.247,3.562 -0.912,0.978 -2.169,1.673 -3.519,1.946 -2.772,0.525 -5.525,-0.343 -8.076,-1.144 -2.559,-0.813 -5.178,-1.589 -7.744,-1.244 -1.268,0.183 -2.46,0.653 -3.453,1.36 -0.993,0.7 -1.77,1.692 -2.099,2.808 -0.354,1.107 -0.238,2.281 0.113,3.271 0.359,0.999 0.918,1.856 1.54,2.58 1.244,1.459 2.698,2.439 3.998,3.177 1.305,0.738 2.441,1.331 3.293,1.935 C -0.586,-1.052 -0.057,0.052 0,0"
             style="fill:#375a64;fill-opacity:1;fill-rule:nonzero;stroke:none"
             id="path848" /></g><g
           id="g850"
           transform="translate(305.7208,231.0339)"><path
             d="m 0,0 c 0.01,-0.027 -0.458,-0.226 -1.336,-0.487 -0.877,-0.265 -2.181,-0.552 -3.816,-0.712 -3.259,-0.345 -7.918,0.071 -12.57,2.006 -4.653,1.931 -8.279,4.786 -10.649,7.024 -1.191,1.124 -2.094,2.094 -2.692,2.785 -0.598,0.692 -0.903,1.096 -0.878,1.117 0.029,0.026 0.385,-0.332 1.026,-0.978 0.641,-0.648 1.579,-1.571 2.792,-2.651 2.415,-2.153 6.027,-4.918 10.6,-6.817 4.569,-1.898 9.125,-2.365 12.341,-2.119 C -1.944,-0.611 -0.027,0.109 0,0"
             style="fill:#375a64;fill-opacity:1;fill-rule:nonzero;stroke:none"
             id="path852" /></g><g
           id="g854"
           transform="translate(310.7701,235.0349)"><path
             d="m 0,0 c 0.116,-0.068 -0.581,-1.317 -1.946,-2.388 -1.359,-1.08 -2.735,-1.467 -2.775,-1.339 -0.057,0.142 1.166,0.723 2.452,1.748 C -0.974,-0.967 -0.125,0.089 0,0"
             style="fill:#ff735d;fill-opacity:1;fill-rule:nonzero;stroke:none"
             id="path856" /></g><g
           id="g858"
           transform="translate(312.6154,229.446)"><path
             d="m 0,0 c -0.097,-0.124 -1.358,0.899 -3.243,1.338 -1.878,0.471 -3.466,0.136 -3.496,0.291 -0.06,0.118 1.592,0.717 3.618,0.215 C -1.089,1.365 0.108,0.078 0,0"
             style="fill:#ff735d;fill-opacity:1;fill-rule:nonzero;stroke:none"
             id="path860" /></g><g
           id="g862"
           transform="translate(308.838,225.7575)"><path
             d="M 0,0 C -0.071,0.046 0.146,0.395 0.208,1.004 0.278,1.604 0.142,2.481 -0.377,3.248 -0.905,4.02 -1.633,4.528 -2.17,4.865 -2.711,5.202 -3.071,5.393 -3.043,5.464 -3.02,5.526 -2.611,5.458 -1.997,5.19 -1.394,4.923 -0.553,4.424 0.053,3.541 0.66,2.646 0.75,1.609 0.571,0.939 0.395,0.253 0.041,-0.04 0,0"
             style="fill:#ff735d;fill-opacity:1;fill-rule:nonzero;stroke:none"
             id="path864" /></g></g></g></g></svg>
