<?xml version="1.0" encoding="UTF-8" standalone="no"?>
<svg
        xmlns="http://www.w3.org/2000/svg"
        version="1.1"
        id="svg2"
        xml:space="preserve"
        width="4000"
        height="2666.6667"
        viewBox="0 0 4000 2666.6667"
><defs
     id="defs6" /><g
     id="g10"
     transform="matrix(1.3333333,0,0,-1.3333333,0,2666.6667)"><g
       id="g12"
       transform="scale(0.1)"><path
         d="M 0,0 H 30000 V 20000 H 0 Z"
         style="fill:#ffffff;fill-opacity:1;fill-rule:nonzero;stroke:none"
         id="path14" /><path
         d="m 3719.65,1966 c 0,0 -5168.13,7931.3 318.71,10100.5 1382.06,546.4 1864.18,8196 8003.14,4371.2 1322,-823.6 2958.8,-661.6 4716.4,-499.6 1488.3,137.2 3063.2,274.5 4606.9,-186.9 3091.7,-923.9 3162.7,-3589.2 2771.8,-4548.7 -427.1,-1048.4 1276.2,-2301.9 3020.7,-3162.8 2736.3,-1350.4 724.2,-6096.2 -1860.9,-6118.9 -2585,-22.7 -21576.75,45.2 -21576.75,45.2"
         style="fill:#ebf3fa;fill-opacity:1;fill-rule:nonzero;stroke:none"
         id="path16" /><path
         d="m 22655.1,1945.6 c 0,0 2423.9,57.7 3459.7,1526.8 1876.4,2661.4 1030.8,4995.3 -2309.8,4821.6 -1527,-79.4 -2353.1,1251 -3237.6,2581.5 -1280.1,1925.6 -2682.6,3851.3 -6509.4,1502.2 -454.9,-279.3 -1090.3,-278.3 -1784,-277.2 -1449.1,2.1 -3152.8,4.2 -3997.67,-2547.9 C 7979.24,8655.2 5748.1,8592.7 4306.16,7873 2044.3,6744.1 2683.06,1926.8 4819.85,1907.9 c 2136.79,-19 17835.25,37.7 17835.25,37.7"
         style="fill:#ebf2f9;fill-opacity:1;fill-rule:nonzero;stroke:none"
         id="path18" /><path
         d="m 10232.5,15334.9 851.9,-15.9 21,-922.9 z m -5066.49,457.9 c -10,58.9 -61.41,104.1 -123,104.1 H 4046.6 l 2044.45,1379.4 4924.55,-1483.5 z m 6128.29,-1484.7 h -116 l -26,1519.6 -5073.33,1528.3 -2176.99,-1487.8 79.49,28.7 c -68.69,0 -124.88,-56.2 -124.88,-124.9 v -728.5 c 0,-68.7 56.19,-124.9 124.88,-124.9 h 1061.54 c 68.69,0 124.89,56.2 124.89,124.9 v 291.4 h 707.7 V 1930.4 h 832.57 V 15334.9 H 10133 l 954.8,-1026.8 h -195.9 c -68.7,0 -124.9,-56.2 -124.9,-124.9 v -124.9 c 0,-68.7 56.2,-124.9 124.9,-124.9 h 402.4 c 68.7,0 124.9,56.2 124.9,124.9 v 124.9 c 0,68.7 -56.2,124.9 -124.9,124.9"
         style="fill:#d2e4ff;fill-opacity:1;fill-rule:nonzero;stroke:none"
         id="path20" /><path
         d="m 25217.5,13542.3 c -42.2,0 -77.5,-31 -84.3,-71.4 h -4012.5 l 3377.9,1017.6 1402.4,-946.2 z m -4158.4,-1029.5 18.6,644 h 580.1 z m 4886.6,1029.5 58.7,-23.5 -1497.5,1024.4 -3480,-1048.4 -17.8,-1042.4 h -79.6 c -47.1,0 -85.7,-38.5 -85.7,-85.6 v -85.7 c 0,-47.1 38.6,-85.7 85.7,-85.7 h 276 c 47.1,0 85.7,38.6 85.7,85.7 v 85.7 c 0,47.1 -38.6,85.6 -85.7,85.6 h -134.3 l 654.9,704.4 h 2349.2 V 3962 h 571.1 v 9194.8 h 485.5 v -199.9 c 0,-47.1 38.5,-85.6 85.6,-85.6 h 728.2 c 47.1,0 85.7,38.5 85.7,85.6 v 499.7 c 0,47.2 -38.6,85.7 -85.7,85.7"
         style="fill:#d2e4ff;fill-opacity:1;fill-rule:nonzero;stroke:none"
         id="path22" /><path
         d="m 14251.9,1918 h 4804.7 v 14951.4 h -4804.7 z"
         style="fill:#d2e4ff;fill-opacity:1;fill-rule:nonzero;stroke:none"
         id="path24" /><path
         d="m 14251.9,12616 h 3477.7 v 2190.38 h -3477.7 z"
         style="fill:#c0dbff;fill-opacity:1;fill-rule:nonzero;stroke:none"
         id="path26" /><path
         d="m 14251.9,8605.1 h 3477.7 v 2190.39 h -3477.7 z"
         style="fill:#c0dbff;fill-opacity:1;fill-rule:nonzero;stroke:none"
         id="path28" /><path
         d="m 14251.9,4646 h 3477.7 v 2190.4 h -3477.7 z"
         style="fill:#c0dbff;fill-opacity:1;fill-rule:nonzero;stroke:none"
         id="path30" /><path
         d="m 25046.3,4660 h -648.4 v 2025.5 h -5341.3 v 10183.9 h -1327 V 1909.6 h 1327 v 8.4 h 5341.3 648.4 v 2742"
         style="fill:#aed3ff;fill-opacity:1;fill-rule:nonzero;stroke:none"
         id="path32" /><path
         d="m 12452.1,12427.3 h -370.3 v 259.4 h 370.3 z m 0,-340 h -370.3 v 259.3 h 370.3 z m 0,-340 h -370.3 v 259.3 h 370.3 z m 0,-340 h -370.3 v 259.3 h 370.3 z m 0,-340 h -370.3 v 259.3 h 370.3 z m 0,-290.5 h -370.3 v 209.8 h 370.3 z m 0,-340 h -370.3 v 259.3 h 370.3 z m 0,-340 h -370.3 v 259.3 h 370.3 z m 0,-340 h -370.3 v 259.3 h 370.3 z m 0,-340 h -370.3 v 259.3 h 370.3 z m 0,-340 h -370.3 v 259.3 h 370.3 z m 0,-328.2 h -370.3 v 247.5 h 370.3 z m 0,-340 h -370.3 v 259.3 h 370.3 z m 0,-340 h -370.3 v 259.3 h 370.3 z m 0,-340 h -370.3 v 259.3 h 370.3 z m 0,-340 h -370.3 v 259.3 h 370.3 z m 0,-340 h -370.3 v 259.3 h 370.3 z m 0,-290.6 h -370.3 v 209.9 h 370.3 z m 0,-340 h -370.3 v 259.4 h 370.3 z m 0,-340 h -370.3 v 259.3 h 370.3 z m 0,-340 h -370.3 v 259.3 h 370.3 z m 0,-340 h -370.3 v 259.3 h 370.3 z m 0,-340 h -370.3 v 259.3 h 370.3 z m 0,-312 h -370.3 v 231.3 h 370.3 z m 0,-340 h -370.3 v 259.3 h 370.3 z m 0,-340 h -370.3 v 259.3 h 370.3 z m 0,-340.1 h -370.3 v 259.4 h 370.3 z m 0,-340 h -370.3 v 259.4 h 370.3 z m 0,-340 h -370.3 v 259.4 h 370.3 z m 0,-290.5 h -370.3 v 209.8 h 370.3 z m 0,-340 h -370.3 v 259.3 h 370.3 z m 0,-340 h -370.3 v 259.3 h 370.3 z m -1435.5,259.3 h 370.3 v -259.3 h -370.3 z m 0,340 h 370.3 v -259.3 h -370.3 z m 0,290.5 h 370.3 v -209.8 h -370.3 z m 0,340.1 h 370.3 v -259.4 h -370.3 z m 0,340 h 370.3 v -259.4 h -370.3 z m 0,340 h 370.3 v -259.4 h -370.3 z m 0,340 h 370.3 V 4066 h -370.3 z m 0,340 h 370.3 V 4406 h -370.3 z m 0,312 h 370.3 V 4746 h -370.3 z m 0,340 h 370.3 V 5058 h -370.3 z m 0,340 h 370.3 V 5398 h -370.3 z m 0,340 h 370.3 V 5738 h -370.3 z m 0,340 h 370.3 V 6078 h -370.3 z m 0,340.1 h 370.3 V 6418 h -370.3 z m 0,290.5 h 370.3 V 6758 h -370.3 z m 0,340 h 370.3 v -259.3 h -370.3 z m 0,340 h 370.3 v -259.3 h -370.3 z m 0,340 h 370.3 v -259.3 h -370.3 z m 0,340 h 370.3 v -259.3 h -370.3 z m 0,340 h 370.3 v -259.3 h -370.3 z m 0,328.2 h 370.3 v -247.5 h -370.3 z m 0,340 h 370.3 v -259.3 h -370.3 z m 0,340 h 370.3 v -259.3 h -370.3 z m 0,340 h 370.3 v -259.3 h -370.3 z m 0,340 h 370.3 v -259.3 h -370.3 z m 0,340 h 370.3 v -259.3 h -370.3 z m 0,290.5 h 370.3 v -209.8 h -370.3 z m 0,340 h 370.3 v -259.3 h -370.3 z m 0,340 h 370.3 v -259.3 h -370.3 z m 0,340 h 370.3 v -259.3 h -370.3 z m 0,340 h 370.3 v -259.3 h -370.3 z m 0,340.1 h 370.3 v -259.4 h -370.3 z m 516.5,-599.4 v 259.3 h 402.5 v -259.3 z m 0,-340 v 259.3 h 402.5 v -259.3 z m 0,-340 v 259.3 h 402.5 v -259.3 z m 0,-340 v 259.3 h 402.5 v -259.3 z m 0,-290.5 v 209.8 h 402.5 v -209.8 z m 0,-340 v 259.3 h 402.5 v -259.3 z m 0,-340 v 259.3 h 402.5 v -259.3 z m 0,-340 v 259.3 h 402.5 v -259.3 z m 0,-340 v 259.3 h 402.5 v -259.3 z m 0,-340 v 259.3 h 402.5 v -259.3 z m 0,-328.2 v 247.5 h 402.5 v -247.5 z m 0,-340 v 259.3 h 402.5 v -259.3 z m 0,-340 v 259.3 h 402.5 v -259.3 z m 0,-340 v 259.3 h 402.5 v -259.3 z m 0,-340 v 259.3 h 402.5 v -259.3 z m 0,-340 v 259.3 h 402.5 v -259.3 z m 0,-290.6 v 209.9 h 402.5 V 6758 Z m 0,-340 v 259.4 h 402.5 V 6418 Z m 0,-340 v 259.3 h 402.5 V 6078 Z m 0,-340 v 259.3 h 402.5 V 5738 Z m 0,-340 v 259.3 h 402.5 V 5398 Z m 0,-340 v 259.3 h 402.5 V 5058 Z m 0,-312 v 231.3 h 402.5 V 4746 Z m 0,-340 v 259.3 h 402.5 V 4406 Z m 0,-340 v 259.3 h 402.5 V 4066 Z m 0,-340.1 v 259.4 h 402.5 v -259.4 z m 0,-340 v 259.4 h 402.5 v -259.4 z m 0,-340 v 259.4 h 402.5 v -259.4 z m 0,-290.5 v 209.8 h 402.5 v -209.8 z m 402.5,-420.7 v -259.3 h -402.5 v 259.3 z m -402.5,80.7 v 259.3 h 402.5 v -259.3 z m 402.5,10271.3 v -259.4 h -402.5 v 259.4 z m 839.3,0 v 80.7 h -176.6 v 532.6 h -146.2 v -532.6 h -370.3 v 532.6 h -146.2 v -532.6 h -402.5 v 532.6 h -146.2 v -532.6 h -370.3 v 532.6 h -146.2 v -532.6 h -193.6 v -80.7 h 193.6 v -259.4 h -193.6 v -80.7 h 193.6 v -259.3 h -193.6 v -80.7 h 193.6 v -259.3 h -193.6 v -80.7 h 193.6 v -259.3 h -193.6 v -80.7 h 193.6 v -259.3 h -193.6 v -80.7 h 193.6 v -209.8 h -193.6 v -80.7 h 193.6 v -259.3 h -193.6 v -80.7 h 193.6 v -259.3 h -193.6 v -80.7 h 193.6 v -259.3 h -193.6 v -80.7 h 193.6 v -259.3 h -193.6 v -80.7 h 193.6 v -259.3 h -193.6 v -80.7 h 193.6 v -247.5 h -193.6 v -80.7 h 193.6 v -259.3 h -193.6 v -80.7 h 193.6 v -259.3 h -193.6 v -80.7 h 193.6 v -259.3 h -193.6 v -80.7 h 193.6 v -259.3 h -193.6 v -80.7 h 193.6 v -259.3 h -193.6 v -80.7 h 193.6 V 6758 h -193.6 v -80.6 h 193.6 V 6418 h -193.6 v -80.7 h 193.6 V 6078 h -193.6 v -80.7 h 193.6 V 5738 h -193.6 v -80.7 h 193.6 V 5398 h -193.6 v -80.7 h 193.6 V 5058 h -193.6 v -80.7 h 193.6 V 4746 h -193.6 v -80.7 h 193.6 V 4406 h -193.6 v -80.7 h 193.6 V 4066 h -193.6 v -80.7 h 193.6 v -259.4 h -193.6 v -80.6 h 193.6 v -259.4 h -193.6 v -80.6 h 193.6 v -259.4 h -193.6 v -80.7 h 193.6 v -209.8 h -193.6 v -80.7 h 193.6 v -259.3 h -193.6 v -80.7 h 193.6 v -259.3 h -193.6 v -80.7 h 2098.1 v 80.7 h -176.6 v 259.3 h 176.6 v 80.7 h -176.6 v 259.3 h 176.6 v 80.7 h -176.6 v 209.8 h 176.6 v 80.7 h -176.6 v 259.4 h 176.6 v 80.6 h -176.6 v 259.4 h 176.6 v 80.6 h -176.6 v 259.4 h 176.6 v 80.7 h -176.6 v 259.3 h 176.6 v 80.7 h -176.6 v 259.3 h 176.6 v 80.7 h -176.6 v 231.3 h 176.6 v 80.7 h -176.6 v 259.3 h 176.6 v 80.7 h -176.6 v 259.3 h 176.6 v 80.7 h -176.6 v 259.3 h 176.6 v 80.7 h -176.6 v 259.3 h 176.6 v 80.7 h -176.6 v 259.4 h 176.6 v 80.6 h -176.6 v 209.9 h 176.6 v 80.7 h -176.6 v 259.3 h 176.6 v 80.7 h -176.6 v 259.3 h 176.6 v 80.7 h -176.6 v 259.3 h 176.6 v 80.7 h -176.6 v 259.3 h 176.6 v 80.7 h -176.6 v 259.3 h 176.6 v 80.7 h -176.6 v 247.5 h 176.6 v 80.7 h -176.6 v 259.3 h 176.6 v 80.7 h -176.6 v 259.3 h 176.6 v 80.7 h -176.6 v 259.3 h 176.6 v 80.7 h -176.6 v 259.3 h 176.6 v 80.7 h -176.6 v 259.3 h 176.6 v 80.7 h -176.6 v 209.8 h 176.6 v 80.7 h -176.6 v 259.3 h 176.6 v 80.7 h -176.6 v 259.3 h 176.6 v 80.7 h -176.6 v 259.3 h 176.6 v 80.7 h -176.6 v 259.3 h 176.6 v 80.7 h -176.6 v 259.4 h 176.6"
         style="fill:#d2e4ff;fill-opacity:1;fill-rule:nonzero;stroke:none"
         id="path34" /><path
         d="m 14500.6,16693.5 h 51.7 v 920.8 h -51.7 v -920.8"
         style="fill:#d2e4ff;fill-opacity:1;fill-rule:nonzero;stroke:none"
         id="path36" /><path
         d="m 17366.5,16693.5 h 51.7 v 920.8 h -51.7 v -920.8"
         style="fill:#d2e4ff;fill-opacity:1;fill-rule:nonzero;stroke:none"
         id="path38" /><path
         d="m 14862.7,16693.5 h 51.7 v 920.8 h -51.7 v -920.8"
         style="fill:#d2e4ff;fill-opacity:1;fill-rule:nonzero;stroke:none"
         id="path40" /><path
         d="m 17625.1,17614.3 v -920.8 h 51.8 v 920.8 h -51.8"
         style="fill:#d2e4ff;fill-opacity:1;fill-rule:nonzero;stroke:none"
         id="path42" /><path
         d="m 19055.9,1960.5 c 0,0 9.9,214.1 67.3,328.9 57.4,114.8 516.7,35.9 516.7,35.9 0,0 105.9,-191.5 91.5,-363.8 l -675.5,-1"
         style="fill:#233862;fill-opacity:1;fill-rule:nonzero;stroke:none"
         id="path44" /><path
         d="m 17823.4,1960.5 c 0,0 9.8,214.1 67.3,328.9 57.4,114.8 516.7,35.9 516.7,35.9 0,0 105.8,-191.5 91.5,-363.8 l -675.5,-1"
         style="fill:#233862;fill-opacity:1;fill-rule:nonzero;stroke:none"
         id="path46" /><path
         d="m 19353.6,11045.3 c -57.4,-41.6 -576.7,-312.6 -576.7,-312.6 l -547.6,390.4 c 0,0 166.3,24.2 170.7,25.5 49.5,13.8 47.2,146.3 53.4,287.4 1,21.8 2.2,43.7 3.8,65.5 l 536.2,19.5 0.4,-6.7 c 0.5,-6.8 1,-13.9 1.5,-21.3 l 1.1,-15.3 c 0.3,-5.3 0.8,-10.6 1.2,-16.1 9.7,-124 30.4,-299.1 70,-319.6 22.5,-11.6 175.1,-9.8 286,-96.7"
         style="fill:#d9935c;fill-opacity:1;fill-rule:nonzero;stroke:none"
         id="path48" /><path
         d="m 18997.6,11461.6 c -44.3,-88.4 -142.7,-242.5 -288.8,-237.4 -139.5,4.9 -219,131.7 -255.4,211.8 1,21.8 2.2,43.7 3.8,65.5 l 536.2,19.5 0.4,-6.7 1.5,-21.3 1.1,-15.3 c 0.3,-5.3 0.8,-10.6 1.2,-16.1"
         style="fill:#cb7d45;fill-opacity:1;fill-rule:nonzero;stroke:none"
         id="path50" /><path
         d="m 18393.4,12696.9 c 0,0 258.7,257.6 563.8,-5.2 0,0 -181.4,37.7 -563.8,5.2"
         style="fill:#2b478b;fill-opacity:1;fill-rule:nonzero;stroke:none"
         id="path52" /><path
         d="m 18297.4,11749.6 c 0,0 -81.8,169.6 -132.4,367.1 -36.1,140.9 -3.1,676 534.9,639.7 0,0 155.7,-3.6 308.4,-90.9 121.4,-69.4 300.8,-225.3 149,-701.5 l -36.7,-159.8 -823.2,-54.6"
         style="fill:#b64c41;fill-opacity:1;fill-rule:nonzero;stroke:none"
         id="path54" /><path
         d="m 19050,11524.9 c -138.9,-132.8 -311.4,-309.8 -683.3,17.5 -72.7,64 -67.8,162.4 -72,303.7 -5.1,167.4 -45.4,269.8 -26.7,366.3 22.2,115.4 120.9,167.5 325.7,185.3 376,32.7 566,-52.1 540.8,-238.6 -56.4,-416.5 56.7,-499.2 -84.5,-634.2"
         style="fill:#d9935c;fill-opacity:1;fill-rule:nonzero;stroke:none"
         id="path56" /><path
         d="m 18743.6,12404.6 c 0,0 222.9,4.7 273.8,-69.9 50.9,-74.5 57.9,-157.9 83.6,-199.9 25.6,-42 21.4,-89.1 21.4,-89.1 l 49.4,332.7 -301.6,59.9 -126.6,-33.7"
         style="fill:#b64c41;fill-opacity:1;fill-rule:nonzero;stroke:none"
         id="path58" /><path
         d="m 20043.6,10569.4 c 0,0 -95.2,-280.6 -481.1,-331.9 -10.4,-1.4 -21.2,-2.6 -32,-3.7 h -1571.7 c 0,0 -2.9,0.9 -8.4,2.6 -61,19.4 -436.5,148 -476,388.6 0,0 197.4,405.4 348.1,455.7 43.9,14.7 104.8,25.7 168.7,34 65.3,8.4 134.1,14 191.8,17.7 79.5,4.9 137.8,6.2 137.8,6.2 0,0 122.4,-248.1 420.3,-244.5 297.8,3.6 366.8,240.8 366.8,240.8 0,0 83.7,-2.3 194.8,-14.4 61.2,-6.6 130.8,-16 199.3,-29.7 116.2,-23.1 229.3,-58 294,-110.6 172.3,-139.9 247.6,-410.8 247.6,-410.8"
         style="fill:#9ed9f0;fill-opacity:1;fill-rule:nonzero;stroke:none"
         id="path60" /><path
         d="m 19669.8,8399.7 c -16.8,92.9 -41.7,234.3 -61.2,358.7 0.2,1.7 58.3,702.3 79.8,820.6 21.5,118.4 -124.8,762.7 -124.8,762.7 -34,98.6 -91.7,128.7 -136,128.7 l 74.4,620.4 c -68.5,13.7 -138.1,23.1 -199.3,29.7 l -35.7,-650.1 -0.5,-9.3 c -81.5,-4.6 -183.1,-10.1 -277.7,-14.3 -94.6,-4.3 -182.3,-7.4 -236.2,-7.4 -109.7,0 -361.4,12.6 -528.6,21.8 l -0.6,9.2 -40.4,662 c -57.7,-3.7 -126.5,-9.3 -191.8,-17.7 l 71,-644.3 v -0.1 c -46.8,0 -100.6,-83.1 -108,-129.3 l -7.3,-201.6 c -35.4,-101.4 -108.7,-326.9 -120.8,-485.1 -16.1,-209.2 71.3,-936.8 71.9,-941.9 -3.2,-86.7 -9.4,-197.6 -21.2,-304.8 -65.7,-178 -345.8,-1005.5 -317.3,-2118.1 26.6,-1038.7 42.3,-2813.5 164.7,-3675.3 19.9,-139.8 42.6,-255.6 68.6,-340.3 13.1,-42.7 50,-73.7 94.3,-79.8 140.3,-19.5 456.7,-55.3 592.8,-5.8 65.3,23.8 112,386 145,853 31.7,447.7 50.7,991.8 61.3,1426 l 0.1,0.2 c 8.5,346.2 11.7,622.5 11.7,724.8 0,231.5 54.7,910.5 72.8,1309.9 0.5,11.3 17,11.4 17.7,0.2 v -0.1 c 27.5,-474.2 123.3,-1193.3 124.8,-1353 3.6,-387.6 -19,-2877.4 150.4,-2961 129.5,-64 434.7,-15.6 580.5,4.1 52.7,7.1 96,44.7 110.9,95.8 182.2,626.5 198.3,2803.3 229,4001.3 28.1,1097 -243.7,1916.9 -314.3,2110.2"
         style="fill:#2b478b;fill-opacity:1;fill-rule:nonzero;stroke:none"
         id="path62" /><path
         d="m 18242.3,7951.7 c -53.8,-43.1 -229.6,-25.1 -297.7,32.3 -68.3,57.4 -204.5,39.5 -236.8,61 -2.3,1.5 -637,753.6 -705.8,1070.1 -69.4,319.4 369.9,1198.4 494.2,1438 92.1,-194.4 398.7,-299.4 453.3,-316.7 5.5,-1.7 8.4,-2.6 8.4,-2.6 h 17 c -103.4,-279.7 -412.7,-783.1 -531.9,-972.8 -29.6,-47.2 -33.3,-106.1 -9.9,-156.7 153.1,-328.3 302.9,-605.1 368.4,-797 13.1,-21.3 41,-59.4 74.8,-54.2 46.8,7.2 197.5,39.5 272.8,-71.7 75.4,-111.3 147.1,-186.7 93.2,-229.7"
         style="fill:#d9935c;fill-opacity:1;fill-rule:nonzero;stroke:none"
         id="path64" /><path
         d="m 19208.5,12689.4 c 0,0 -41.4,56.1 -115.5,119.1 -11.7,10.1 -24.3,20.4 -37.8,30.5 -136.2,103.7 -354.3,204.9 -617.2,95.2 -71.3,-29.7 -130.5,-70 -179.7,-116.8 -11.6,-11 -22.7,-22.3 -33.1,-34 -228,-252.9 -208.6,-649.5 -208.6,-649.5 l 1315.3,14 c 4.3,367.2 -123.4,541.5 -123.4,541.5"
         style="fill:#ffa412;fill-opacity:1;fill-rule:nonzero;stroke:none"
         id="path66" /><path
         d="m 18962.4,12144 c -3.6,55.3 -28.8,509.1 130.6,664.3 -11.7,10.3 -8.9,8.5 -22.3,18.7 -170.1,-178.5 -181,-625.4 -180.3,-683.8 l -420.5,-4.5 c -12.5,322.2 -190.3,642.9 -211.6,678.7 -11.6,-11 -13.9,-13.1 -24.3,-24.8 30.9,-54.3 147,-364.9 158.1,-654.7 l -375.5,-4 c 0,0 350.3,-90.6 614.2,-87.3 263.8,3.2 701.1,101.3 701.1,101.3 l -369.5,-3.9"
         style="fill:#e27f2b;fill-opacity:1;fill-rule:nonzero;stroke:none"
         id="path68" /><path
         d="m 18292.1,10402.5 c -134.6,-258.4 -516.7,-306.8 -516.7,-306.8 123.8,301.4 -125.6,396.5 -279.9,705.1 -154.3,308.6 118.4,513.1 118.4,513.1 -168.7,-32.2 -201,-258.3 -201,-258.3 -14.3,150.7 111.3,405.4 509.6,455.7 291.7,36.8 362.1,135.1 378.8,185.1 6.6,-64.9 22.3,-115.7 65.9,-154 30.8,-27.1 60.3,-50.7 88.4,-71.3 -0.6,-11.7 -1.2,-23.4 -1.7,-35.1 -1.7,-39.7 -2.8,-78.8 -4.6,-114.6 -52.2,-62.1 -50.6,-128.2 -41.8,-169.8 5.5,-25.8 13.8,-42.2 13.8,-42.2 41.7,-58 62.9,-115.1 69.1,-172.1 18.5,-170.7 -97.4,-341.1 -198.3,-534.8"
         style="fill:#b64c41;fill-opacity:1;fill-rule:nonzero;stroke:none"
         id="path70" /><path
         d="m 19666.7,8416.6 -58.1,341.8 c -283,-105 -550.6,-150.8 -786.9,-163.4 -27.7,51.3 -78.5,88.9 -140.1,97.8 l -208.7,30.2 c -82.4,11.9 -160,-31 -196.2,-101 -200.4,31 -335.8,76.5 -378.6,92.1 l -0.1,-1.8 -20.8,-300.1 v -0.8 c 120.5,-32 236.2,-56.9 346.7,-75.9 l -6.2,-41.8 c -15.3,-103.8 56.3,-200.4 160.1,-216 l 231.3,-34.6 c 110.3,-16.6 211.2,64.9 218.1,176.3 l 4,64.3 c 441,2.3 734,95 835.5,132.9"
         style="fill:#233862;fill-opacity:1;fill-rule:nonzero;stroke:none"
         id="path72" /><path
         d="m 20512.5,9115.1 c -68.8,-316.5 -703.5,-1068.6 -705.7,-1070.1 -5.5,-3.7 -14.1,-6.2 -24.9,-8.2 l -1.2,-0.2 c -52.4,-9 -154.7,-5.3 -210.7,-52.6 -68.2,-57.4 -244.1,-75.4 -297.9,-32.3 -53.8,43 18,118.4 93.3,229.7 75.4,111.2 226.1,78.9 272.7,71.7 27.8,-4.2 51.8,20.7 66.5,41.6 l 0.9,1.2 c 2.8,4.1 5.4,8 7.4,11.4 64.2,187.7 208.8,456.4 358.2,775.1 29.9,63.7 25.5,138.4 -11.9,198.2 -99.8,159.4 -302.4,490.6 -432.7,756.4 -15.2,76.9 -30.4,149.1 -42.1,203.8 286.3,46.1 404.9,220.3 443.2,294.5 135.3,-262.5 552.7,-1108.2 484.9,-1420.2"
         style="fill:#d9935c;fill-opacity:1;fill-rule:nonzero;stroke:none"
         id="path74" /><path
         d="m 21960.8,9203.1 c 113.6,-347.8 732.8,-948.9 818.4,-1008.9 0,0 144.1,240.1 115.3,374.6 -23.6,109.8 -264.6,501.1 -347.2,693.4 -4.3,10 -8.1,19.5 -11.5,28.3 -11.3,29.5 -17.3,52.4 -15.9,65.9 4.1,41.8 135.4,143.4 288,263.9 198.4,156.8 432.7,345.3 470.8,475.7 67.2,230.5 300.1,1143.2 300.1,1143.2 0,0 -578.7,-125.1 -742,-269.2 -163.2,-144.1 -864.4,-1344.7 -893.2,-1652 -3.2,-33.5 3.2,-72.3 17.2,-114.9"
         style="fill:#ffa412;fill-opacity:1;fill-rule:nonzero;stroke:none"
         id="path76" /><path
         d="m 21960.8,9203.1 c 113.6,-347.8 732.8,-948.9 818.4,-1008.9 0,0 144.1,240.1 115.3,374.6 -24.8,115.5 -290.3,542.5 -358.7,721.7 -102.9,17.9 -344.4,39.8 -575,-87.4"
         style="fill:#d9935c;fill-opacity:1;fill-rule:nonzero;stroke:none"
         id="path78" /><path
         d="m 23578.6,11319.4 0.4,-70.9 c 0,0 -19.3,-221.6 253.7,-254 272.9,-32.5 478.5,66.6 471.1,237.6 -24.6,132.5 -50.4,243.3 -52.2,352.9 -0.7,40.7 2.1,83.9 9.7,132.7 l -528.9,10.6 -155.8,-25.4 2,-383.5"
         style="fill:#d9935c;fill-opacity:1;fill-rule:nonzero;stroke:none"
         id="path80" /><path
         d="m 23576.6,11702.9 2,-383.5 c 56.2,-26.1 119.6,-42 190.7,-42 243.1,0 400.2,178.2 482.3,307.6 -0.7,40.7 2.1,83.9 9.7,132.7 l -528.9,10.6 -155.8,-25.4"
         style="fill:#cb7d45;fill-opacity:1;fill-rule:nonzero;stroke:none"
         id="path82" /><path
         d="m 24044.8,1919.9 c 0,0 25.7,200 85.2,318.9 59.4,118.9 437.8,43.2 437.8,43.2 0,0 75.7,-64.8 91.9,-367.5 l -614.9,5.4"
         style="fill:#233862;fill-opacity:1;fill-rule:nonzero;stroke:none"
         id="path84" /><path
         d="m 22755.8,1920.5 c 88.9,54.3 38.3,459.1 38.3,459.1 0,0 -414.3,331.4 -471.3,77.7 -56.9,-253.7 -393.5,-367.7 -585.1,-398.8 -132.3,-21.4 -173.2,-94.6 -185.9,-138 h 1204"
         style="fill:#233862;fill-opacity:1;fill-rule:nonzero;stroke:none"
         id="path86" /><path
         d="m 23613.8,4909.9 c -16.8,-92.9 -27.5,-169.1 -30.4,-223.8 -38.5,-751.2 -632.3,-2468.7 -738.5,-2508.8 -164.3,-62 -423.1,69.8 -558.5,113 -56.1,17.9 -94,74.5 -81.5,131.9 294,1351.9 402.1,3298.5 441.4,4451.1 19.9,580.4 119.5,981.5 119.5,981.5 0,0 1448.3,386.4 1456.9,-102.4 7.6,-432.6 -479.7,-2129 -608.9,-2842.5"
         style="fill:#2b478b;fill-opacity:1;fill-rule:nonzero;stroke:none"
         id="path88" /><path
         d="m 23613.8,4909.9 -967.5,1963.4 c 19.9,580.4 119.5,981.5 119.5,981.5 0,0 1448.3,386.4 1456.9,-102.4 7.6,-432.6 -479.7,-2129 -608.9,-2842.5"
         style="fill:#233862;fill-opacity:1;fill-rule:nonzero;stroke:none"
         id="path90" /><path
         d="m 23291.6,7750.6 765.6,-5548.9 c 0,0 336.2,-81.1 597.7,-16.2 0,0 224.2,2951.2 205.5,3664.6 -18.7,713.5 160.9,1909.2 -41,2041 -201.8,131.9 -1527.8,-140.5 -1527.8,-140.5"
         style="fill:#2b478b;fill-opacity:1;fill-rule:nonzero;stroke:none"
         id="path92" /><path
         d="m 22724.2,7740.4 c 0,0 391.2,-228.1 957.9,-221.7 220.9,2.5 413.1,19 576.2,43.3 454.5,67.4 683.8,194.3 682,241.6 -1.5,42.6 -4.5,184.3 -9.9,245.2 -72.2,832.9 -34.9,1480.8 -132.1,1967.5 -1.1,5.8 -2.3,11.7 -3.5,17.4 -128.6,618.8 -330.2,974.2 -430.3,1120.1 -36.6,53.1 -59.6,78.3 -60.7,78.3 0,-115.4 -245.9,-215.1 -446.4,-202.1 -168.8,11.1 -278.4,139.5 -278.4,209 l -0.2,0.2 c -13.8,0 -761.7,-519.8 -762.3,-1002.8 -2.6,-2164.7 -133.8,-2496.8 -92.3,-2496"
         style="fill:#ffa412;fill-opacity:1;fill-rule:nonzero;stroke:none"
         id="path94" /><path
         d="m 24257.2,7569.1 c 0.4,-2.4 0.7,-4.8 1.1,-7.1 454.5,67.4 683.8,194.3 682,241.6 -1.5,42.6 -4.5,184.3 -9.9,245.2 -72.2,832.9 -34.9,1480.8 -132.1,1967.5 -238.6,-318.9 -729,-1154.1 -541.1,-2447.2"
         style="fill:#e27f2b;fill-opacity:1;fill-rule:nonzero;stroke:none"
         id="path96" /><path
         d="m 23012.2,8604.5 61.1,-203.2 60.7,-201.7 2636.5,793 c 3.8,-0.2 7.4,0.2 10.9,1.3 3.6,1 7,2.8 10.2,5 33.2,23.5 39.2,109.7 13.7,206.8 -1.4,5.3 -2.9,10.7 -4.5,16.2 -30.8,104.4 -86.9,181.6 -130,182.3 -3.5,0.1 -6.9,-0.4 -10.3,-1.3 -3.4,-1.1 -6.6,-2.6 -9.7,-4.8 l -2638.6,-793.6"
         style="fill:#e9f3fe;fill-opacity:1;fill-rule:nonzero;stroke:none"
         id="path98" /><path
         d="m 23073.3,8401.3 60.7,-201.7 2636.5,793 c 3.8,-0.2 7.4,0.2 10.9,1.3 3.6,1 7,2.8 10.2,5 33.2,23.5 39.2,109.7 13.7,206.8 -107.8,-80.9 -622.5,-438.7 -1501,-612.7 -908.2,-179.9 -1189.2,-191.2 -1231,-191.7"
         style="fill:#bed4f4;fill-opacity:1;fill-rule:nonzero;stroke:none"
         id="path100" /><path
         d="m 23007.2,8605.7 c 44,13 106.8,-68 140.2,-181 33.4,-112.9 24.7,-215 -19.4,-228.1 -44.1,-13 -106.9,68 -140.3,181 -33.3,112.9 -24.6,215.1 19.5,228.1"
         style="fill:#afcdfb;fill-opacity:1;fill-rule:nonzero;stroke:none"
         id="path102" /><path
         d="m 25631.7,9472.6 310.9,50.4 c 3.3,1.7 6.6,2.8 10.2,3.4 3.5,0.5 6.8,0.6 10.3,0 42.7,-6.3 88.1,-90.2 105,-197.8 0.9,-5.6 1.7,-11.1 2.4,-16.7 6,-47.6 5.2,-91.7 -1.2,-126.9 -6.9,-37.8 -20.2,-65.3 -38.5,-75.5 l -1,-0.7 c -3.5,-1.8 -7,-3.1 -10.8,-3.7 -3.5,-0.5 -7.2,-0.4 -10.9,0.2 l -2717.7,-440.9 -33.7,207.8 -33.9,209.5 2408.9,390.9"
         style="fill:#e9f3fe;fill-opacity:1;fill-rule:nonzero;stroke:none"
         id="path104" /><path
         d="m 24502.1,8901.1 c 581.3,37.4 889.4,344.7 1129.6,571.5 l 310.9,50.4 c 3.3,1.7 6.6,2.8 10.2,3.4 3.5,0.5 6.8,0.6 10.3,0 42.7,-6.3 88.1,-90.2 105,-197.8 0.9,-5.6 1.7,-11.1 2.4,-16.7 6,-47.6 5.2,-91.7 -1.2,-126.9 -14.6,-41.3 -29.5,-69.4 -38.5,-75.5 l -1,-0.7 c -3.5,-1.8 -7,-3.1 -10.8,-3.7 -3.5,-0.5 -7.2,-0.4 -10.9,0.2 l -2717.7,-440.9 -33.7,207.8 c 41.5,-4.9 321.5,-30.5 1245.4,28.9"
         style="fill:#bed4f4;fill-opacity:1;fill-rule:nonzero;stroke:none"
         id="path106" /><path
         d="m 23217.9,9083.6 c 45.4,7.1 97,-81.4 115.3,-197.8 18.3,-116.3 -3.7,-216.4 -49.1,-223.6 -45.5,-7.1 -97.1,81.4 -115.4,197.8 -18.3,116.3 3.7,216.4 49.2,223.6"
         style="fill:#afcdfb;fill-opacity:1;fill-rule:nonzero;stroke:none"
         id="path108" /><path
         d="m 24184.7,8283.8 c 630.3,100.3 1047,364.4 1218.1,492.2 58.4,43.6 88.1,71.3 88.1,71.3 323,679.1 -261.3,1869.7 -368.1,2071.5 -115.3,217.7 -819,313.3 -819,313.3 0,0 112.4,-330.6 156.2,-761.5 43.9,-431 512.3,-1271 493.1,-1341.5 -4.8,-17.8 -61.4,-55.1 -143.9,-102.1 -244.6,-139.3 -717.4,-363.9 -746.1,-416.6 -38.4,-70.4 121.6,-326.6 121.6,-326.6"
         style="fill:#d9935c;fill-opacity:1;fill-rule:nonzero;stroke:none"
         id="path110" /><path
         d="m 24063,8610.4 c 0,0 -352.1,140.9 -438.6,83.3 -86.4,-57.7 -230.5,-144.1 -230.5,-201.7 0,-57.7 182.5,-211.3 336.2,-259.4 153.7,-48 454.6,51.3 454.6,51.3 l -121.7,326.5"
         style="fill:#d9935c;fill-opacity:1;fill-rule:nonzero;stroke:none"
         id="path112" /><path
         d="m 24460,10470.6 c 43.9,-431 512.3,-1271 493.1,-1341.5 -4.8,-17.8 -61.4,-55.1 -143.9,-102.1 5.2,-0.4 10.4,-0.5 15.8,-0.3 368.5,16.2 535.2,-187.6 577.8,-250.7 58.4,43.6 88.1,71.3 88.1,71.3 323,679.1 -261.3,1869.7 -368.1,2071.5 -115.3,217.7 -819,313.3 -819,313.3 0,0 112.4,-330.6 156.2,-761.5"
         style="fill:#ffa412;fill-opacity:1;fill-rule:nonzero;stroke:none"
         id="path114" /><path
         d="m 23545.7,11516.5 c 0,0 677.5,-136.8 756.2,286.4 78.7,423.2 219.2,690.5 -210,795.8 -429.2,105.2 -543.5,-40.6 -604.2,-175.4 -60.6,-134.9 -116.2,-860.3 58,-906.8"
         style="fill:#d9935c;fill-opacity:1;fill-rule:nonzero;stroke:none"
         id="path116" /><path
         d="m 24288.3,11680.9 c 0,0 131,279.5 240.2,403.6 109.3,124.1 49.7,744.7 -421.9,724.8 -471.7,-19.9 -640.5,-357.4 -645.4,-422 -5,-64.5 377.3,-14.9 481.5,-99.3 104.3,-84.4 5,-223.4 124.1,-273 119.2,-49.7 213.5,-49.7 193.6,-158.9 -19.8,-109.2 27.9,-175.2 27.9,-175.2"
         style="fill:#233862;fill-opacity:1;fill-rule:nonzero;stroke:none"
         id="path118" /><path
         d="m 24142.8,13097.5 c 134.9,-33.9 236.2,-88.1 311.8,-153.3 7.5,-6.4 14.8,-13.1 21.8,-19.8 l 0.1,-0.1 c 279.7,-266.7 168.1,-691.3 168.1,-691.3 0,0 -37.3,-107.2 -62.9,-148.8 -25.6,-41.7 -397,6.4 -416.2,86.4 -19.2,80.1 -92.8,163.3 -92.8,163.3 0,0 -391.5,26.9 -417.9,28.8 -88.4,6.4 -340.8,94.2 -340.8,94.2 2.9,24.8 144.9,812.3 828.8,640.6"
         style="fill:#ffa412;fill-opacity:1;fill-rule:nonzero;stroke:none"
         id="path120" /><path
         d="m 23082.1,12540.1 c 47,11.5 127,24.3 259,29.1 0,0 110.8,-91.8 331.1,-161.7 103.5,130.4 398.4,444.8 782.4,536.7 1.1,0.3 2.2,0.6 3.3,0.8 8.2,-10.2 12.8,-13.7 18.5,-20.6 l 0.1,-0.1 c 1.7,-2 3.5,-4.4 5.5,-7.4 -312.6,-54.5 -609.7,-405.5 -711.7,-537 87.6,-21.5 188.2,-38.5 302.4,-46 0,0 -684.3,-12.8 -997,151.9 -23.8,12.5 -19.8,47.9 6.4,54.3"
         style="fill:#e27f2b;fill-opacity:1;fill-rule:nonzero;stroke:none"
         id="path122" /><path
         d="m 22385.4,9433.2 c 12.7,-71.8 51.4,-147.4 161.9,-171 -4.3,10 -8.1,19.5 -11.5,28.3 -11.3,29.5 -17.3,52.4 -15.9,65.9 4.1,41.8 135.4,143.4 288,263.9 12.6,68.4 43.3,271.4 0.1,432.5 -52.8,196.8 -437,-537.9 -422.6,-619.6"
         style="fill:#e27f2b;fill-opacity:1;fill-rule:nonzero;stroke:none"
         id="path124" /><path
         d="m 24882.7,9075.4 c 0,0 470.6,38.5 624.3,-235.3 0,0 -13.2,-92.3 -104.2,-64.1 0,0 -398.2,272.1 -593.6,251 0,0 30.2,47.6 73.5,48.4"
         style="fill:#e27f2b;fill-opacity:1;fill-rule:nonzero;stroke:none"
         id="path126" /><path
         d="m 22547.3,9262.2 c 0,0 -244.1,-10.3 -551.5,-144.1 0,0 -68.2,67 -41,105.4 27.2,38.5 459.9,176.6 592.5,38.7"
         style="fill:#e27f2b;fill-opacity:1;fill-rule:nonzero;stroke:none"
         id="path128" /><path
         d="m 12337.4,8764.1 c 110.4,-25.5 608.9,-31.6 959,47.1 73,16.4 139.6,36.4 194.8,60.8 66,29 115.7,64.2 141,106.5 39.6,65.9 112,291.5 197.1,587.4 234.4,815.1 564.3,2162 564.3,2162 0,0 -662.4,-135.2 -802.6,-250.6 -140.2,-115.4 -253.3,-1960.9 -385.1,-2010.4 -19.5,-7.3 -61,-18.8 -103.9,-39.9 -2.1,-1 0,0 -2.1,-1 -25.6,-12.6 -37.7,-21 -68.8,-37.1 -273.5,-140.5 -749.8,-391.2 -796.7,-447.5 -61.9,-74.3 -57.8,-140.2 103,-177.3"
         style="fill:#739af0;fill-opacity:1;fill-rule:nonzero;stroke:none"
         id="path130" /><path
         d="m 13608.5,10685.6 c 0,31.1 3.1,62.3 8.8,93.6 85.2,468.7 763,948.7 776.3,948.7 l 0.2,-9.8 c 0,-71.6 112.9,-203.8 286.8,-215.2 206.4,-13.5 461,104.2 461,223.1 1.3,0 116,-15.5 154.8,-19.9 165.4,-18.8 495.4,-108.1 636.9,-215 134.4,-101.5 -55.6,-741.9 -173.2,-1195.4 -49.9,-191.9 -86.6,-350.2 -80.6,-420.4 3,-34.2 33.8,-499.7 61.3,-920.8 22.7,-347.4 43.3,-664.4 43.9,-684.3 1.5,-39.5 -194.7,-177.7 -524.1,-282.1 -79.6,-25.2 -167,-48.5 -261.3,-67.8 -169.1,-34.7 -360.4,-57.1 -568.4,-56.4 -68.1,0.3 -132.5,3.7 -193.4,9.8 -470.5,46.1 -631.7,582.4 -629,2811.9"
         style="fill:#739af0;fill-opacity:1;fill-rule:nonzero;stroke:none"
         id="path132" /><path
         d="m 15141.5,11731.5 c 3.9,182 0.9,399.4 -23.6,583.1 l -726.7,-118.8 c 0,0 -0.8,-221.8 2.4,-467.9 -0.4,-0.1 -19.7,-228.2 261.4,-261.6 281.1,-33.4 494.1,89 486.5,265.2"
         style="fill:#d9935c;fill-opacity:1;fill-rule:nonzero;stroke:none"
         id="path134" /><path
         d="m 15199.2,9275.4 c 0,-696.9 337.7,-509.1 541.6,-320.9 -27.5,421.1 -46.8,1912.6 -46.8,1912.6 0,0 -494.8,-593.8 -494.8,-1591.7"
         style="fill:#4a75cb;fill-opacity:1;fill-rule:nonzero;stroke:none"
         id="path136" /><path
         d="m 13009.7,9382.9 c 13.5,-97.8 89.5,-395.1 210.6,-593 73,16.3 215.7,57.7 270.9,82.1 66,29 115.7,64.2 141,106.5 39.6,65.9 112,291.5 197.1,587.4 -63,364.2 -122.8,723.8 -122.8,723.8 l -18.6,241.2 c 0,-18.5 -282.4,-1078.3 -410.3,-1103 -77.1,-15 -119.8,-2.6 -166.3,4.1 -2.1,-1 -4.2,-2.1 -6.3,-3.1 -25.6,-12.6 -64.1,-29.9 -95.3,-46"
         style="fill:#4a75cb;fill-opacity:1;fill-rule:nonzero;stroke:none"
         id="path138" /><path
         d="m 15210.7,12524.1 c 0,0 485,764.8 -446.4,815.4 0,0 -349.3,-41.1 -428.4,38 0,0 -271,-411.9 -17.9,-853.4 253,-441.5 892.7,0 892.7,0"
         style="fill:#233862;fill-opacity:1;fill-rule:nonzero;stroke:none"
         id="path140" /><path
         d="m 14412.8,12125 c 70.6,-55.6 277.6,-110.7 337.5,-117.2 0,0 306.9,68.5 362.7,102.1 86.5,52.4 80.9,158.5 85.3,305.9 5.3,174.5 22.9,311.5 3.4,412.1 -23.1,120.3 -99.4,188.8 -313,207.4 -392.1,34 -555.5,-64.2 -562.3,-195.6 -1.8,-35.3 -3.5,-69 -4.6,-100.9 -15.7,-410 16.7,-555.4 91,-613.8"
         style="fill:#d9935c;fill-opacity:1;fill-rule:nonzero;stroke:none"
         id="path142" /><path
         d="m 14318.3,12604.4 c 3.8,-237.5 67.8,-378.1 114.2,-395.8 53.5,-20.5 116.3,-37.4 181.9,-48.6 22.1,-2.6 43.3,-1.9 43,10.6 -0.7,37.5 -50.8,83.7 -13.6,116.9 39.1,34.8 248.5,46.5 265.3,-29.4 8.3,-37.1 -59.3,-102.4 -13,-103.9 14.1,2.4 27.8,5.1 41,8.5 76.3,19.9 136.1,56 161.3,71.2 86.5,52.4 80.8,132.7 99.9,278.9 12.4,94.6 12.4,43.4 0,-97 -12.9,-146.9 12.4,-241.2 -85.3,-305.9 -54.3,-35.9 -367.3,-176.5 -367.3,-176.5 4.6,74.4 -262.3,136 -332.9,191.6 -65.6,51.5 -98.5,170.7 -94.5,479.4"
         style="fill:#233862;fill-opacity:1;fill-rule:nonzero;stroke:none"
         id="path144" /><path
         d="m 15784.6,8270.2 c 1.5,-39.5 -194.7,-177.7 -524.1,-282.1 -26.5,-8.5 -54,-16.6 -82.3,-24.4 l -0.6,-0.8 c -30.8,-360.6 -114,-869.9 -189,-1361.5 v -0.1 c -19.4,-127.4 -38.2,-253.6 -55.5,-375.7 -45.8,-323.1 -80.1,-617.5 -83.8,-829.4 v -2.3 c -1.6,-97.2 80.4,-339.8 86.6,-395.8 3.8,-34.3 6.9,-70.5 9.2,-108.5 8.9,-151.8 5.3,-331.1 -7,-522.6 -53.8,-835.8 -274.6,-1905.1 -353.4,-1950.6 -156.6,-90.5 -441.6,0.1 -586.5,21.3 -60,8.9 -108,60 -104.9,120.5 70.8,1386.9 -132.5,3318.6 -284.4,4506 -3.9,30.9 -7.9,61.2 -11.7,91 -18.2,140.1 -30.2,270.8 -37.7,388.7 -7,103.4 -10.3,197.3 -11.8,278.7 -0.4,25.4 -0.6,49.6 -0.7,72.5 -0.4,74.3 58.7,561 61.4,2790.5 0.1,51.5 42.3,93.6 93.8,93.6 h 1363.4 c 131.7,0 237.7,-107.8 236.1,-239.5 -2.1,-170.1 4,-407.6 40.9,-634.2 50.3,-309.6 158.1,-598.7 380.5,-668.4 l 0.6,-0.4 c 1,-2.2 7.1,-15.8 16.8,-38.3 l 0.1,-0.4 c 2.1,-56 4.4,-112.9 7,-171 0.5,-11.6 1,-23.4 1.7,-35.1 0.2,-7 0.6,-13.8 0.9,-20.7 0.5,-11.8 1.2,-23.6 1.8,-35.5 0.8,-19.5 1.8,-39.2 2.9,-59.1 0.9,-15.6 1.8,-31.2 2.6,-46.9 1.7,-30.2 3.5,-60.8 5.5,-91.6 0.5,-9.9 1.1,-19.6 1.8,-29.6 2.6,-39.9 5.4,-80.3 8.5,-121 0.8,-12.5 1.8,-25 2.8,-37.6 0.4,-6.1 0.9,-12.2 1.4,-18.2 1.2,-16 2.4,-31.9 3.8,-48 1.3,-17 2.8,-34 4.3,-51.2 5.5,-62.6 -2.6,-118.4 -1,-162.3"
         style="fill:#2b478b;fill-opacity:1;fill-rule:nonzero;stroke:none"
         id="path146" /><path
         d="m 14938.1,4367 c -53.8,-835.8 -274.6,-1905.1 -353.4,-1950.6 -156.6,-90.5 -441.6,0.1 -586.5,21.3 -60,8.9 -108,60 -104.9,120.5 70.8,1386.9 -132.5,3318.6 -284.4,4506 -3.9,30.9 -7.9,61.2 -11.7,91 -18.2,140.1 -30.2,270.8 -37.7,388.7 72.2,470.8 479.9,496.1 849.7,-477.9 -45.8,-323.1 541.2,-2507.5 528.9,-2699"
         style="fill:#233862;fill-opacity:1;fill-rule:nonzero;stroke:none"
         id="path148" /><path
         d="m 15799.9,5435.5 c 11.2,-96.6 124.3,-326.4 137.9,-381.1 186.9,-751.7 83.6,-2534.2 -9,-2605.4 -143.4,-110.4 -437.9,-57.9 -584.2,-56 -60.7,0.9 -115,45.3 -119.8,105.6 -115,1420.2 -591.2,3370.9 -897.5,4518.4 -154.3,578 -176.1,1003 -176.1,1003 0,0 1431.5,877 1586.3,397.9 137,-424 -23.9,-2240.6 62.4,-2982.4"
         style="fill:#2b478b;fill-opacity:1;fill-rule:nonzero;stroke:none"
         id="path150" /><path
         d="m 14342,13553.4 c 9.8,11.1 20.3,21.8 31.4,32.3 46.6,44.3 102.9,82.6 170.5,110.8 249.6,104.1 456.6,8 585.9,-90.4 12.8,-9.6 24.8,-19.3 35.9,-28.9 70.3,-59.8 109.6,-113.1 109.6,-113.1 0,0 121.2,-165.4 117.2,-514 l -1248.6,-13.3 c 0,0 -18.3,376.5 198.1,616.6"
         style="fill:#ffa412;fill-opacity:1;fill-rule:nonzero;stroke:none"
         id="path152" /><path
         d="m 15042.1,12946.5 -68.6,-0.7 c -1.4,19.8 2,473 171,648.9 12.7,-9.6 10.1,-7.9 21.2,-17.5 -160.5,-154.9 -123.9,-626 -123.6,-630.7"
         style="fill:#e27f2b;fill-opacity:1;fill-rule:nonzero;stroke:none"
         id="path154" /><path
         d="m 14499.5,12940.6 c -14.2,277.4 -120.5,569 -149.2,620.8 9.9,11.4 12,13.5 23.1,24.3 19.8,-34.3 182.7,-336.2 199.9,-644.3 l 819.2,8.7 c 0,0 -415.1,-93 -665.6,-96.2 -250.5,-3.1 -583,82.9 -583,82.9 l 355.6,3.8"
         style="fill:#e27f2b;fill-opacity:1;fill-rule:nonzero;stroke:none"
         id="path156" /><path
         d="m 15345.5,11699.5 c 0,0 -421.9,-491.5 -446.7,-920.3 l 215,-11.4 c 0,0 54.1,477.6 371.6,902.3 0,0 -49.7,12.1 -66.2,15.3 -22.1,4.4 -73.7,14.1 -73.7,14.1"
         style="fill:#2b478b;fill-opacity:1;fill-rule:nonzero;stroke:none"
         id="path158" /><path
         d="m 14293.6,11706.3 c -302.2,-457.4 -334.6,-936.4 -334.6,-936.4 l -216.9,3.8 c 17.8,337 229.6,707.8 346.5,883.5 0,0 150.1,37.9 205,49.1"
         style="fill:#2b478b;fill-opacity:1;fill-rule:nonzero;stroke:none"
         id="path160" /><path
         d="m 15683.1,9061.2 c -10.6,-503.2 52.1,-1505.3 52.1,-1505.3 h 296.9 c 140.1,705.1 189.6,1158.7 189.6,1406.1 0,48.8 -0.2,94.2 -0.6,136.1 -1.9,211.3 -7.5,334 -7.5,334 55.6,1280.2 -200.1,1964.8 -280.3,2059 -80.5,94.3 -447.9,179 -447.9,179 0,0 -121.3,-353.6 -170.8,-638.2 -49.5,-284.5 389.2,-1479.9 371.1,-1888.5 -1.1,-25.5 -1.9,-53 -2.6,-82.2"
         style="fill:#739af0;fill-opacity:1;fill-rule:nonzero;stroke:none"
         id="path162" /><path
         d="m 11268.4,8916.1 c 63.5,-89.8 103.8,-137.8 190,-161.3 125.4,-34.1 236.9,27.9 319.6,75.5 63.2,36.4 142.1,39.4 175.8,38.8 194.2,-47.4 394.3,-227.2 1266.5,-79.2 105.3,125.8 38.1,372.6 -189.2,599 -364.7,-96.4 -1006.5,-218 -1121.3,-292.5 0,0 -146.7,42.2 -237.8,17.9 -34.5,-9.2 -73.1,-34.3 -107.7,-61.8 -54.5,-43.3 -128.5,-46.8 -193.2,-7.8 -62.1,37.4 -128.7,46.2 -152,37.8 -35.9,-13.1 9.4,-109.8 49.3,-166.4"
         style="fill:#d9935c;fill-opacity:1;fill-rule:nonzero;stroke:none"
         id="path164" /><path
         d="m 15217.5,7912.5 -925.1,74.7 c -44.8,3.6 -70.1,-50.2 -38.7,-82.4 l 648.7,-663.8 c 23.7,-24.3 64.3,-17.4 78.7,13.3 l 126.6,269.8 303.3,-142.4 23.3,49.7 -303.3,142.3 126.6,269.8 c 14.4,30.7 -6.3,66.3 -40.1,69"
         style="fill:#739af0;fill-opacity:1;fill-rule:nonzero;stroke:none"
         id="path166" /><path
         d="M 11051.7,9089.9 12264.1,8687 c 41.1,-13.7 85.5,8.5 99.1,49.6 l 102.8,309.1 c 13.6,41.1 -8.6,85.4 -49.7,99.1 l -1212.5,402.9 c -41,13.7 -85.4,-8.5 -99,-49.6 L 11002,9189 c -13.6,-41.1 8.6,-85.4 49.7,-99.1"
         style="fill:#b84c42;fill-opacity:1;fill-rule:nonzero;stroke:none"
         id="path168" /><path
         d="m 16236.3,7051.6 v 0 c -15.5,-35.8 -57.1,-52.4 -93,-36.9 l -721,311.5 c -35.9,15.6 -52.4,57.2 -36.9,93.1 15.5,35.9 57.1,52.4 93,36.9 l 721,-311.5 c 35.9,-15.5 52.4,-57.2 36.9,-93.1"
         style="fill:#ffa412;fill-opacity:1;fill-rule:nonzero;stroke:none"
         id="path170" /><path
         d="m 15735.2,7555.9 c 0,0 -62.7,1002.1 -52.1,1505.3 237.4,76.6 428.9,59.8 538,36.9 0.4,-41.9 0.6,-87.3 0.6,-136.1 0,-247.4 -49.5,-701 -189.6,-1406.1 61.8,-259.8 57.7,-540.2 -49.5,-589.7 -107.2,-49.4 -461.8,136.1 -457.7,218.6 4.1,82.4 210.3,371.1 210.3,371.1"
         style="fill:#d9935c;fill-opacity:1;fill-rule:nonzero;stroke:none"
         id="path172" /><path
         d="M 8067.38,7225.9 H 6622.6 c -79.46,0 -144.47,-65.1 -144.47,-144.5 V 5997.8 c 0,-79.5 65.01,-144.5 144.47,-144.5 h 1444.78 c 79.46,0 144.48,65 144.48,144.5 v 1083.6 c 0,79.4 -65.02,144.5 -144.48,144.5"
         style="fill:#ffa412;fill-opacity:1;fill-rule:nonzero;stroke:none"
         id="path174" /><path
         d="M 8536.93,7225.9 H 7092.15 c -79.45,0 -144.47,-65.1 -144.47,-144.5 V 5997.8 c 0,-79.5 65.02,-144.5 144.47,-144.5 h 1444.78 c 79.46,0 144.48,65 144.48,144.5 v 1083.6 c 0,79.4 -65.02,144.5 -144.48,144.5"
         style="fill:#e27f2b;fill-opacity:1;fill-rule:nonzero;stroke:none"
         id="path176" /><path
         d="m 6779.12,7219.8 c 0,0 343.14,252.9 394.3,246.8 51.17,-6 132.44,-24 132.44,-24 l -307.02,-231.8 -219.72,9"
         style="fill:#ffa412;fill-opacity:1;fill-rule:nonzero;stroke:none"
         id="path178" /><path
         d="m 9406.21,9447.4 c -21.2,-5.6 -44.19,-11 -68.75,-16.2 -16.98,-3.7 -34.68,-7.2 -52.97,-10.6 -0.37,8.3 -0.61,16.7 -0.97,24.9 -4.7,113.7 -9.99,221.9 -17.46,324.8 -6.26,86.2 -13.97,168.7 -24.08,247.5 120.04,-316.6 203.72,-559.8 164.23,-570.4 z m 81.27,1766.3 c -137.62,104 -458.84,190.9 -619.81,209.2 -37.81,4.2 -150.86,4.7 -152.07,4.7 0,-115.7 -246.45,-215.6 -447.27,-202.5 -169.29,11.1 -279.21,139.8 -279.21,209.5 l -0.12,0.3 c -13,0 -672.66,-457.9 -755.62,-914.1 -5.54,-30.5 -8.55,-60.8 -8.55,-91.2 -2.64,-2169.9 -134.12,-2502.7 -92.58,-2502 0,0 246.81,-189.8 704.81,-234.7 59.23,-5.9 121.96,-9.3 188.18,-9.5 202.51,-0.8 388.65,21 553.23,54.9 91.74,18.8 176.87,41.4 254.28,65.9 320.62,101.7 511.57,236.1 510.13,274.5 -1.57,42.8 6.26,97.1 0.96,158 -19.99,229.7 -30.94,430.4 -39.37,632.6 347.95,-30.6 548.65,3.8 548.65,3.8 284.98,613.2 -179.51,2199.9 -365.64,2340.6"
         style="fill:#9ed9f0;fill-opacity:1;fill-rule:nonzero;stroke:none"
         id="path180" /><path
         d="m 7989.11,11434.7 c 0,0 -509.64,-77.3 -729.08,-260.1 -219.42,-182.9 -241.61,-1347.2 -314.75,-1676.4 -14.39,-64.6 -27.31,-168.9 -38.44,-296 -39.25,-446.8 7.78,-1066.2 46.68,-1295.2 4.12,-55.2 2.02,-136.3 -29.93,-216.1 -56.18,-140.5 -68.22,-180.6 32.11,-260.9 100.34,-80.2 208.69,-192.6 284.95,-160.5 58.81,24.8 48.38,414.9 40.54,591.9 88.03,378.5 230.61,1088.7 364.8,1777 179.03,917.7 343.12,1796.3 343.12,1796.3"
         style="fill:#d9935c;fill-opacity:1;fill-rule:nonzero;stroke:none"
         id="path182" /><path
         d="m 7989.12,11434.6 c 0,0 -94.63,-506.3 -218.52,-1151.6 -39.25,-204.8 -81.51,-423.6 -124.61,-644.6 -175.42,-343.8 -325.92,-577.4 -372.4,-533.5 -94.87,89.6 -261.38,100.7 -366.72,97.3 11.07,127.1 24.07,231.4 38.4,296 5.77,26 11.19,57.2 16.49,92.7 61.4,414.2 96.2,1415.3 298.23,1583.6 106.31,88.5 280.65,152.4 432.23,194.7 h 0.12 c 77.42,21.6 148.93,37.5 202.39,48.3 57.79,11.6 94.39,17.1 94.39,17.1"
         style="fill:#9ed9f0;fill-opacity:1;fill-rule:nonzero;stroke:none"
         id="path184" /><path
         d="m 7273.61,9104.9 c -94.85,89.6 -261.37,100.6 -366.77,97.3 11.13,127.1 24.05,231.4 38.44,296 5.76,26 11.21,57.2 16.49,92.8 l 525.85,1269.3 c 0,0 -167.53,-1799.4 -214.01,-1755.4"
         style="fill:#74acbe;fill-opacity:1;fill-rule:nonzero;stroke:none"
         id="path186" /><path
         d="m 8716.9,11447.6 c 3.87,177.2 0.95,388.7 -22.99,567.5 l -707.22,-115.6 c 0,0 0.01,-215.8 3.11,-455.3 l -0.69,-0.1 c 0,0 -19.29,-222.1 254.32,-254.6 273.61,-32.5 480.84,86.7 473.47,258.1"
         style="fill:#d9935c;fill-opacity:1;fill-rule:nonzero;stroke:none"
         id="path188" /><path
         d="m 8125.04,2051.8 c 88.91,54.8 36.89,463.2 36.89,463.2 0,0 -416.5,330.6 -472.64,76 -56.14,-254.5 -393.1,-370 -585.03,-401.9 -132.5,-22 -173.27,-95.5 -185.82,-139 l 1206.6,1.7"
         style="fill:#233862;fill-opacity:1;fill-rule:nonzero;stroke:none"
         id="path190" /><path
         d="m 9337.58,9430.6 c 0,0 -132.44,-179 -159.53,-179 -27.09,0 -361.19,129.4 -265.35,418.8 95.83,289.5 329.28,347.4 329.28,347.4 10.11,-78.8 17.82,-161.3 24.08,-247.5 7.47,-102.9 12.76,-211.1 17.46,-324.8 0.36,-8.2 0.6,-16.6 0.97,-24.9 18.29,3.4 35.99,6.9 52.97,10.6 l 0.12,-0.6"
         style="fill:#74acbe;fill-opacity:1;fill-rule:nonzero;stroke:none"
         id="path192" /><path
         d="m 9401.25,2051.8 c 88.92,54.8 36.9,463.2 36.9,463.2 0,0 -416.49,330.6 -472.64,76 -56.13,-254.5 -393.09,-370 -585.03,-401.9 -132.5,-22 -173.27,-95.5 -185.82,-139 l 1206.59,1.7"
         style="fill:#233862;fill-opacity:1;fill-rule:nonzero;stroke:none"
         id="path194" /><path
         d="m 9342.88,8078.7 c 1.44,-38.4 -189.51,-172.8 -510.13,-274.5 -25.82,-8.2 -52.58,-16.1 -80.06,-23.8 l -0.66,-0.7 c -29.9,-351 -110.88,-846.7 -183.91,-1325.1 v -0.1 c -18.91,-124.1 -37.21,-246.9 -54.07,-365.7 -44.54,-314.5 -77.89,-601 -81.5,-807.3 v -2.1 c -1.57,-94.7 78.26,-330.8 84.27,-385.3 3.74,-33.3 6.75,-68.6 8.91,-105.6 8.67,-147.7 5.18,-322.3 -6.74,-508.7 -52.37,-813.4 -267.28,-1854.1 -343.98,-1898.4 -152.42,-88.1 -429.82,0.1 -570.8,20.7 -58.39,8.7 -105.11,58.4 -102.1,117.3 68.87,1349.9 -128.95,3229.9 -276.79,4385.6 -3.86,30.1 -7.71,59.6 -11.44,88.6 -17.7,136.3 -29.38,263.5 -36.72,378.3 -6.74,100.6 -10,192 -11.44,271.2 -0.36,24.7 -0.6,48.3 -0.72,70.6 -0.37,72.4 57.19,546 59.83,2715.9 0.06,50.2 41.11,91.2 91.24,91.2 h 1326.98 c 128.23,0 231.4,-105 229.8,-233.2 -2.06,-165.5 3.91,-396.6 39.85,-617.2 48.97,-301.3 153.86,-582.7 370.32,-650.5 l 0.52,-0.4 c 0.98,-2.2 6.9,-15.4 16.41,-37.4 l 0.07,-0.3 c 2.05,-54.5 4.33,-109.9 6.86,-166.4 0.48,-11.4 0.96,-22.8 1.56,-34.2 0.24,-6.8 0.6,-13.4 0.96,-20.1 0.48,-11.5 1.09,-23.1 1.69,-34.6 0.84,-19 1.81,-38.2 2.89,-57.6 0.84,-15.1 1.68,-30.3 2.53,-45.6 1.56,-29.4 3.37,-59.1 5.3,-89.1 0.48,-9.6 1.08,-19.1 1.8,-28.9 2.53,-38.7 5.18,-78.1 8.19,-117.7 0.84,-12.2 1.8,-24.4 2.77,-36.6 0.36,-5.9 0.84,-11.8 1.32,-17.7 1.21,-15.6 2.41,-31.1 3.73,-46.7 1.33,-16.5 2.77,-33.1 4.22,-49.9 5.3,-60.9 -2.53,-115.2 -0.96,-158"
         style="fill:#2b478b;fill-opacity:1;fill-rule:nonzero;stroke:none"
         id="path196" /><path
         d="m 8518.99,4279.8 c -52.37,-813.4 -267.28,-1854.1 -343.98,-1898.4 -152.42,-88.1 -429.82,0.1 -570.8,20.7 -58.39,8.7 -105.11,58.4 -102.1,117.3 68.87,1349.9 -128.95,3229.9 -276.79,4385.6 -3.86,30.1 -7.71,59.6 -11.44,88.6 -17.7,136.3 -29.38,263.5 -36.72,378.3 70.31,458.2 467.14,482.8 827.01,-465.1 154.22,-367.2 526.74,-2440.6 514.82,-2627"
         style="fill:#233862;fill-opacity:1;fill-rule:nonzero;stroke:none"
         id="path198" /><path
         d="m 9357.76,5319.8 c 10.9,-94 120.96,-317.6 134.15,-370.9 181.94,-731.6 81.44,-2466.5 -8.76,-2535.8 -139.55,-107.4 -426.17,-56.4 -568.6,-54.5 -59.03,0.9 -111.84,44.1 -116.59,102.8 -111.86,1382.3 -575.41,3280.8 -873.51,4397.6 -150.09,562.6 -171.37,976.2 -171.37,976.2 0,0 1393.23,853.6 1543.91,387.3 133.34,-412.6 -23.27,-2180.7 60.77,-2902.7"
         style="fill:#2b478b;fill-opacity:1;fill-rule:nonzero;stroke:none"
         id="path200" /><path
         d="m 8915.43,11416.4 c 0,0 -410.6,-478.3 -434.68,-895.6 h 208.69 c 0,0 53.17,453.7 362.19,867.1 l -136.2,28.5"
         style="fill:#2b478b;fill-opacity:1;fill-rule:nonzero;stroke:none"
         id="path202" /><path
         d="m 7894.73,11417.5 c -294.13,-445.1 -329.05,-896.7 -329.05,-896.7 h -208.65 c 17.34,328.1 221.41,677.5 335.19,848.4 h 0.12 c 77.42,21.6 148.93,37.5 202.39,48.3"
         style="fill:#2b478b;fill-opacity:1;fill-rule:nonzero;stroke:none"
         id="path204" /><path
         d="m 8160.35,8780 c -20.3,444 120.03,1337.8 327.54,1979 23.28,71.7 47.33,140.3 72.15,204.9 9.27,19.6 18.54,38.7 27.8,57.5 C 8428.1,10583.9 8308.07,9958.6 8256,9433.5 8229.3,9162 8220.8,8917.3 8234.26,8739 c 24.28,-320.4 223.95,-588 469.31,-758.2 -342.11,189 -530.75,525.5 -543.22,799.2 z m 502.3,-870.2 c -445.26,209.6 -667.23,643.5 -656.31,963.8 9.49,284.3 99.29,744.3 230.13,1199.5 -102.05,-492 -158.97,-991.1 -144.96,-1297.7 17.65,-388.2 293.46,-711 601.47,-879.2 -10.15,4.2 -20.07,8.8 -30.33,13.6 z m -745.01,963.8 c 17.43,517.5 300.4,1616.6 613.28,2210.1 -10.92,-26.3 -21.96,-53.4 -32.77,-81.3 -295.66,-626.2 -543.99,-1622.1 -560.87,-2125.4 -7.17,-210.5 62.66,-410.7 174.86,-582.5 -135.14,189.7 -200.57,401.8 -194.5,579.1 z m 2096.76,-41.5 c -7.8,159 -29.55,348.1 -71.04,572.9 -0.1,-108.3 -7.16,-210.8 -23.05,-303.5 51.63,-411.5 31.66,-726 -60.01,-904.1 -56.82,-110.4 -135.48,-195.1 -230.69,-251.8 48.54,47.2 91.35,103.4 127.53,168.3 70.5,126.3 135.37,361.4 111.32,795.1 -4.86,-12.3 -9.93,-24.3 -15.34,-35.9 0,0 -17.87,-3 -52.29,-6.6 14.12,-317 -19.75,-559.9 -100.72,-705.2 -61.34,-110.1 -144.64,-192.2 -244.04,-244.5 31.34,31 60.14,65.8 86.83,104.8 83.62,122.9 170.89,364.5 174.64,838.6 -20.85,-1.2 -44.02,-2.2 -69.39,-2.8 -3.86,-363.5 -57.48,-634.1 -158.43,-781.9 -4.63,-6.8 -9.48,-13.7 -14.45,-20.3 76.57,131.4 149.82,369.6 153.57,801.8 -21.74,-0.3 -44.9,-0.5 -69.5,-0.3 -3.65,-363.2 -57.48,-633.5 -158.31,-781.2 -63.22,-92.5 -142.43,-160.4 -233.44,-202.2 -27.8,4.7 -56.27,11 -84.84,18.6 -3.86,0.9 -7.73,1.9 -11.48,3.1 l -1.21,0.4 c -3.75,1 -7.61,2.1 -11.36,3.2 -34.87,10.1 -68.73,21.7 -101.5,34.7 -401.46,159.4 -631.81,518.4 -654.21,813.5 -15.88,209.6 1.11,521.7 43.47,861.2 83.4,669 265.11,1444.6 486.08,1752.8 3.75,5.2 7.28,10.3 11.03,15.1 l 0.11,0.1 c 4.64,6.1 9.27,12 14.01,17.6 8.16,9.8 16.22,18.9 24.49,27.3 l 0.22,0.2 c 17.32,17.8 34.65,31.8 51.52,42.2 4.63,-2.8 9.71,-6.2 15.23,-10.6 14.34,-10.9 31.44,-27.6 51.19,-52.8 l 0.44,-0.5 c 23.05,-5 46.99,-10.7 71.49,-16.9 11.36,-3.1 23.05,-6 34.75,-9.5 l 2.21,-0.5 c 2.75,-0.6 5.51,-1.4 8.16,-2.2 14.34,-4 28.68,-8.2 43.13,-12.5 8.17,-2.5 16.44,-5.1 24.61,-7.6 9.7,-3.1 19.3,-6.2 28.9,-9.4 10.48,-3.5 20.96,-7 31.33,-10.7 11.03,-3.8 22.07,-7.8 32.88,-11.9 l -0.67,1 c -130.07,205 -222.52,252.7 -282.53,249.9 -9.38,-0.5 -18.64,-1.7 -28.13,-3.8 -10.92,2.9 -20.96,4.1 -30.11,4.1 -20.09,-0.1 -40.28,-3.8 -60.46,-11.1 -61.78,-6 -126.76,-45 -194.06,-116.9 -4.63,-4.7 -9.16,-9.8 -13.79,-15 -37.4,-42.1 -74.8,-93.4 -112.08,-152.2 l -0.67,-1 C 8199.96,10710.9 7868.21,9461.7 7848.47,8877 c -15.55,-462.7 340.68,-876.4 700.65,-1045.8 35.2,-16.6 70.17,-30.9 104.69,-43 19.53,-6.8 38.84,-12.9 58.04,-18.3 l 1.21,-0.3 c 74.58,-21 147.06,-31.3 216.56,-31.3 14.89,0 29.57,0.4 44.13,1.4 15,-1 29.9,-1.4 44.68,-1.4 65.42,0 128.3,9.1 187.66,27.3 9.37,0.5 18.75,1.1 28.02,1.8 7.95,0.8 15.89,1.4 23.61,2.4 15.22,1.8 30.34,4.1 45.23,6.9 43.57,-0.3 86.05,2.9 127.09,9.8 129.3,21.2 244.03,76.8 337.91,164.1 59.13,55 109.99,122.5 150.93,201.9 60.01,117 113.22,322.4 95.52,679.6"
         style="fill:#ffa412;fill-opacity:1;fill-rule:nonzero;stroke:none"
         id="path206" /><path
         d="m 9337.58,9430.6 c -11.32,-1.7 -224.66,-40.6 -236.34,-42.3 -355.35,-52.1 -833.47,-75 -883.26,-77.3 -4.66,4.3 -174.28,162.3 -240.42,162.3 -67.06,0 -260.36,-70.4 -280.09,-124.6 -19.73,-54.2 -27.61,-151.7 27.61,-173.4 55.23,-21.6 284.04,-75.8 343.22,-81.2 8.08,-0.8 17.82,-0.8 28.41,0.2 425.01,-124.9 790.88,-186.3 1072.79,-215.3 25.17,-2.6 170.57,-21.5 299.7,-20.2 -4.45,245.4 -87.07,472 -131.62,571.8"
         style="fill:#d9935c;fill-opacity:1;fill-rule:nonzero;stroke:none"
         id="path208" /><path
         d="m 8784.26,12219 c 0,0 472.11,744.4 -434.43,793.6 0,0 -340.01,-40 -416.98,37 0,0 -263.75,-400.9 -17.44,-830.6 246.3,-429.7 868.85,0 868.85,0"
         style="fill:#b64c41;fill-opacity:1;fill-rule:nonzero;stroke:none"
         id="path210" /><path
         d="m 8007.69,11830.6 c 68.72,-54.1 270.2,-107.8 328.45,-114.1 0,0 298.78,66.7 353.09,99.4 84.12,51 78.7,154.2 83.02,297.7 5.17,169.8 22.29,303.2 3.32,401.1 -22.54,117.1 -96.81,183.8 -304.69,201.9 -381.66,33.1 -540.66,-62.5 -547.31,-190.4 -1.72,-34.4 -3.33,-67.1 -4.43,-98.2 -15.27,-399 16.26,-540.5 88.55,-597.4"
         style="fill:#d9935c;fill-opacity:1;fill-rule:nonzero;stroke:none"
         id="path212" /><path
         d="m 8847.16,13133.9 c 0,0 -38.21,51.9 -106.66,110.1 -10.84,9.3 -22.51,18.8 -34.92,28.1 -125.89,95.8 -327.38,189.3 -570.28,88 -65.82,-27.4 -120.55,-64.7 -165.98,-107.9 -10.78,-10.1 -20.96,-20.6 -30.57,-31.4 -210.62,-233.7 -192.78,-600.1 -192.78,-600.1 l 1215.25,13 c 3.94,339.2 -114.06,500.2 -114.06,500.2"
         style="fill:#ffa412;fill-opacity:1;fill-rule:nonzero;stroke:none"
         id="path214" /><path
         d="m 8620.2,12630.2 c -0.33,4.5 -35.91,463 120.3,613.8 -10.84,9.3 -8.26,7.7 -20.67,17.1 -164.51,-171.3 -167.79,-612.3 -166.39,-631.7 l 66.76,0.8"
         style="fill:#e27f2b;fill-opacity:1;fill-rule:nonzero;stroke:none"
         id="path216" /><path
         d="m 8164.81,12625.2 c -11.52,297.6 -175.79,594 -195.49,627 -10.78,-10.1 -12.81,-12.1 -22.42,-23 28.5,-50.1 135.76,-337 146.02,-604.8 l -346.95,-3.7 c 0,0 323.67,-83.7 567.45,-80.7 243.78,3.1 647.8,93.7 647.8,93.7 l -796.41,-8.5"
         style="fill:#e27f2b;fill-opacity:1;fill-rule:nonzero;stroke:none"
         id="path218" /><path
         d="m 7989.12,11848.2 c 0,0 120.2,-91.6 347.02,-131.7 0,0 124.29,-5.8 374.96,115.6 0,0 -309.47,-260.2 -376.45,-262.7 -66.97,-2.5 -345.53,278.8 -345.53,278.8"
         style="fill:#cb7d45;fill-opacity:1;fill-rule:nonzero;stroke:none"
         id="path220" /><path
         d="m 15532.7,2110.2 c 91.3,56.2 37.7,472.9 37.7,472.9 0,0 -428,339.8 -485.7,78.2 -57.6,-261.5 -403.8,-380.2 -601.1,-412.9 -136.1,-22.6 -186.3,-93 -199.2,-137.7 l 1248.3,-0.5"
         style="fill:#233862;fill-opacity:1;fill-rule:nonzero;stroke:none"
         id="path222" /><path
         d="m 16843.9,2110.2 c 91.4,56.2 37.7,472.9 37.7,472.9 0,0 -427.9,339.8 -485.6,78.2 -57.7,-261.5 -403.9,-380.2 -601.1,-412.9 -136.1,-22.6 -185.6,-93 -198.5,-137.7 l 1247.5,-0.5"
         style="fill:#233862;fill-opacity:1;fill-rule:nonzero;stroke:none"
         id="path224" /><path
         d="M 14398.2,6262 V 5753.8 H 3164.39 c -56.98,0 -103.17,-46.2 -103.17,-103.2 V 1901.4 H 27082 V 6262 H 14398.2"
         style="fill:#233862;fill-opacity:1;fill-rule:nonzero;stroke:none"
         id="path226" /><path
         d="m 25767.1,1904 h 1279.3 c 43.4,0 78.5,35.1 78.5,78.5 v 326.1 c 0,43.3 -35.1,78.5 -78.5,78.5 h -1279.3 c -43.4,0 -78.5,-35.2 -78.5,-78.5 v -326.1 c 0,-43.4 35.1,-78.5 78.5,-78.5"
         style="fill:#b84c42;fill-opacity:1;fill-rule:nonzero;stroke:none"
         id="path228" /><path
         d="M 24254.6,1904 H 25534 c 43.3,0 78.5,35.1 78.5,78.5 v 326.1 c 0,43.3 -35.2,78.5 -78.5,78.5 h -1279.4 c -43.3,0 -78.5,-35.2 -78.5,-78.5 v -326.1 c 0,-43.4 35.2,-78.5 78.5,-78.5"
         style="fill:#b84c42;fill-opacity:1;fill-rule:nonzero;stroke:none"
         id="path230" /><path
         d="m 22742.2,1904 h 1279.4 c 43.3,0 78.4,35.1 78.4,78.5 v 326.1 c 0,43.3 -35.1,78.5 -78.4,78.5 h -1279.4 c -43.4,0 -78.5,-35.2 -78.5,-78.5 v -326.1 c 0,-43.4 35.1,-78.5 78.5,-78.5"
         style="fill:#b84c42;fill-opacity:1;fill-rule:nonzero;stroke:none"
         id="path232" /><path
         d="m 21229.7,1904 h 1279.4 c 43.4,0 78.5,35.1 78.5,78.5 v 326.1 c 0,43.3 -35.1,78.5 -78.5,78.5 h -1279.4 c -43.3,0 -78.4,-35.2 -78.4,-78.5 v -326.1 c 0,-43.4 35.1,-78.5 78.4,-78.5"
         style="fill:#b84c42;fill-opacity:1;fill-rule:nonzero;stroke:none"
         id="path234" /><path
         d="m 19717.3,1904 h 1279.4 c 43.3,0 78.5,35.1 78.5,78.5 v 326.1 c 0,43.3 -35.2,78.5 -78.5,78.5 h -1279.4 c -43.3,0 -78.5,-35.2 -78.5,-78.5 v -326.1 c 0,-43.4 35.2,-78.5 78.5,-78.5"
         style="fill:#b84c42;fill-opacity:1;fill-rule:nonzero;stroke:none"
         id="path236" /><path
         d="m 18204.9,1904 h 1279.3 c 43.4,0 78.5,35.1 78.5,78.5 v 326.1 c 0,43.3 -35.1,78.5 -78.5,78.5 h -1279.3 c -43.4,0 -78.5,-35.2 -78.5,-78.5 v -326.1 c 0,-43.4 35.1,-78.5 78.5,-78.5"
         style="fill:#b84c42;fill-opacity:1;fill-rule:nonzero;stroke:none"
         id="path238" /><path
         d="m 16692.4,1904 h 1279.4 c 43.4,0 78.5,35.1 78.5,78.5 v 326.1 c 0,43.3 -35.1,78.5 -78.5,78.5 h -1279.4 c -43.3,0 -78.4,-35.2 -78.4,-78.5 v -326.1 c 0,-43.4 35.1,-78.5 78.4,-78.5"
         style="fill:#b84c42;fill-opacity:1;fill-rule:nonzero;stroke:none"
         id="path240" /><path
         d="m 15180,1904 h 1279.4 c 43.3,0 78.5,35.1 78.5,78.5 v 326.1 c 0,43.3 -35.2,78.5 -78.5,78.5 H 15180 c -43.3,0 -78.5,-35.2 -78.5,-78.5 v -326.1 c 0,-43.4 35.2,-78.5 78.5,-78.5"
         style="fill:#b84c42;fill-opacity:1;fill-rule:nonzero;stroke:none"
         id="path242" /><path
         d="m 13658,1904 h 1279.4 c 43.4,0 78.5,35.1 78.5,78.5 v 326.1 c 0,43.3 -35.1,78.5 -78.5,78.5 H 13658 c -43.3,0 -78.4,-35.2 -78.4,-78.5 v -326.1 c 0,-43.4 35.1,-78.5 78.4,-78.5"
         style="fill:#b84c42;fill-opacity:1;fill-rule:nonzero;stroke:none"
         id="path244" /><path
         d="M 12145.6,1904 H 13425 c 43.3,0 78.5,35.1 78.5,78.5 v 326.1 c 0,43.3 -35.2,78.5 -78.5,78.5 h -1279.4 c -43.3,0 -78.5,-35.2 -78.5,-78.5 v -326.1 c 0,-43.4 35.2,-78.5 78.5,-78.5"
         style="fill:#b84c42;fill-opacity:1;fill-rule:nonzero;stroke:none"
         id="path246" /><path
         d="m 10633.2,1904 h 1279.4 c 43.3,0 78.4,35.1 78.4,78.5 v 326.1 c 0,43.3 -35.1,78.5 -78.4,78.5 h -1279.4 c -43.4,0 -78.5,-35.2 -78.5,-78.5 v -326.1 c 0,-43.4 35.1,-78.5 78.5,-78.5"
         style="fill:#b84c42;fill-opacity:1;fill-rule:nonzero;stroke:none"
         id="path248" /><path
         d="m 9120.73,1904 h 1279.37 c 43.4,0 78.5,35.1 78.5,78.5 v 326.1 c 0,43.3 -35.1,78.5 -78.5,78.5 H 9120.73 c -43.34,0 -78.47,-35.2 -78.47,-78.5 v -326.1 c 0,-43.4 35.13,-78.5 78.47,-78.5"
         style="fill:#b84c42;fill-opacity:1;fill-rule:nonzero;stroke:none"
         id="path250" /><path
         d="m 7608.29,1904 h 1279.39 c 43.34,0 78.48,35.1 78.48,78.5 v 326.1 c 0,43.3 -35.14,78.5 -78.48,78.5 H 7608.29 c -43.34,0 -78.48,-35.2 -78.48,-78.5 v -326.1 c 0,-43.4 35.14,-78.5 78.48,-78.5"
         style="fill:#b84c42;fill-opacity:1;fill-rule:nonzero;stroke:none"
         id="path252" /><path
         d="m 6095.85,1904 h 1279.39 c 43.34,0 78.48,35.1 78.48,78.5 v 326.1 c 0,43.3 -35.14,78.5 -78.48,78.5 H 6095.85 c -43.34,0 -78.47,-35.2 -78.47,-78.5 v -326.1 c 0,-43.4 35.13,-78.5 78.47,-78.5"
         style="fill:#b84c42;fill-opacity:1;fill-rule:nonzero;stroke:none"
         id="path254" /><path
         d="m 4583.42,1904 h 1279.39 c 43.34,0 78.47,35.1 78.47,78.5 v 326.1 c 0,43.3 -35.13,78.5 -78.47,78.5 H 4583.42 c -43.34,0 -78.48,-35.2 -78.48,-78.5 v -326.1 c 0,-43.4 35.14,-78.5 78.48,-78.5"
         style="fill:#b84c42;fill-opacity:1;fill-rule:nonzero;stroke:none"
         id="path256" /><path
         d="m 3070.98,1904 h 1279.39 c 43.34,0 78.47,35.1 78.47,78.5 v 326.1 c 0,43.3 -35.13,78.5 -78.47,78.5 H 3070.98 c -43.34,0 -78.48,-35.2 -78.48,-78.5 v -326.1 c 0,-43.4 35.14,-78.5 78.48,-78.5"
         style="fill:#b84c42;fill-opacity:1;fill-rule:nonzero;stroke:none"
         id="path258" /><path
         d="m 26509.1,2455.8 h 551.1 c 43.3,0 78.5,35.1 78.5,78.4 v 326.2 c 0,43.3 -35.2,78.4 -78.5,78.4 h -551.1 c -43.3,0 -78.5,-35.1 -78.5,-78.4 v -326.2 c 0,-43.3 35.2,-78.4 78.5,-78.4"
         style="fill:#b84c42;fill-opacity:1;fill-rule:nonzero;stroke:none"
         id="path260" /><path
         d="m 24996.7,2455.8 h 1279.4 c 43.3,0 78.4,35.1 78.4,78.4 v 326.2 c 0,43.3 -35.1,78.4 -78.4,78.4 h -1279.4 c -43.4,0 -78.5,-35.1 -78.5,-78.4 v -326.2 c 0,-43.3 35.1,-78.4 78.5,-78.4"
         style="fill:#b84c42;fill-opacity:1;fill-rule:nonzero;stroke:none"
         id="path262" /><path
         d="m 23484.2,2455.8 h 1279.4 c 43.4,0 78.5,35.1 78.5,78.4 v 326.2 c 0,43.3 -35.1,78.4 -78.5,78.4 h -1279.4 c -43.3,0 -78.4,-35.1 -78.4,-78.4 v -326.2 c 0,-43.3 35.1,-78.4 78.4,-78.4"
         style="fill:#b84c42;fill-opacity:1;fill-rule:nonzero;stroke:none"
         id="path264" /><path
         d="m 21971.8,2455.8 h 1279.4 c 43.3,0 78.5,35.1 78.5,78.4 v 326.2 c 0,43.3 -35.2,78.4 -78.5,78.4 h -1279.4 c -43.3,0 -78.5,-35.1 -78.5,-78.4 v -326.2 c 0,-43.3 35.2,-78.4 78.5,-78.4"
         style="fill:#b84c42;fill-opacity:1;fill-rule:nonzero;stroke:none"
         id="path266" /><path
         d="m 20459.4,2455.8 h 1279.4 c 43.3,0 78.4,35.1 78.4,78.4 v 326.2 c 0,43.3 -35.1,78.4 -78.4,78.4 h -1279.4 c -43.4,0 -78.5,-35.1 -78.5,-78.4 v -326.2 c 0,-43.3 35.1,-78.4 78.5,-78.4"
         style="fill:#b84c42;fill-opacity:1;fill-rule:nonzero;stroke:none"
         id="path268" /><path
         d="m 18946.9,2455.8 h 1279.4 c 43.3,0 78.5,35.1 78.5,78.4 v 326.2 c 0,43.3 -35.2,78.4 -78.5,78.4 h -1279.4 c -43.3,0 -78.5,-35.1 -78.5,-78.4 v -326.2 c 0,-43.3 35.2,-78.4 78.5,-78.4"
         style="fill:#b84c42;fill-opacity:1;fill-rule:nonzero;stroke:none"
         id="path270" /><path
         d="m 17434.5,2455.8 h 1279.4 c 43.3,0 78.5,35.1 78.5,78.4 v 326.2 c 0,43.3 -35.2,78.4 -78.5,78.4 h -1279.4 c -43.4,0 -78.5,-35.1 -78.5,-78.4 v -326.2 c 0,-43.3 35.1,-78.4 78.5,-78.4"
         style="fill:#b84c42;fill-opacity:1;fill-rule:nonzero;stroke:none"
         id="path272" /><path
         d="m 15922.1,2455.8 h 1279.3 c 43.4,0 78.5,35.1 78.5,78.4 v 326.2 c 0,43.3 -35.1,78.4 -78.5,78.4 h -1279.3 c -43.4,0 -78.5,-35.1 -78.5,-78.4 v -326.2 c 0,-43.3 35.1,-78.4 78.5,-78.4"
         style="fill:#b84c42;fill-opacity:1;fill-rule:nonzero;stroke:none"
         id="path274" /><path
         d="m 14400.1,2455.8 h 1279.4 c 43.3,0 78.5,35.1 78.5,78.4 v 326.2 c 0,43.3 -35.2,78.4 -78.5,78.4 h -1279.4 c -43.3,0 -78.5,-35.1 -78.5,-78.4 v -326.2 c 0,-43.3 35.2,-78.4 78.5,-78.4"
         style="fill:#b84c42;fill-opacity:1;fill-rule:nonzero;stroke:none"
         id="path276" /><path
         d="m 12887.7,2455.8 h 1279.4 c 43.3,0 78.4,35.1 78.4,78.4 v 326.2 c 0,43.3 -35.1,78.4 -78.4,78.4 h -1279.4 c -43.4,0 -78.5,-35.1 -78.5,-78.4 v -326.2 c 0,-43.3 35.1,-78.4 78.5,-78.4"
         style="fill:#b84c42;fill-opacity:1;fill-rule:nonzero;stroke:none"
         id="path278" /><path
         d="m 11375.2,2455.8 h 1279.4 c 43.4,0 78.5,35.1 78.5,78.4 v 326.2 c 0,43.3 -35.1,78.4 -78.5,78.4 h -1279.4 c -43.3,0 -78.4,-35.1 -78.4,-78.4 v -326.2 c 0,-43.3 35.1,-78.4 78.4,-78.4"
         style="fill:#b84c42;fill-opacity:1;fill-rule:nonzero;stroke:none"
         id="path280" /><path
         d="m 9862.79,2455.8 h 1279.41 c 43.3,0 78.5,35.1 78.5,78.4 v 326.2 c 0,43.3 -35.2,78.4 -78.5,78.4 H 9862.79 c -43.34,0 -78.48,-35.1 -78.48,-78.4 v -326.2 c 0,-43.3 35.14,-78.4 78.48,-78.4"
         style="fill:#b84c42;fill-opacity:1;fill-rule:nonzero;stroke:none"
         id="path282" /><path
         d="m 8350.35,2455.8 h 1279.39 c 43.34,0 78.48,35.1 78.48,78.4 v 326.2 c 0,43.3 -35.14,78.4 -78.48,78.4 H 8350.35 c -43.34,0 -78.47,-35.1 -78.47,-78.4 v -326.2 c 0,-43.3 35.13,-78.4 78.47,-78.4"
         style="fill:#b84c42;fill-opacity:1;fill-rule:nonzero;stroke:none"
         id="path284" /><path
         d="M 6837.92,2455.8 H 8117.3 c 43.34,0 78.48,35.1 78.48,78.4 v 326.2 c 0,43.3 -35.14,78.4 -78.48,78.4 H 6837.92 c -43.34,0 -78.48,-35.1 -78.48,-78.4 v -326.2 c 0,-43.3 35.14,-78.4 78.48,-78.4"
         style="fill:#b84c42;fill-opacity:1;fill-rule:nonzero;stroke:none"
         id="path286" /><path
         d="m 5325.48,2455.8 h 1279.39 c 43.34,0 78.47,35.1 78.47,78.4 v 326.2 c 0,43.3 -35.13,78.4 -78.47,78.4 H 5325.48 c -43.34,0 -78.48,-35.1 -78.48,-78.4 v -326.2 c 0,-43.3 35.14,-78.4 78.48,-78.4"
         style="fill:#b84c42;fill-opacity:1;fill-rule:nonzero;stroke:none"
         id="path288" /><path
         d="m 3813.04,2455.8 h 1279.39 c 43.34,0 78.47,35.1 78.47,78.4 v 326.2 c 0,43.3 -35.13,78.4 -78.47,78.4 H 3813.04 c -43.34,0 -78.47,-35.1 -78.47,-78.4 v -326.2 c 0,-43.3 35.13,-78.4 78.47,-78.4"
         style="fill:#b84c42;fill-opacity:1;fill-rule:nonzero;stroke:none"
         id="path290" /><path
         d="m 3051.77,2455.8 h 551.07 c 43.34,0 78.47,35.1 78.47,78.4 v 326.2 c 0,43.3 -35.13,78.4 -78.47,78.4 h -551.07 c -43.34,0 -78.47,-35.1 -78.47,-78.4 v -326.2 c 0,-43.3 35.13,-78.4 78.47,-78.4"
         style="fill:#b84c42;fill-opacity:1;fill-rule:nonzero;stroke:none"
         id="path292" /><path
         d="m 25767.1,3017.1 h 1279.3 c 43.4,0 78.5,35.1 78.5,78.4 v 326.2 c 0,43.3 -35.1,78.5 -78.5,78.5 h -1279.3 c -43.4,0 -78.5,-35.2 -78.5,-78.5 v -326.2 c 0,-43.3 35.1,-78.4 78.5,-78.4"
         style="fill:#b84c42;fill-opacity:1;fill-rule:nonzero;stroke:none"
         id="path294" /><path
         d="M 24254.6,3017.1 H 25534 c 43.3,0 78.5,35.1 78.5,78.4 v 326.2 c 0,43.3 -35.2,78.5 -78.5,78.5 h -1279.4 c -43.3,0 -78.5,-35.2 -78.5,-78.5 v -326.2 c 0,-43.3 35.2,-78.4 78.5,-78.4"
         style="fill:#b84c42;fill-opacity:1;fill-rule:nonzero;stroke:none"
         id="path296" /><path
         d="m 22742.2,3017.1 h 1279.4 c 43.3,0 78.4,35.1 78.4,78.4 v 326.2 c 0,43.3 -35.1,78.5 -78.4,78.5 h -1279.4 c -43.4,0 -78.5,-35.2 -78.5,-78.5 v -326.2 c 0,-43.3 35.1,-78.4 78.5,-78.4"
         style="fill:#b84c42;fill-opacity:1;fill-rule:nonzero;stroke:none"
         id="path298" /><path
         d="m 21229.7,3017.1 h 1279.4 c 43.4,0 78.5,35.1 78.5,78.4 v 326.2 c 0,43.3 -35.1,78.5 -78.5,78.5 h -1279.4 c -43.3,0 -78.4,-35.2 -78.4,-78.5 v -326.2 c 0,-43.3 35.1,-78.4 78.4,-78.4"
         style="fill:#b84c42;fill-opacity:1;fill-rule:nonzero;stroke:none"
         id="path300" /><path
         d="m 19717.3,3017.1 h 1279.4 c 43.3,0 78.5,35.1 78.5,78.4 v 326.2 c 0,43.3 -35.2,78.5 -78.5,78.5 h -1279.4 c -43.3,0 -78.5,-35.2 -78.5,-78.5 v -326.2 c 0,-43.3 35.2,-78.4 78.5,-78.4"
         style="fill:#b84c42;fill-opacity:1;fill-rule:nonzero;stroke:none"
         id="path302" /><path
         d="m 18204.9,3017.1 h 1279.3 c 43.4,0 78.5,35.1 78.5,78.4 v 326.2 c 0,43.3 -35.1,78.5 -78.5,78.5 h -1279.3 c -43.4,0 -78.5,-35.2 -78.5,-78.5 v -326.2 c 0,-43.3 35.1,-78.4 78.5,-78.4"
         style="fill:#b84c42;fill-opacity:1;fill-rule:nonzero;stroke:none"
         id="path304" /><path
         d="m 16692.4,3017.1 h 1279.4 c 43.4,0 78.5,35.1 78.5,78.4 v 326.2 c 0,43.3 -35.1,78.5 -78.5,78.5 h -1279.4 c -43.3,0 -78.4,-35.2 -78.4,-78.5 v -326.2 c 0,-43.3 35.1,-78.4 78.4,-78.4"
         style="fill:#b84c42;fill-opacity:1;fill-rule:nonzero;stroke:none"
         id="path306" /><path
         d="m 15180,3017.1 h 1279.4 c 43.3,0 78.5,35.1 78.5,78.4 v 326.2 c 0,43.3 -35.2,78.5 -78.5,78.5 H 15180 c -43.3,0 -78.5,-35.2 -78.5,-78.5 v -326.2 c 0,-43.3 35.2,-78.4 78.5,-78.4"
         style="fill:#b84c42;fill-opacity:1;fill-rule:nonzero;stroke:none"
         id="path308" /><path
         d="m 13658,3017.1 h 1279.4 c 43.4,0 78.5,35.1 78.5,78.4 v 326.2 c 0,43.3 -35.1,78.5 -78.5,78.5 H 13658 c -43.3,0 -78.4,-35.2 -78.4,-78.5 v -326.2 c 0,-43.3 35.1,-78.4 78.4,-78.4"
         style="fill:#b84c42;fill-opacity:1;fill-rule:nonzero;stroke:none"
         id="path310" /><path
         d="M 12145.6,3017.1 H 13425 c 43.3,0 78.5,35.1 78.5,78.4 v 326.2 c 0,43.3 -35.2,78.5 -78.5,78.5 h -1279.4 c -43.3,0 -78.5,-35.2 -78.5,-78.5 v -326.2 c 0,-43.3 35.2,-78.4 78.5,-78.4"
         style="fill:#b84c42;fill-opacity:1;fill-rule:nonzero;stroke:none"
         id="path312" /><path
         d="m 10633.2,3017.1 h 1279.4 c 43.3,0 78.4,35.1 78.4,78.4 v 326.2 c 0,43.3 -35.1,78.5 -78.4,78.5 h -1279.4 c -43.4,0 -78.5,-35.2 -78.5,-78.5 v -326.2 c 0,-43.3 35.1,-78.4 78.5,-78.4"
         style="fill:#b84c42;fill-opacity:1;fill-rule:nonzero;stroke:none"
         id="path314" /><path
         d="m 9120.73,3017.1 h 1279.37 c 43.4,0 78.5,35.1 78.5,78.4 v 326.2 c 0,43.3 -35.1,78.5 -78.5,78.5 H 9120.73 c -43.34,0 -78.47,-35.2 -78.47,-78.5 v -326.2 c 0,-43.3 35.13,-78.4 78.47,-78.4"
         style="fill:#b84c42;fill-opacity:1;fill-rule:nonzero;stroke:none"
         id="path316" /><path
         d="m 7608.29,3017.1 h 1279.39 c 43.34,0 78.48,35.1 78.48,78.4 v 326.2 c 0,43.3 -35.14,78.5 -78.48,78.5 H 7608.29 c -43.34,0 -78.48,-35.2 -78.48,-78.5 v -326.2 c 0,-43.3 35.14,-78.4 78.48,-78.4"
         style="fill:#b84c42;fill-opacity:1;fill-rule:nonzero;stroke:none"
         id="path318" /><path
         d="m 6095.85,3017.1 h 1279.39 c 43.34,0 78.48,35.1 78.48,78.4 v 326.2 c 0,43.3 -35.14,78.5 -78.48,78.5 H 6095.85 c -43.34,0 -78.47,-35.2 -78.47,-78.5 v -326.2 c 0,-43.3 35.13,-78.4 78.47,-78.4"
         style="fill:#b84c42;fill-opacity:1;fill-rule:nonzero;stroke:none"
         id="path320" /><path
         d="m 4583.42,3017.1 h 1279.39 c 43.34,0 78.47,35.1 78.47,78.4 v 326.2 c 0,43.3 -35.13,78.5 -78.47,78.5 H 4583.42 c -43.34,0 -78.48,-35.2 -78.48,-78.5 v -326.2 c 0,-43.3 35.14,-78.4 78.48,-78.4"
         style="fill:#b84c42;fill-opacity:1;fill-rule:nonzero;stroke:none"
         id="path322" /><path
         d="m 3070.98,3017.1 h 1279.39 c 43.34,0 78.47,35.1 78.47,78.4 v 326.2 c 0,43.3 -35.13,78.5 -78.47,78.5 H 3070.98 c -43.34,0 -78.48,-35.2 -78.48,-78.5 v -326.2 c 0,-43.3 35.14,-78.4 78.48,-78.4"
         style="fill:#b84c42;fill-opacity:1;fill-rule:nonzero;stroke:none"
         id="path324" /><path
         d="m 26509.1,3568.9 h 551.1 c 43.3,0 78.5,35.1 78.5,78.4 v 326.2 c 0,43.3 -35.2,78.4 -78.5,78.4 h -551.1 c -43.3,0 -78.5,-35.1 -78.5,-78.4 v -326.2 c 0,-43.3 35.2,-78.4 78.5,-78.4"
         style="fill:#b84c42;fill-opacity:1;fill-rule:nonzero;stroke:none"
         id="path326" /><path
         d="m 24996.7,3568.9 h 1279.4 c 43.3,0 78.4,35.1 78.4,78.4 v 326.2 c 0,43.3 -35.1,78.4 -78.4,78.4 h -1279.4 c -43.4,0 -78.5,-35.1 -78.5,-78.4 v -326.2 c 0,-43.3 35.1,-78.4 78.5,-78.4"
         style="fill:#b84c42;fill-opacity:1;fill-rule:nonzero;stroke:none"
         id="path328" /><path
         d="m 23484.2,3568.9 h 1279.4 c 43.4,0 78.5,35.1 78.5,78.4 v 326.2 c 0,43.3 -35.1,78.4 -78.5,78.4 h -1279.4 c -43.3,0 -78.4,-35.1 -78.4,-78.4 v -326.2 c 0,-43.3 35.1,-78.4 78.4,-78.4"
         style="fill:#b84c42;fill-opacity:1;fill-rule:nonzero;stroke:none"
         id="path330" /><path
         d="m 21971.8,3568.9 h 1279.4 c 43.3,0 78.5,35.1 78.5,78.4 v 326.2 c 0,43.3 -35.2,78.4 -78.5,78.4 h -1279.4 c -43.3,0 -78.5,-35.1 -78.5,-78.4 v -326.2 c 0,-43.3 35.2,-78.4 78.5,-78.4"
         style="fill:#b84c42;fill-opacity:1;fill-rule:nonzero;stroke:none"
         id="path332" /><path
         d="m 20459.4,3568.9 h 1279.4 c 43.3,0 78.4,35.1 78.4,78.4 v 326.2 c 0,43.3 -35.1,78.4 -78.4,78.4 h -1279.4 c -43.4,0 -78.5,-35.1 -78.5,-78.4 v -326.2 c 0,-43.3 35.1,-78.4 78.5,-78.4"
         style="fill:#b84c42;fill-opacity:1;fill-rule:nonzero;stroke:none"
         id="path334" /><path
         d="m 18946.9,3568.9 h 1279.4 c 43.3,0 78.5,35.1 78.5,78.4 v 326.2 c 0,43.3 -35.2,78.4 -78.5,78.4 h -1279.4 c -43.3,0 -78.5,-35.1 -78.5,-78.4 v -326.2 c 0,-43.3 35.2,-78.4 78.5,-78.4"
         style="fill:#b84c42;fill-opacity:1;fill-rule:nonzero;stroke:none"
         id="path336" /><path
         d="m 17434.5,3568.9 h 1279.4 c 43.3,0 78.5,35.1 78.5,78.4 v 326.2 c 0,43.3 -35.2,78.4 -78.5,78.4 h -1279.4 c -43.4,0 -78.5,-35.1 -78.5,-78.4 v -326.2 c 0,-43.3 35.1,-78.4 78.5,-78.4"
         style="fill:#b84c42;fill-opacity:1;fill-rule:nonzero;stroke:none"
         id="path338" /><path
         d="m 15922.1,3568.9 h 1279.3 c 43.4,0 78.5,35.1 78.5,78.4 v 326.2 c 0,43.3 -35.1,78.4 -78.5,78.4 h -1279.3 c -43.4,0 -78.5,-35.1 -78.5,-78.4 v -326.2 c 0,-43.3 35.1,-78.4 78.5,-78.4"
         style="fill:#b84c42;fill-opacity:1;fill-rule:nonzero;stroke:none"
         id="path340" /><path
         d="m 14400.1,3568.9 h 1279.4 c 43.3,0 78.5,35.1 78.5,78.4 v 326.2 c 0,43.3 -35.2,78.4 -78.5,78.4 h -1279.4 c -43.3,0 -78.5,-35.1 -78.5,-78.4 v -326.2 c 0,-43.3 35.2,-78.4 78.5,-78.4"
         style="fill:#b84c42;fill-opacity:1;fill-rule:nonzero;stroke:none"
         id="path342" /><path
         d="m 12887.7,3568.9 h 1279.4 c 43.3,0 78.4,35.1 78.4,78.4 v 326.2 c 0,43.3 -35.1,78.4 -78.4,78.4 h -1279.4 c -43.4,0 -78.5,-35.1 -78.5,-78.4 v -326.2 c 0,-43.3 35.1,-78.4 78.5,-78.4"
         style="fill:#b84c42;fill-opacity:1;fill-rule:nonzero;stroke:none"
         id="path344" /><path
         d="m 11375.2,3568.9 h 1279.4 c 43.4,0 78.5,35.1 78.5,78.4 v 326.2 c 0,43.3 -35.1,78.4 -78.5,78.4 h -1279.4 c -43.3,0 -78.4,-35.1 -78.4,-78.4 v -326.2 c 0,-43.3 35.1,-78.4 78.4,-78.4"
         style="fill:#b84c42;fill-opacity:1;fill-rule:nonzero;stroke:none"
         id="path346" /><path
         d="m 9862.79,3568.9 h 1279.41 c 43.3,0 78.5,35.1 78.5,78.4 v 326.2 c 0,43.3 -35.2,78.4 -78.5,78.4 H 9862.79 c -43.34,0 -78.48,-35.1 -78.48,-78.4 v -326.2 c 0,-43.3 35.14,-78.4 78.48,-78.4"
         style="fill:#b84c42;fill-opacity:1;fill-rule:nonzero;stroke:none"
         id="path348" /><path
         d="m 8350.35,3568.9 h 1279.39 c 43.34,0 78.48,35.1 78.48,78.4 v 326.2 c 0,43.3 -35.14,78.4 -78.48,78.4 H 8350.35 c -43.34,0 -78.47,-35.1 -78.47,-78.4 v -326.2 c 0,-43.3 35.13,-78.4 78.47,-78.4"
         style="fill:#b84c42;fill-opacity:1;fill-rule:nonzero;stroke:none"
         id="path350" /><path
         d="M 6837.92,3568.9 H 8117.3 c 43.34,0 78.48,35.1 78.48,78.4 v 326.2 c 0,43.3 -35.14,78.4 -78.48,78.4 H 6837.92 c -43.34,0 -78.48,-35.1 -78.48,-78.4 v -326.2 c 0,-43.3 35.14,-78.4 78.48,-78.4"
         style="fill:#b84c42;fill-opacity:1;fill-rule:nonzero;stroke:none"
         id="path352" /><path
         d="m 5325.48,3568.9 h 1279.39 c 43.34,0 78.47,35.1 78.47,78.4 v 326.2 c 0,43.3 -35.13,78.4 -78.47,78.4 H 5325.48 c -43.34,0 -78.48,-35.1 -78.48,-78.4 v -326.2 c 0,-43.3 35.14,-78.4 78.48,-78.4"
         style="fill:#b84c42;fill-opacity:1;fill-rule:nonzero;stroke:none"
         id="path354" /><path
         d="m 3813.04,3568.9 h 1279.39 c 43.34,0 78.47,35.1 78.47,78.4 v 326.2 c 0,43.3 -35.13,78.4 -78.47,78.4 H 3813.04 c -43.34,0 -78.47,-35.1 -78.47,-78.4 v -326.2 c 0,-43.3 35.13,-78.4 78.47,-78.4"
         style="fill:#b84c42;fill-opacity:1;fill-rule:nonzero;stroke:none"
         id="path356" /><path
         d="m 3051.77,3568.9 h 551.07 c 43.34,0 78.47,35.1 78.47,78.4 v 326.2 c 0,43.3 -35.13,78.4 -78.47,78.4 h -551.07 c -43.34,0 -78.47,-35.1 -78.47,-78.4 v -326.2 c 0,-43.3 35.13,-78.4 78.47,-78.4"
         style="fill:#b84c42;fill-opacity:1;fill-rule:nonzero;stroke:none"
         id="path358" /><path
         d="m 25767.1,4116.4 h 1279.3 c 43.4,0 78.5,35.2 78.5,78.5 V 4521 c 0,43.4 -35.1,78.5 -78.5,78.5 h -1279.3 c -43.4,0 -78.5,-35.1 -78.5,-78.5 v -326.1 c 0,-43.3 35.1,-78.5 78.5,-78.5"
         style="fill:#b84c42;fill-opacity:1;fill-rule:nonzero;stroke:none"
         id="path360" /><path
         d="M 24254.6,4116.4 H 25534 c 43.3,0 78.5,35.2 78.5,78.5 V 4521 c 0,43.4 -35.2,78.5 -78.5,78.5 h -1279.4 c -43.3,0 -78.5,-35.1 -78.5,-78.5 v -326.1 c 0,-43.3 35.2,-78.5 78.5,-78.5"
         style="fill:#b84c42;fill-opacity:1;fill-rule:nonzero;stroke:none"
         id="path362" /><path
         d="m 22742.2,4116.4 h 1279.4 c 43.3,0 78.4,35.2 78.4,78.5 V 4521 c 0,43.4 -35.1,78.5 -78.4,78.5 h -1279.4 c -43.4,0 -78.5,-35.1 -78.5,-78.5 v -326.1 c 0,-43.3 35.1,-78.5 78.5,-78.5"
         style="fill:#b84c42;fill-opacity:1;fill-rule:nonzero;stroke:none"
         id="path364" /><path
         d="m 21229.7,4116.4 h 1279.4 c 43.4,0 78.5,35.2 78.5,78.5 V 4521 c 0,43.4 -35.1,78.5 -78.5,78.5 h -1279.4 c -43.3,0 -78.4,-35.1 -78.4,-78.5 v -326.1 c 0,-43.3 35.1,-78.5 78.4,-78.5"
         style="fill:#b84c42;fill-opacity:1;fill-rule:nonzero;stroke:none"
         id="path366" /><path
         d="m 19717.3,4116.4 h 1279.4 c 43.3,0 78.5,35.2 78.5,78.5 V 4521 c 0,43.4 -35.2,78.5 -78.5,78.5 h -1279.4 c -43.3,0 -78.5,-35.1 -78.5,-78.5 v -326.1 c 0,-43.3 35.2,-78.5 78.5,-78.5"
         style="fill:#b84c42;fill-opacity:1;fill-rule:nonzero;stroke:none"
         id="path368" /><path
         d="m 18204.9,4116.4 h 1279.3 c 43.4,0 78.5,35.2 78.5,78.5 V 4521 c 0,43.4 -35.1,78.5 -78.5,78.5 h -1279.3 c -43.4,0 -78.5,-35.1 -78.5,-78.5 v -326.1 c 0,-43.3 35.1,-78.5 78.5,-78.5"
         style="fill:#b84c42;fill-opacity:1;fill-rule:nonzero;stroke:none"
         id="path370" /><path
         d="m 16692.4,4116.4 h 1279.4 c 43.4,0 78.5,35.2 78.5,78.5 V 4521 c 0,43.4 -35.1,78.5 -78.5,78.5 h -1279.4 c -43.3,0 -78.4,-35.1 -78.4,-78.5 v -326.1 c 0,-43.3 35.1,-78.5 78.4,-78.5"
         style="fill:#b84c42;fill-opacity:1;fill-rule:nonzero;stroke:none"
         id="path372" /><path
         d="m 15180,4116.4 h 1279.4 c 43.3,0 78.5,35.2 78.5,78.5 V 4521 c 0,43.4 -35.2,78.5 -78.5,78.5 H 15180 c -43.3,0 -78.5,-35.1 -78.5,-78.5 v -326.1 c 0,-43.3 35.2,-78.5 78.5,-78.5"
         style="fill:#b84c42;fill-opacity:1;fill-rule:nonzero;stroke:none"
         id="path374" /><path
         d="m 13658,4116.4 h 1279.4 c 43.4,0 78.5,35.2 78.5,78.5 V 4521 c 0,43.4 -35.1,78.5 -78.5,78.5 H 13658 c -43.3,0 -78.4,-35.1 -78.4,-78.5 v -326.1 c 0,-43.3 35.1,-78.5 78.4,-78.5"
         style="fill:#b84c42;fill-opacity:1;fill-rule:nonzero;stroke:none"
         id="path376" /><path
         d="M 12145.6,4116.4 H 13425 c 43.3,0 78.5,35.2 78.5,78.5 V 4521 c 0,43.4 -35.2,78.5 -78.5,78.5 h -1279.4 c -43.3,0 -78.5,-35.1 -78.5,-78.5 v -326.1 c 0,-43.3 35.2,-78.5 78.5,-78.5"
         style="fill:#b84c42;fill-opacity:1;fill-rule:nonzero;stroke:none"
         id="path378" /><path
         d="m 10633.2,4116.4 h 1279.4 c 43.3,0 78.4,35.2 78.4,78.5 V 4521 c 0,43.4 -35.1,78.5 -78.4,78.5 h -1279.4 c -43.4,0 -78.5,-35.1 -78.5,-78.5 v -326.1 c 0,-43.3 35.1,-78.5 78.5,-78.5"
         style="fill:#b84c42;fill-opacity:1;fill-rule:nonzero;stroke:none"
         id="path380" /><path
         d="m 9120.73,4116.4 h 1279.37 c 43.4,0 78.5,35.2 78.5,78.5 V 4521 c 0,43.4 -35.1,78.5 -78.5,78.5 H 9120.73 c -43.34,0 -78.47,-35.1 -78.47,-78.5 v -326.1 c 0,-43.3 35.13,-78.5 78.47,-78.5"
         style="fill:#b84c42;fill-opacity:1;fill-rule:nonzero;stroke:none"
         id="path382" /><path
         d="m 7608.29,4116.4 h 1279.39 c 43.34,0 78.48,35.2 78.48,78.5 V 4521 c 0,43.4 -35.14,78.5 -78.48,78.5 H 7608.29 c -43.34,0 -78.48,-35.1 -78.48,-78.5 v -326.1 c 0,-43.3 35.14,-78.5 78.48,-78.5"
         style="fill:#b84c42;fill-opacity:1;fill-rule:nonzero;stroke:none"
         id="path384" /><path
         d="m 6095.85,4116.4 h 1279.39 c 43.34,0 78.48,35.2 78.48,78.5 V 4521 c 0,43.4 -35.14,78.5 -78.48,78.5 H 6095.85 c -43.34,0 -78.47,-35.1 -78.47,-78.5 v -326.1 c 0,-43.3 35.13,-78.5 78.47,-78.5"
         style="fill:#b84c42;fill-opacity:1;fill-rule:nonzero;stroke:none"
         id="path386" /><path
         d="m 4583.42,4116.4 h 1279.39 c 43.34,0 78.47,35.2 78.47,78.5 V 4521 c 0,43.4 -35.13,78.5 -78.47,78.5 H 4583.42 c -43.34,0 -78.48,-35.1 -78.48,-78.5 v -326.1 c 0,-43.3 35.14,-78.5 78.48,-78.5"
         style="fill:#b84c42;fill-opacity:1;fill-rule:nonzero;stroke:none"
         id="path388" /><path
         d="m 3070.98,4116.4 h 1279.39 c 43.34,0 78.47,35.2 78.47,78.5 V 4521 c 0,43.4 -35.13,78.5 -78.47,78.5 H 3070.98 c -43.34,0 -78.48,-35.1 -78.48,-78.5 v -326.1 c 0,-43.3 35.14,-78.5 78.48,-78.5"
         style="fill:#b84c42;fill-opacity:1;fill-rule:nonzero;stroke:none"
         id="path390" /><path
         d="m 26509.1,4668.2 h 551.1 c 43.3,0 78.5,35.1 78.5,78.5 v 326.1 c 0,43.4 -35.2,78.5 -78.5,78.5 h -551.1 c -43.3,0 -78.5,-35.1 -78.5,-78.5 v -326.1 c 0,-43.4 35.2,-78.5 78.5,-78.5"
         style="fill:#b84c42;fill-opacity:1;fill-rule:nonzero;stroke:none"
         id="path392" /><path
         d="m 24996.7,4668.2 h 1279.4 c 43.3,0 78.4,35.1 78.4,78.5 v 326.1 c 0,43.4 -35.1,78.5 -78.4,78.5 h -1279.4 c -43.4,0 -78.5,-35.1 -78.5,-78.5 v -326.1 c 0,-43.4 35.1,-78.5 78.5,-78.5"
         style="fill:#b84c42;fill-opacity:1;fill-rule:nonzero;stroke:none"
         id="path394" /><path
         d="m 23484.2,4668.2 h 1279.4 c 43.4,0 78.5,35.1 78.5,78.5 v 326.1 c 0,43.4 -35.1,78.5 -78.5,78.5 h -1279.4 c -43.3,0 -78.4,-35.1 -78.4,-78.5 v -326.1 c 0,-43.4 35.1,-78.5 78.4,-78.5"
         style="fill:#b84c42;fill-opacity:1;fill-rule:nonzero;stroke:none"
         id="path396" /><path
         d="m 21971.8,4668.2 h 1279.4 c 43.3,0 78.5,35.1 78.5,78.5 v 326.1 c 0,43.4 -35.2,78.5 -78.5,78.5 h -1279.4 c -43.3,0 -78.5,-35.1 -78.5,-78.5 v -326.1 c 0,-43.4 35.2,-78.5 78.5,-78.5"
         style="fill:#b84c42;fill-opacity:1;fill-rule:nonzero;stroke:none"
         id="path398" /><path
         d="m 20459.4,4668.2 h 1279.4 c 43.3,0 78.4,35.1 78.4,78.5 v 326.1 c 0,43.4 -35.1,78.5 -78.4,78.5 h -1279.4 c -43.4,0 -78.5,-35.1 -78.5,-78.5 v -326.1 c 0,-43.4 35.1,-78.5 78.5,-78.5"
         style="fill:#b84c42;fill-opacity:1;fill-rule:nonzero;stroke:none"
         id="path400" /><path
         d="m 18946.9,4668.2 h 1279.4 c 43.3,0 78.5,35.1 78.5,78.5 v 326.1 c 0,43.4 -35.2,78.5 -78.5,78.5 h -1279.4 c -43.3,0 -78.5,-35.1 -78.5,-78.5 v -326.1 c 0,-43.4 35.2,-78.5 78.5,-78.5"
         style="fill:#b84c42;fill-opacity:1;fill-rule:nonzero;stroke:none"
         id="path402" /><path
         d="m 17434.5,4668.2 h 1279.4 c 43.3,0 78.5,35.1 78.5,78.5 v 326.1 c 0,43.4 -35.2,78.5 -78.5,78.5 h -1279.4 c -43.4,0 -78.5,-35.1 -78.5,-78.5 v -326.1 c 0,-43.4 35.1,-78.5 78.5,-78.5"
         style="fill:#b84c42;fill-opacity:1;fill-rule:nonzero;stroke:none"
         id="path404" /><path
         d="m 15922.1,4668.2 h 1279.3 c 43.4,0 78.5,35.1 78.5,78.5 v 326.1 c 0,43.4 -35.1,78.5 -78.5,78.5 h -1279.3 c -43.4,0 -78.5,-35.1 -78.5,-78.5 v -326.1 c 0,-43.4 35.1,-78.5 78.5,-78.5"
         style="fill:#b84c42;fill-opacity:1;fill-rule:nonzero;stroke:none"
         id="path406" /><path
         d="m 14400.1,4668.2 h 1279.4 c 43.3,0 78.5,35.1 78.5,78.5 v 326.1 c 0,43.4 -35.2,78.5 -78.5,78.5 h -1279.4 c -43.3,0 -78.5,-35.1 -78.5,-78.5 v -326.1 c 0,-43.4 35.2,-78.5 78.5,-78.5"
         style="fill:#b84c42;fill-opacity:1;fill-rule:nonzero;stroke:none"
         id="path408" /><path
         d="m 12887.7,4668.2 h 1279.4 c 43.3,0 78.4,35.1 78.4,78.5 v 326.1 c 0,43.4 -35.1,78.5 -78.4,78.5 h -1279.4 c -43.4,0 -78.5,-35.1 -78.5,-78.5 v -326.1 c 0,-43.4 35.1,-78.5 78.5,-78.5"
         style="fill:#b84c42;fill-opacity:1;fill-rule:nonzero;stroke:none"
         id="path410" /><path
         d="m 11375.2,4668.2 h 1279.4 c 43.4,0 78.5,35.1 78.5,78.5 v 326.1 c 0,43.4 -35.1,78.5 -78.5,78.5 h -1279.4 c -43.3,0 -78.4,-35.1 -78.4,-78.5 v -326.1 c 0,-43.4 35.1,-78.5 78.4,-78.5"
         style="fill:#b84c42;fill-opacity:1;fill-rule:nonzero;stroke:none"
         id="path412" /><path
         d="m 9862.79,4668.2 h 1279.41 c 43.3,0 78.5,35.1 78.5,78.5 v 326.1 c 0,43.4 -35.2,78.5 -78.5,78.5 H 9862.79 c -43.34,0 -78.48,-35.1 -78.48,-78.5 v -326.1 c 0,-43.4 35.14,-78.5 78.48,-78.5"
         style="fill:#b84c42;fill-opacity:1;fill-rule:nonzero;stroke:none"
         id="path414" /><path
         d="m 8350.35,4668.2 h 1279.39 c 43.34,0 78.48,35.1 78.48,78.5 v 326.1 c 0,43.4 -35.14,78.5 -78.48,78.5 H 8350.35 c -43.34,0 -78.47,-35.1 -78.47,-78.5 v -326.1 c 0,-43.4 35.13,-78.5 78.47,-78.5"
         style="fill:#b84c42;fill-opacity:1;fill-rule:nonzero;stroke:none"
         id="path416" /><path
         d="M 6837.92,4668.2 H 8117.3 c 43.34,0 78.48,35.1 78.48,78.5 v 326.1 c 0,43.4 -35.14,78.5 -78.48,78.5 H 6837.92 c -43.34,0 -78.48,-35.1 -78.48,-78.5 v -326.1 c 0,-43.4 35.14,-78.5 78.48,-78.5"
         style="fill:#b84c42;fill-opacity:1;fill-rule:nonzero;stroke:none"
         id="path418" /><path
         d="m 5325.48,4668.2 h 1279.39 c 43.34,0 78.47,35.1 78.47,78.5 v 326.1 c 0,43.4 -35.13,78.5 -78.47,78.5 H 5325.48 c -43.34,0 -78.48,-35.1 -78.48,-78.5 v -326.1 c 0,-43.4 35.14,-78.5 78.48,-78.5"
         style="fill:#b84c42;fill-opacity:1;fill-rule:nonzero;stroke:none"
         id="path420" /><path
         d="m 3813.04,4668.2 h 1279.39 c 43.34,0 78.47,35.1 78.47,78.5 v 326.1 c 0,43.4 -35.13,78.5 -78.47,78.5 H 3813.04 c -43.34,0 -78.47,-35.1 -78.47,-78.5 v -326.1 c 0,-43.4 35.13,-78.5 78.47,-78.5"
         style="fill:#b84c42;fill-opacity:1;fill-rule:nonzero;stroke:none"
         id="path422" /><path
         d="m 3051.77,4668.2 h 551.07 c 43.34,0 78.47,35.1 78.47,78.5 v 326.1 c 0,43.4 -35.13,78.5 -78.47,78.5 h -551.07 c -43.34,0 -78.47,-35.1 -78.47,-78.5 v -326.1 c 0,-43.4 35.13,-78.5 78.47,-78.5"
         style="fill:#b84c42;fill-opacity:1;fill-rule:nonzero;stroke:none"
         id="path424" /><path
         d="m 25767.1,5229.5 h 1279.3 c 43.4,0 78.5,35.1 78.5,78.5 v 326.1 c 0,43.4 -35.1,78.5 -78.5,78.5 h -1279.3 c -43.4,0 -78.5,-35.1 -78.5,-78.5 V 5308 c 0,-43.4 35.1,-78.5 78.5,-78.5"
         style="fill:#b84c42;fill-opacity:1;fill-rule:nonzero;stroke:none"
         id="path426" /><path
         d="M 24254.6,5229.5 H 25534 c 43.3,0 78.5,35.1 78.5,78.5 v 326.1 c 0,43.4 -35.2,78.5 -78.5,78.5 h -1279.4 c -43.3,0 -78.5,-35.1 -78.5,-78.5 V 5308 c 0,-43.4 35.2,-78.5 78.5,-78.5"
         style="fill:#b84c42;fill-opacity:1;fill-rule:nonzero;stroke:none"
         id="path428" /><path
         d="m 22742.2,5229.5 h 1279.4 c 43.3,0 78.4,35.1 78.4,78.5 v 326.1 c 0,43.4 -35.1,78.5 -78.4,78.5 h -1279.4 c -43.4,0 -78.5,-35.1 -78.5,-78.5 V 5308 c 0,-43.4 35.1,-78.5 78.5,-78.5"
         style="fill:#b84c42;fill-opacity:1;fill-rule:nonzero;stroke:none"
         id="path430" /><path
         d="m 21229.7,5229.5 h 1279.4 c 43.4,0 78.5,35.1 78.5,78.5 v 326.1 c 0,43.4 -35.1,78.5 -78.5,78.5 h -1279.4 c -43.3,0 -78.4,-35.1 -78.4,-78.5 V 5308 c 0,-43.4 35.1,-78.5 78.4,-78.5"
         style="fill:#b84c42;fill-opacity:1;fill-rule:nonzero;stroke:none"
         id="path432" /><path
         d="m 19717.3,5229.5 h 1279.4 c 43.3,0 78.5,35.1 78.5,78.5 v 326.1 c 0,43.4 -35.2,78.5 -78.5,78.5 h -1279.4 c -43.3,0 -78.5,-35.1 -78.5,-78.5 V 5308 c 0,-43.4 35.2,-78.5 78.5,-78.5"
         style="fill:#b84c42;fill-opacity:1;fill-rule:nonzero;stroke:none"
         id="path434" /><path
         d="m 18204.9,5229.5 h 1279.3 c 43.4,0 78.5,35.1 78.5,78.5 v 326.1 c 0,43.4 -35.1,78.5 -78.5,78.5 h -1279.3 c -43.4,0 -78.5,-35.1 -78.5,-78.5 V 5308 c 0,-43.4 35.1,-78.5 78.5,-78.5"
         style="fill:#b84c42;fill-opacity:1;fill-rule:nonzero;stroke:none"
         id="path436" /><path
         d="m 16692.4,5229.5 h 1279.4 c 43.4,0 78.5,35.1 78.5,78.5 v 326.1 c 0,43.4 -35.1,78.5 -78.5,78.5 h -1279.4 c -43.3,0 -78.4,-35.1 -78.4,-78.5 V 5308 c 0,-43.4 35.1,-78.5 78.4,-78.5"
         style="fill:#b84c42;fill-opacity:1;fill-rule:nonzero;stroke:none"
         id="path438" /><path
         d="m 15180,5229.5 h 1279.4 c 43.3,0 78.5,35.1 78.5,78.5 v 326.1 c 0,43.4 -35.2,78.5 -78.5,78.5 H 15180 c -43.3,0 -78.5,-35.1 -78.5,-78.5 V 5308 c 0,-43.4 35.2,-78.5 78.5,-78.5"
         style="fill:#b84c42;fill-opacity:1;fill-rule:nonzero;stroke:none"
         id="path440" /><path
         d="m 13658,5229.5 h 1279.4 c 43.4,0 78.5,35.1 78.5,78.5 v 326.1 c 0,43.4 -35.1,78.5 -78.5,78.5 H 13658 c -43.3,0 -78.4,-35.1 -78.4,-78.5 V 5308 c 0,-43.4 35.1,-78.5 78.4,-78.5"
         style="fill:#b84c42;fill-opacity:1;fill-rule:nonzero;stroke:none"
         id="path442" /><path
         d="M 12145.6,5229.5 H 13425 c 43.3,0 78.5,35.1 78.5,78.5 v 326.1 c 0,43.4 -35.2,78.5 -78.5,78.5 h -1279.4 c -43.3,0 -78.5,-35.1 -78.5,-78.5 V 5308 c 0,-43.4 35.2,-78.5 78.5,-78.5"
         style="fill:#b84c42;fill-opacity:1;fill-rule:nonzero;stroke:none"
         id="path444" /><path
         d="m 10633.2,5229.5 h 1279.4 c 43.3,0 78.4,35.1 78.4,78.5 v 326.1 c 0,43.4 -35.1,78.5 -78.4,78.5 h -1279.4 c -43.4,0 -78.5,-35.1 -78.5,-78.5 V 5308 c 0,-43.4 35.1,-78.5 78.5,-78.5"
         style="fill:#b84c42;fill-opacity:1;fill-rule:nonzero;stroke:none"
         id="path446" /><path
         d="m 9120.73,5229.5 h 1279.37 c 43.4,0 78.5,35.1 78.5,78.5 v 326.1 c 0,43.4 -35.1,78.5 -78.5,78.5 H 9120.73 c -43.34,0 -78.47,-35.1 -78.47,-78.5 V 5308 c 0,-43.4 35.13,-78.5 78.47,-78.5"
         style="fill:#b84c42;fill-opacity:1;fill-rule:nonzero;stroke:none"
         id="path448" /><path
         d="m 7608.29,5229.5 h 1279.39 c 43.34,0 78.48,35.1 78.48,78.5 v 326.1 c 0,43.4 -35.14,78.5 -78.48,78.5 H 7608.29 c -43.34,0 -78.48,-35.1 -78.48,-78.5 V 5308 c 0,-43.4 35.14,-78.5 78.48,-78.5"
         style="fill:#b84c42;fill-opacity:1;fill-rule:nonzero;stroke:none"
         id="path450" /><path
         d="m 6095.85,5229.5 h 1279.39 c 43.34,0 78.48,35.1 78.48,78.5 v 326.1 c 0,43.4 -35.14,78.5 -78.48,78.5 H 6095.85 c -43.34,0 -78.47,-35.1 -78.47,-78.5 V 5308 c 0,-43.4 35.13,-78.5 78.47,-78.5"
         style="fill:#b84c42;fill-opacity:1;fill-rule:nonzero;stroke:none"
         id="path452" /><path
         d="m 4583.42,5229.5 h 1279.39 c 43.34,0 78.47,35.1 78.47,78.5 v 326.1 c 0,43.4 -35.13,78.5 -78.47,78.5 H 4583.42 c -43.34,0 -78.48,-35.1 -78.48,-78.5 V 5308 c 0,-43.4 35.14,-78.5 78.48,-78.5"
         style="fill:#b84c42;fill-opacity:1;fill-rule:nonzero;stroke:none"
         id="path454" /><path
         d="m 3070.98,5229.5 h 1279.39 c 43.34,0 78.47,35.1 78.47,78.5 v 326.1 c 0,43.4 -35.13,78.5 -78.47,78.5 H 3070.98 c -43.34,0 -78.48,-35.1 -78.48,-78.5 V 5308 c 0,-43.4 35.14,-78.5 78.48,-78.5"
         style="fill:#b84c42;fill-opacity:1;fill-rule:nonzero;stroke:none"
         id="path456" /><path
         d="m 26509.1,5781.3 h 551.1 c 43.3,0 78.5,35.1 78.5,78.5 v 326.1 c 0,43.3 -35.2,78.5 -78.5,78.5 h -551.1 c -43.3,0 -78.5,-35.2 -78.5,-78.5 v -326.1 c 0,-43.4 35.2,-78.5 78.5,-78.5"
         style="fill:#b84c42;fill-opacity:1;fill-rule:nonzero;stroke:none"
         id="path458" /><path
         d="m 24996.7,5781.3 h 1279.4 c 43.3,0 78.4,35.1 78.4,78.5 v 326.1 c 0,43.3 -35.1,78.5 -78.4,78.5 h -1279.4 c -43.4,0 -78.5,-35.2 -78.5,-78.5 v -326.1 c 0,-43.4 35.1,-78.5 78.5,-78.5"
         style="fill:#b84c42;fill-opacity:1;fill-rule:nonzero;stroke:none"
         id="path460" /><path
         d="m 23484.2,5781.3 h 1279.4 c 43.4,0 78.5,35.1 78.5,78.5 v 326.1 c 0,43.3 -35.1,78.5 -78.5,78.5 h -1279.4 c -43.3,0 -78.4,-35.2 -78.4,-78.5 v -326.1 c 0,-43.4 35.1,-78.5 78.4,-78.5"
         style="fill:#b84c42;fill-opacity:1;fill-rule:nonzero;stroke:none"
         id="path462" /><path
         d="m 21971.8,5781.3 h 1279.4 c 43.3,0 78.5,35.1 78.5,78.5 v 326.1 c 0,43.3 -35.2,78.5 -78.5,78.5 h -1279.4 c -43.3,0 -78.5,-35.2 -78.5,-78.5 v -326.1 c 0,-43.4 35.2,-78.5 78.5,-78.5"
         style="fill:#b84c42;fill-opacity:1;fill-rule:nonzero;stroke:none"
         id="path464" /><path
         d="m 20459.4,5781.3 h 1279.4 c 43.3,0 78.4,35.1 78.4,78.5 v 326.1 c 0,43.3 -35.1,78.5 -78.4,78.5 h -1279.4 c -43.4,0 -78.5,-35.2 -78.5,-78.5 v -326.1 c 0,-43.4 35.1,-78.5 78.5,-78.5"
         style="fill:#b84c42;fill-opacity:1;fill-rule:nonzero;stroke:none"
         id="path466" /><path
         d="m 18946.9,5781.3 h 1279.4 c 43.3,0 78.5,35.1 78.5,78.5 v 326.1 c 0,43.3 -35.2,78.5 -78.5,78.5 h -1279.4 c -43.3,0 -78.5,-35.2 -78.5,-78.5 v -326.1 c 0,-43.4 35.2,-78.5 78.5,-78.5"
         style="fill:#b84c42;fill-opacity:1;fill-rule:nonzero;stroke:none"
         id="path468" /><path
         d="m 17434.5,5781.3 h 1279.4 c 43.3,0 78.5,35.1 78.5,78.5 v 326.1 c 0,43.3 -35.2,78.5 -78.5,78.5 h -1279.4 c -43.4,0 -78.5,-35.2 -78.5,-78.5 v -326.1 c 0,-43.4 35.1,-78.5 78.5,-78.5"
         style="fill:#b84c42;fill-opacity:1;fill-rule:nonzero;stroke:none"
         id="path470" /><path
         d="m 15922.1,5781.3 h 1279.3 c 43.4,0 78.5,35.1 78.5,78.5 v 326.1 c 0,43.3 -35.1,78.5 -78.5,78.5 h -1279.3 c -43.4,0 -78.5,-35.2 -78.5,-78.5 v -326.1 c 0,-43.4 35.1,-78.5 78.5,-78.5"
         style="fill:#b84c42;fill-opacity:1;fill-rule:nonzero;stroke:none"
         id="path472" /><path
         d="m 14400.1,5781.3 h 1279.4 c 43.3,0 78.5,35.1 78.5,78.5 v 326.1 c 0,43.3 -35.2,78.5 -78.5,78.5 h -1279.4 c -43.3,0 -78.5,-35.2 -78.5,-78.5 v -326.1 c 0,-43.4 35.2,-78.5 78.5,-78.5"
         style="fill:#b84c42;fill-opacity:1;fill-rule:nonzero;stroke:none"
         id="path474" /><path
         d="m 2841.34,6578.1 v 0"
         style="fill:#b84c42;fill-opacity:1;fill-rule:nonzero;stroke:none"
         id="path476" /><path
         d="M 27622.5,1873.7 H 2357.46 c -15.29,0 -27.8,12.5 -27.8,27.7 0,15.3 12.51,27.8 27.8,27.8 H 27622.5 c 15.3,0 27.8,-12.5 27.8,-27.8 0,-15.2 -12.5,-27.7 -27.8,-27.7"
         style="fill:#283250;fill-opacity:1;fill-rule:nonzero;stroke:none"
         id="path478" /></g></g></svg>
